<svg width="37" height="36" viewBox="0 0 37 36" fill="none" xmlns="http://www.w3.org/2000/svg">
<path d="M36.3914 26C36.3914 28.209 34.6004 30 32.3914 30H8.39142C6.18242 30 4.39142 28.209 4.39142 26V6.313C4.39142 4.104 10.1824 0 12.3914 0H31.0164C34.1104 0 36.3914 2.312 36.3914 5.375V26Z" fill="#F4900C"/>
<path d="M34.3914 30C34.3914 32.209 32.6004 34 30.3914 34H10.3914C8.1824 34 6.3914 32.209 6.3914 30V6C6.3914 1.881 6.3704 2 11.3914 2H30.3914C32.6004 2 34.3914 3.791 34.3914 6V30Z" fill="#CCD6DD"/>
<path d="M32.3914 31C32.3914 32.657 31.0484 34 29.3914 34H7.39142C5.73442 34 4.39142 32.657 4.39142 31V7C4.39142 5.343 5.73442 4 7.39142 4H29.3914C31.0484 4 32.3914 5.343 32.3914 7V31Z" fill="#E1E8ED"/>
<path d="M32.3914 32C32.3914 34.209 30.6004 36 28.3914 36H9.39142C7.18242 36 5.39142 34.209 5.39142 32V10C5.39142 7.791 7.18242 6 9.39142 6H28.3914C30.6004 6 32.3914 7.791 32.3914 10V32Z" fill="#FFAC33"/>
<path d="M30.3914 32C30.3914 34.209 28.6004 36 26.3914 36H9.39142C7.18242 36 5.39142 34.209 5.39142 32V12C5.39142 9.791 7.18242 8 9.39142 8H26.7264C28.9354 8 30.3914 9.456 30.3914 11.665V32Z" fill="#FFCC4D"/>
<path d="M9.39142 6C7.70342 6 7.66042 4.078 8.39142 3.25C9.22342 2.309 10.5164 2 12.8294 2H14.3914V0H11.6724C7.70342 0 4.39142 2.5 4.39142 5.375V32C4.39142 34.209 6.18242 36 8.39142 36H10.3914V6H9.39142Z" fill="#F4900C"/>
<path d="M8.93341 32.979C8.93341 33.681 8.26641 34.25 7.44341 34.25C6.62141 34.25 5.95441 33.681 5.95441 32.979C5.95441 32.278 6.62141 31.708 7.44341 31.708C8.26641 31.708 8.93341 32.277 8.93341 32.979Z" fill="#662113"/>
<path d="M7.28541 32.271C6.80541 32.326 6.49341 32.646 6.26841 33C5.96141 33.485 5.26141 34 4.39141 34C3.28741 34 2.39141 33.329 2.39141 32.5C2.39141 31.671 3.28741 31 4.39141 31V29.004C2.22441 29.025 0.474411 30.579 0.474411 32.5C0.474411 34.434 2.24641 36 4.43241 36C6.28641 36 7.77941 34.955 8.33341 33.431C8.61041 32.672 7.86441 32.207 7.28541 32.271Z" fill="#66757F"/>
<path d="M8.93341 24.979C8.93341 25.681 8.26641 26.25 7.44341 26.25C6.62141 26.25 5.95441 25.681 5.95441 24.979C5.95441 24.278 6.62141 23.708 7.44341 23.708C8.26641 23.708 8.93341 24.277 8.93341 24.979Z" fill="#662113"/>
<path d="M7.28541 24.271C6.80541 24.326 6.49341 24.646 6.26841 25C5.96141 25.485 5.26141 26 4.39141 26C3.28741 26 2.39141 25.329 2.39141 24.5C2.39141 23.671 3.28741 23 4.39141 23V21.004C2.22441 21.025 0.474411 22.579 0.474411 24.5C0.474411 26.434 2.24641 28 4.43241 28C6.28641 28 7.77941 26.955 8.33341 25.431C8.61041 24.672 7.86441 24.207 7.28541 24.271Z" fill="#66757F"/>
<path d="M8.93341 16.979C8.93341 17.681 8.26641 18.25 7.44341 18.25C6.62141 18.25 5.95441 17.681 5.95441 16.979C5.95441 16.278 6.62141 15.708 7.44341 15.708C8.26641 15.708 8.93341 16.277 8.93341 16.979Z" fill="#662113"/>
<path d="M7.28541 16.271C6.80541 16.326 6.49341 16.646 6.26841 17C5.96141 17.485 5.26141 18 4.39141 18C3.28741 18 2.39141 17.329 2.39141 16.5C2.39141 15.671 3.28741 15 4.39141 15V13.004C2.22441 13.025 0.474411 14.579 0.474411 16.5C0.474411 18.434 2.24641 20 4.43241 20C6.28641 20 7.77941 18.955 8.33341 17.431C8.61041 16.672 7.86441 16.207 7.28541 16.271Z" fill="#66757F"/>
<path d="M8.93341 8.979C8.93341 9.681 8.26641 10.25 7.44341 10.25C6.62141 10.25 5.95441 9.681 5.95441 8.979C5.95441 8.278 6.62141 7.708 7.44341 7.708C8.26641 7.708 8.93341 8.277 8.93341 8.979Z" fill="#662113"/>
<path d="M7.28541 8.271C6.80541 8.326 6.49341 8.646 6.26841 9C5.96141 9.485 5.26141 10 4.39141 10C3.28741 10 2.39141 9.329 2.39141 8.5C2.39141 7.671 3.28741 7 4.39141 7V5.004C2.22541 5.024 0.474411 6.579 0.474411 8.5C0.474411 10.434 2.24641 12 4.43241 12C6.28641 12 7.77941 10.955 8.33341 9.431C8.61041 8.672 7.86441 8.207 7.28541 8.271Z" fill="#66757F"/>
</svg>
