<svg width="37" height="36" viewBox="0 0 37 36" fill="none" xmlns="http://www.w3.org/2000/svg">
<path d="M36.1772 7.47675L28.9972 0.29775C28.6012 -0.09925 27.9592 -0.09925 27.5612 0.29775L3.87022 23.9888C3.47322 24.3858 3.47322 25.0268 3.87022 25.4258C4.59022 26.1448 0.73022 33.3847 0.47522 33.9217L2.54322 35.9997C3.07922 35.7447 10.3282 31.8847 11.0492 32.6047C11.4462 33.0017 12.0882 33.0017 12.4852 32.6047L36.1772 8.91275C36.5742 8.51675 36.5742 7.87375 36.1772 7.47675Z" fill="#DD2E44"/>
<path d="M4.61423 23.2397L26.8822 0.971748L35.5022 9.59175L13.2342 31.8597L4.61423 23.2397Z" fill="#EA596E"/>
<path d="M24.0092 3.84575L25.4462 2.40975L34.0662 11.0298L32.6292 12.4658L24.0092 3.84575ZM6.05122 21.8028L7.48722 20.3658L16.1072 28.9858L14.6702 30.4228L6.05122 21.8028Z" fill="#292F33"/>
<path d="M27.3612 9.35275C25.8402 7.83175 21.3792 9.82875 17.3942 13.8118C13.4112 17.7958 11.4152 22.2578 12.9352 23.7788C14.4552 25.2998 18.9182 23.3028 22.9022 19.3198C26.8852 15.3358 28.8812 10.8728 27.3612 9.35275Z" fill="#BE1931"/>
</svg>
