<svg width="222" height="236" viewBox="0 0 222 236" fill="none" xmlns="http://www.w3.org/2000/svg">
<path d="M30.8001 173.998C17.0538 176.348 9.11763 190.874 18.7556 200.953C26.2594 208.801 35.9222 215.687 47.3285 221.201C68.6737 231.519 94.7342 236.355 120.855 234.847C146.975 233.339 171.454 225.584 189.918 212.968C200.142 205.981 208.154 197.756 213.611 188.798C220.489 177.506 210.497 165.391 197.293 164.699C185.185 164.065 174.732 173.715 166.672 182.774C164.038 185.734 160.877 188.493 157.234 190.982C146.463 198.341 132.184 202.865 116.947 203.745C101.71 204.625 86.5085 201.803 74.0572 195.785C68.3652 193.033 63.4175 189.696 59.3658 185.923C51.5386 178.633 41.3428 172.195 30.8001 173.998Z" fill="#EF3E72"/>
<path d="M35.801 174.364C25.8705 174.484 18.6999 183.831 24.511 191.884C26.7756 195.023 29.4661 198.05 32.554 200.919C41.0576 208.819 52.2534 215.22 64.9359 219.431C77.6184 223.642 91.3071 225.505 104.528 224.819C110.482 224.51 116.24 223.689 121.681 222.388C130.816 220.203 132.156 208.99 124.957 202.957C120.779 199.455 114.914 199.022 109.667 200.506C106.075 201.522 102.202 202.15 98.1689 202.359C90.7574 202.744 83.0837 201.7 75.974 199.339C68.8644 196.978 62.5882 193.39 57.8212 188.961C56.7188 187.937 55.7067 186.877 54.7891 185.787C49.8858 179.966 43.4118 174.272 35.801 174.364Z" fill="#FF6B97"/>
<circle cx="25.9489" cy="190.168" r="4.99435" fill="#FF9CB9"/>
<circle cx="35.9377" cy="200.157" r="4.99435" fill="#FF9CB9"/>
<circle cx="199.503" cy="185.174" r="4.99435" fill="#A2133D"/>
<circle cx="111.165" cy="106.201" r="100.818" fill="#053F97" stroke="#031F48" stroke-width="10"/>
<circle cx="100.24" cy="95.8999" r="78.661" fill="#145FCF"/>
<path d="M182.647 62.5002C182.647 75.085 172.445 85.2869 159.86 85.2869C147.275 85.2869 137.073 75.085 137.073 62.5002C137.073 49.9155 147.275 39.7135 159.86 39.7135C172.445 39.7135 182.647 49.9155 182.647 62.5002Z" fill="#EDF4FF"/>
<circle cx="153.617" cy="109.947" r="14.0466" fill="#EDF4FF"/>
<path d="M111.746 142.972C119.867 172.921 118.68 192.839 105.535 196.403C92.3905 199.967 43.8663 174.123 35.7458 144.173C27.6253 114.224 24.6159 81.2141 37.7605 77.6501C50.905 74.086 103.626 113.022 111.746 142.972Z" fill="#2D2D2D" fill-opacity="0.47"/>
</svg>
