<svg width="35" height="36" viewBox="0 0 35 36" fill="none" xmlns="http://www.w3.org/2000/svg">
<path d="M0.474968 22.923V29.461C0.474968 33.073 8.08597 36 17.475 36C26.864 36 34.475 33.073 34.475 29.462V22.924H0.474968V22.923Z" fill="#99AAB5"/>
<path d="M17.475 29.461C26.8638 29.461 34.475 26.5338 34.475 22.923C34.475 19.3122 26.8638 16.385 17.475 16.385C8.08613 16.385 0.474968 19.3122 0.474968 22.923C0.474968 26.5338 8.08613 29.461 17.475 29.461Z" fill="#E1E8ED"/>
<path d="M17.475 20.308C24.175 20.308 29.789 21.976 31.388 24.231C31.685 23.812 31.86 23.376 31.86 22.923C31.86 20.034 25.42 17.692 17.475 17.692C9.52997 17.692 3.08997 20.034 3.08997 22.923C3.08997 23.375 3.26497 23.812 3.56197 24.231C5.16097 21.976 10.775 20.308 17.475 20.308Z" fill="#AAB8C2"/>
<path d="M17.475 28.154C25.1589 28.154 31.388 26.3976 31.388 24.231C31.388 22.0644 25.1589 20.308 17.475 20.308C9.79103 20.308 3.56197 22.0644 3.56197 24.231C3.56197 26.3976 9.79103 28.154 17.475 28.154Z" fill="#3B88C3"/>
<path d="M17.475 22.128C12.978 22.128 7.84997 23.413 7.84997 24.231C7.84997 25.049 12.979 26.333 17.475 26.333C21.971 26.333 27.1 25.049 27.1 24.231C27.1 23.413 21.972 22.128 17.475 22.128Z" fill="#50A5E6"/>
<path d="M14.475 22.615V24C14.475 24.553 15.818 25 17.475 25C19.132 25 20.475 24.553 20.475 24V22.615H14.475Z" fill="#E1E8ED"/>
<path d="M17.475 23.615C19.1318 23.615 20.475 23.1673 20.475 22.615C20.475 22.0627 19.1318 21.615 17.475 21.615C15.8181 21.615 14.475 22.0627 14.475 22.615C14.475 23.1673 15.8181 23.615 17.475 23.615Z" fill="#AAB8C2"/>
<path d="M8.47497 15.786C7.92297 15.786 7.47497 15.338 7.47497 14.786V13.5C7.47497 10.467 9.94197 8 12.975 8C16.008 8 18.475 10.467 18.475 13.5C18.475 14.052 18.028 14.5 17.475 14.5C16.923 14.5 16.475 14.052 16.475 13.5C16.475 11.57 14.905 10 12.975 10C11.045 10 9.47497 11.57 9.47497 13.5V14.786C9.47497 15.338 9.02697 15.786 8.47497 15.786Z" fill="#1C6399"/>
<path d="M25.475 18C24.922 18 24.475 17.552 24.475 17V15.857C24.475 14.203 23.129 12.857 21.475 12.857C19.821 12.857 18.475 14.203 18.475 15.857C18.475 16.409 18.028 16.857 17.475 16.857C16.923 16.857 16.475 16.409 16.475 15.857C16.475 13.1 18.718 10.857 21.475 10.857C24.232 10.857 26.475 13.1 26.475 15.857V17C26.475 17.552 26.028 18 25.475 18Z" fill="#88C9F9"/>
<path d="M31.475 11.125C30.922 11.125 30.475 10.677 30.475 10.125C30.475 6.816 27.784 4.125 24.475 4.125C21.166 4.125 18.475 6.816 18.475 10.125C18.475 10.677 18.028 11.125 17.475 11.125C16.923 11.125 16.475 10.677 16.475 10.125C16.475 5.714 20.064 2.125 24.475 2.125C28.886 2.125 32.475 5.714 32.475 10.125C32.475 10.677 32.028 11.125 31.475 11.125Z" fill="#1C6399"/>
<path d="M16.475 22.659H18.475V8C18.475 3.589 14.886 0 10.475 0C6.06397 0 2.47497 3.589 2.47497 8C2.47497 8.552 2.92297 9 3.47497 9C4.02697 9 4.47497 8.552 4.47497 8C4.47497 4.691 7.16597 2 10.475 2C13.784 2 16.475 4.691 16.475 8V22.659Z" fill="#3B94D9"/>
<path d="M31.475 15C32.0273 15 32.475 14.5523 32.475 14C32.475 13.4477 32.0273 13 31.475 13C30.9227 13 30.475 13.4477 30.475 14C30.475 14.5523 30.9227 15 31.475 15Z" fill="#1C6399"/>
<path d="M25.475 22C26.0273 22 26.475 21.5523 26.475 21C26.475 20.4477 26.0273 20 25.475 20C24.9227 20 24.475 20.4477 24.475 21C24.475 21.5523 24.9227 22 25.475 22Z" fill="#BBDDF5"/>
<path d="M32.475 3C33.0273 3 33.475 2.55228 33.475 2C33.475 1.44772 33.0273 1 32.475 1C31.9227 1 31.475 1.44772 31.475 2C31.475 2.55228 31.9227 3 32.475 3Z" fill="#BBDDF5"/>
<path d="M13.475 21C14.0273 21 14.475 20.5523 14.475 20C14.475 19.4477 14.0273 19 13.475 19C12.9227 19 12.475 19.4477 12.475 20C12.475 20.5523 12.9227 21 13.475 21Z" fill="#F2F9FF"/>
<path d="M25.475 10C26.0273 10 26.475 9.55228 26.475 9C26.475 8.44772 26.0273 8 25.475 8C24.9227 8 24.475 8.44772 24.475 9C24.475 9.55228 24.9227 10 25.475 10Z" fill="#50A5E6"/>
<path d="M19.475 2C20.0273 2 20.475 1.55228 20.475 1C20.475 0.447715 20.0273 0 19.475 0C18.9227 0 18.475 0.447715 18.475 1C18.475 1.55228 18.9227 2 19.475 2Z" fill="#1C6399"/>
<path d="M8.47497 19C9.02725 19 9.47497 18.5523 9.47497 18C9.47497 17.4477 9.02725 17 8.47497 17C7.92268 17 7.47497 17.4477 7.47497 18C7.47497 18.5523 7.92268 19 8.47497 19Z" fill="#1C6399"/>
<path d="M3.47497 14C4.02725 14 4.47497 13.5523 4.47497 13C4.47497 12.4477 4.02725 12 3.47497 12C2.92268 12 2.47497 12.4477 2.47497 13C2.47497 13.5523 2.92268 14 3.47497 14Z" fill="#3B94D9"/>
<path d="M10.475 6C11.0273 6 11.475 5.55228 11.475 5C11.475 4.44772 11.0273 4 10.475 4C9.92268 4 9.47497 4.44772 9.47497 5C9.47497 5.55228 9.92268 6 10.475 6Z" fill="#88C9F9"/>
</svg>
