<svg width="37" height="36" viewBox="0 0 37 36" fill="none" xmlns="http://www.w3.org/2000/svg">
<path d="M36.475 18C36.475 27.941 28.416 36 18.475 36C8.53397 36 0.474968 27.941 0.474968 18C0.474968 8.059 8.53397 0 18.475 0C28.416 0 36.475 8.059 36.475 18ZM18.475 15C16.818 15 15.475 16.343 15.475 18C15.475 19.657 16.818 21 18.475 21C20.132 21 21.475 19.657 21.475 18C21.475 16.343 20.132 15 18.475 15Z" fill="#FFD983"/>
<path d="M13.763 17.476C13.885 16.372 14.361 15.375 15.106 14.63L7.16097 6.686C4.65697 9.19 2.98497 12.521 2.57697 16.233L13.763 17.476ZM23.188 18.524C23.066 19.628 22.59 20.625 21.845 21.37L29.789 29.314C32.293 26.81 33.965 23.479 34.373 19.767L23.188 18.524V18.524Z" fill="#FFAC33"/>
<path d="M19.002 22.712L20.253 33.895C23.96 33.485 27.287 31.814 29.789 29.313L21.845 21.369C21.1 22.113 20.104 22.589 19.002 22.712V22.712ZM17.979 13.285L16.8 2.089C13.051 2.479 9.68597 4.162 7.16097 6.687L15.105 14.631C15.857 13.88 16.864 13.402 17.979 13.285V13.285Z" fill="#FFE8B6"/>
</svg>
