<svg width="35" height="32" viewBox="0 0 35 32" fill="none" xmlns="http://www.w3.org/2000/svg">
<path d="M30.475 12C30.475 13.104 29.579 14 28.475 14H6.47497C5.37097 14 4.47497 13.104 4.47497 12V4C4.47497 2.896 5.37097 2 6.47497 2H28.475C29.579 2 30.475 2.896 30.475 4V12Z" fill="#FDCB58"/>
<path d="M32.475 16C32.475 17.104 31.579 18 30.475 18H4.47497C3.37097 18 2.47497 17.104 2.47497 16V8C2.47497 6.896 3.37097 6 4.47497 6H30.475C31.579 6 32.475 6.896 32.475 8V16Z" fill="#FDD888"/>
<path d="M34.475 30C34.475 31.104 33.579 32 32.475 32H2.47497C1.37097 32 0.474968 31.104 0.474968 30V12C0.474968 10.896 1.37097 10 2.47497 10H32.475C33.579 10 34.475 10.896 34.475 12V30Z" fill="#FEE7B8"/>
<path d="M22.475 0H17.475C16.371 0 15.475 0.895 15.475 2V3H17.475C18.579 3 19.475 3.896 19.475 5H22.475C23.579 5 24.475 4.104 24.475 3V2C24.475 0.895 23.579 0 22.475 0Z" fill="#78B159"/>
<path d="M16.475 4H11.475C10.371 4 9.47497 4.896 9.47497 6V7H11.475C12.579 7 13.475 7.896 13.475 9H16.475C17.579 9 18.475 8.104 18.475 7V6C18.475 4.896 17.579 4 16.475 4Z" fill="#F18F26"/>
<path d="M12.475 11C12.475 12.104 11.579 13 10.475 13H5.47497C4.37097 13 3.47497 12.104 3.47497 11V10C3.47497 8.896 4.37097 8 5.47497 8H10.475C11.579 8 12.475 8.896 12.475 10V11Z" fill="#9268CA"/>
</svg>
