<svg width="271" height="141" viewBox="0 0 271 141" fill="none" xmlns="http://www.w3.org/2000/svg">
<rect width="139" height="141" fill="#145FCF"/>
<rect x="24" width="36" height="40" fill="#FCAA3D"/>
<circle cx="23.5" cy="43.5" r="3.5" fill="white"/>
<circle cx="60.5" cy="43.5" r="3.5" fill="white"/>
<rect x="68" width="36" height="40" fill="#FCAA3D"/>
<circle cx="67.5" cy="43.5" r="3.5" fill="white"/>
<circle cx="104.5" cy="43.5" r="3.5" fill="white"/>
<rect x="20" y="94" width="36" height="40" fill="#FCAA3D"/>
<circle cx="19.5" cy="137.5" r="3.5" fill="white"/>
<circle cx="56.5" cy="137.5" r="3.5" fill="white"/>
<rect x="64" y="94" width="36" height="40" fill="#FCAA3D"/>
<circle cx="63.5" cy="137.5" r="3.5" fill="white"/>
<circle cx="100.5" cy="137.5" r="3.5" fill="white"/>
<rect x="48" y="47" width="36" height="40" fill="#FCAA3D"/>
<circle cx="47.5" cy="90.5" r="3.5" fill="white"/>
<circle cx="84.5" cy="90.5" r="3.5" fill="white"/>
<rect x="92" y="47" width="36" height="40" fill="#FCAA3D"/>
<circle cx="91.5" cy="90.5" r="3.5" fill="white"/>
<circle cx="128.5" cy="90.5" r="3.5" fill="white"/>
<rect x="4" y="47" width="36" height="40" fill="#FCAA3D"/>
<circle cx="3.5" cy="90.5" r="3.5" fill="white"/>
<circle cx="40.5" cy="90.5" r="3.5" fill="white"/>
<rect x="132" width="139" height="141" fill="#616161"/>
<rect x="156" width="36" height="40" fill="#FFDCAD"/>
<circle cx="155.5" cy="43.5" r="3.5" fill="white"/>
<circle cx="192.5" cy="43.5" r="3.5" fill="white"/>
<rect x="200" width="36" height="40" fill="#FFDCAD"/>
<circle cx="199.5" cy="43.5" r="3.5" fill="white"/>
<circle cx="236.5" cy="43.5" r="3.5" fill="white"/>
<rect x="152" y="94" width="36" height="40" fill="#FFDCAD"/>
<circle cx="151.5" cy="137.5" r="3.5" fill="white"/>
<circle cx="188.5" cy="137.5" r="3.5" fill="white"/>
<rect x="196" y="94" width="36" height="40" fill="#FFDCAD"/>
<circle cx="195.5" cy="137.5" r="3.5" fill="white"/>
<circle cx="232.5" cy="137.5" r="3.5" fill="white"/>
<rect x="180" y="47" width="36" height="40" fill="#FFDCAD"/>
<circle cx="179.5" cy="90.5" r="3.5" fill="white"/>
<circle cx="216.5" cy="90.5" r="3.5" fill="white"/>
<rect x="224" y="47" width="36" height="40" fill="#FFDCAD"/>
<circle cx="223.5" cy="90.5" r="3.5" fill="white"/>
<circle cx="260.5" cy="90.5" r="3.5" fill="white"/>
<rect x="136" y="47" width="36" height="40" fill="#FFDCAD"/>
<circle cx="135.5" cy="90.5" r="3.5" fill="white"/>
<circle cx="172.5" cy="90.5" r="3.5" fill="white"/>
</svg>
