<svg width="37" height="32" viewBox="0 0 37 32" fill="none" xmlns="http://www.w3.org/2000/svg">
<path d="M4.39741 20.923C4.18541 21.434 3.59941 21.674 3.08941 21.462C2.57941 21.249 2.33841 20.664 2.55041 20.154L7.16741 7.616C7.37941 7.106 7.96541 6.865 8.47441 7.077C8.98441 7.29 9.22541 7.875 9.01341 8.385L4.39741 20.923Z" fill="#66757F"/>
<path d="M14.3974 20.154C14.6094 20.664 14.3684 21.249 13.8584 21.462C13.3484 21.674 12.7634 21.434 12.5504 20.923L7.93541 8.385C7.72341 7.875 7.96441 7.29 8.47441 7.077C8.98441 6.865 9.56941 7.106 9.78241 7.616L14.3974 20.154ZM24.3984 20.923C24.1854 21.434 23.5994 21.674 23.0894 21.462C22.5794 21.249 22.3394 20.664 22.5514 20.154L27.1674 7.615C27.3794 7.106 27.9644 6.865 28.4744 7.077C28.9844 7.29 29.2264 7.875 29.0134 8.385L24.3984 20.923V20.923Z" fill="#66757F"/>
<path d="M34.3974 20.154C34.6094 20.664 34.3694 21.249 33.8594 21.462C33.3494 21.674 32.7634 21.434 32.5504 20.923L27.9354 8.385C27.7224 7.875 27.9644 7.29 28.4744 7.077C28.9844 6.865 29.5694 7.106 29.7814 7.616L34.3974 20.154V20.154Z" fill="#66757F"/>
<path d="M15.3314 20H1.61741C0.986411 20 0.474411 20.511 0.474411 21.143C0.474411 23.667 4.05641 25.714 8.47441 25.714C12.8924 25.714 16.4744 23.667 16.4744 21.143C16.4744 20.511 15.9624 20 15.3314 20ZM24.4744 32H12.4744C11.9224 32 11.4744 31.553 11.4744 31C11.4744 28.791 14.6084 27 18.4744 27C22.3404 27 25.4744 28.791 25.4744 31C25.4744 31.553 25.0274 32 24.4744 32ZM35.3314 20H21.6174C20.9854 20 20.4744 20.511 20.4744 21.143C20.4744 23.667 24.0554 25.714 28.4744 25.714C32.8934 25.714 36.4744 23.667 36.4744 21.143C36.4744 20.511 35.9634 20 35.3314 20Z" fill="#FFAC33"/>
<path d="M19.4744 1C19.4744 0.448 19.0274 0 18.4744 0C17.9224 0 17.4744 0.448 17.4744 1V28C17.4744 28.553 17.9224 29 18.4744 29C19.0274 29 19.4744 28.553 19.4744 28V1Z" fill="#FFAC33"/>
<path d="M18.4744 4C19.579 4 20.4744 3.10457 20.4744 2C20.4744 0.89543 19.579 0 18.4744 0C17.3698 0 16.4744 0.89543 16.4744 2C16.4744 3.10457 17.3698 4 18.4744 4Z" fill="#FFAC33"/>
<path d="M8.47441 10C9.57898 10 10.4744 9.10457 10.4744 8C10.4744 6.89543 9.57898 6 8.47441 6C7.36984 6 6.47441 6.89543 6.47441 8C6.47441 9.10457 7.36984 10 8.47441 10Z" fill="#FFAC33"/>
<path d="M28.4744 10C29.579 10 30.4744 9.10457 30.4744 8C30.4744 6.89543 29.579 6 28.4744 6C27.3698 6 26.4744 6.89543 26.4744 8C26.4744 9.10457 27.3698 10 28.4744 10Z" fill="#FFAC33"/>
<path d="M28.4744 8C28.4744 9.104 28.4744 8 18.4744 8C8.47441 8 8.47441 9.104 8.47441 8C8.47441 6.896 11.4744 4 18.4744 4C25.4744 4 28.4744 6.896 28.4744 8Z" fill="#FFAC33"/>
</svg>
