<svg width="549" height="291" viewBox="0 0 549 291" fill="none" xmlns="http://www.w3.org/2000/svg">
<mask id="mask0" mask-type="alpha" maskUnits="userSpaceOnUse" x="0" y="0" width="549" height="291">
<rect width="549" height="291" fill="#C4C4C4"/>
</mask>
<g mask="url(#mask0)">
<path d="M393.455 201.033C394.16 199.113 400.36 198.718 398.485 195.648C397.663 194.304 398.88 169.881 388.937 177.15C391.033 161.863 381.982 169.229 378.792 167.272C378.792 161.253 366.472 165.041 364 164.041C358.722 161.906 352.527 178.96 348.492 182.154C346.562 183.682 345.834 181.25 343.585 182.465C331.462 177.998 325.549 174.803 337.021 182.465C324.489 177.15 328.412 178.205 322.102 177.15C301.531 154.473 314.019 168.936 309.571 166.532C301.619 148.108 304.663 160.009 301.531 156.264C296.206 145.995 287.287 151.66 289.207 159.844C288.711 158.847 288.3 157.939 287.963 157.122C287.702 149.75 284.99 149.923 287.963 157.122C287.975 157.484 287.982 157.864 287.982 158.262C275.526 143.458 246.407 137.498 256.461 148.506C251.168 147.621 253.973 152.371 248.703 151.49C242.495 150.451 249.469 157.418 243.574 159.844C240.494 161.112 235.361 177.093 236.121 181.401C224.795 173.043 203.948 154.639 203.948 164.041C198.357 159.235 200.964 159.844 195.677 159.844C186.82 155.667 173.858 152.703 165.16 148.506C155.534 143.861 124.09 124.527 98.9223 141.942C92.6717 139.367 64.9382 153.768 77.4398 159.844C77.4398 159.844 69.0854 159.844 69.0854 176.029C66.0556 182.986 73.1895 193.807 77.4398 200.604C80.3094 205.193 94.9438 218.245 98.9223 221.905C102.669 225.351 116.424 232.989 121.002 235.582C129.466 240.376 160.416 250.411 169.337 254.275C175.4 256.901 154.528 234.475 161.142 235.582C167.297 236.612 172.582 238.318 178.388 240.585C181.319 241.728 184.102 243.226 186.926 244.601C189.74 245.971 201.26 262.755 203.948 264.31C210.969 268.372 215.709 267.526 224.882 263.152C231.011 260.229 233.786 253.18 240.332 254.275C242.197 254.587 244.404 254.648 246.179 255.287C240.332 263.152 243.453 267.397 246.179 267.854C249.234 268.365 258.607 259.591 261.585 258.436C265.497 256.918 269.796 257.389 273.848 258.067C277.102 258.612 279.945 259.539 282.708 261.365C278.54 269.644 270.186 288.143 282.708 279.192C284.508 280.982 288.186 272.007 289.207 272.628C291.535 274.043 292.553 265.241 295.089 264.31C313.991 273.224 309.818 278.428 315.538 275.611C323.547 271.666 327.363 247.739 337.021 249.355C341.579 250.117 359.216 261.687 362.772 258.067C364.172 256.642 356.513 241.525 356.888 239.288C357.26 237.063 353.675 235.833 353.643 233.569C353.609 231.154 353.088 229.449 353.516 226.892C354.198 222.818 354.961 219.173 356.717 215.394C358.288 212.012 361.197 206.72 364 204.21C365.439 202.921 369.75 200.403 371.823 200.644C376.434 201.181 381.425 199.831 386.048 200.604C387.351 200.822 391.42 200.272 393.455 201.033Z" fill="#FFE4AD"/>
<path d="M399.288 206.449C390.612 201.274 371.286 200.928 362.084 206.449C353.602 211.538 360.947 263.872 332.405 254.861C323.648 232.362 295.724 260.517 296.237 276.334C296.237 276.334 284.006 266.843 280.641 264.683C248.38 247.756 226.087 253.643 220.603 253.865C216.068 254.049 213.31 256.127 208.42 255.558C194.514 253.941 181.679 250.343 168.515 246.16C165.347 245.153 162.515 243.428 159.421 242.252C37.6922 187.098 97.2147 160.577 102.49 159.216C104.715 158.642 105.827 157.629 108.541 157.808C110.123 157.913 113.058 157.096 114.7 156.755C115.856 156.514 116.797 156.669 117.861 156.342" stroke="#E8CE99" stroke-width="15" stroke-linecap="round" stroke-linejoin="round"/>
<path d="M441.698 159.092C437.207 151.2 437.927 142.592 434.334 134.398C433.195 131.801 431.347 130.776 429.846 128.672C427.942 126.003 425.128 123.12 422.82 120.842C420.553 118.604 419.399 115.308 416.502 113.6C414.975 112.699 413.968 110.984 412.417 109.891C410.046 108.22 407.496 106.591 405.368 104.611C403.065 102.468 401.119 100.188 398.221 98.7097C395.547 97.3462 394.309 94.7385 392.142 92.8525C388.873 90.0079 385.52 87.2294 381.661 85.1831C376.252 82.3156 371.23 78.7232 366.123 75.3906C359.799 71.2637 352.591 69.0404 346.099 65.2846C340.557 62.0775 334.662 59.1194 328.817 56.4774C322.759 53.7389 316.42 52.515 310.601 49.4301C302.172 44.9609 292.411 43.3919 283.716 39.3526C271.048 33.4669 255.784 21.9673 242.409 17.8285C233.986 15.2223 228.085 19.2895 219.352 17.8285C222.174 15.2443 201.964 13.2457 200.289 15.2443C198.626 17.229 195.323 18.9927 193.19 20.712C192.178 21.527 192.079 22.9889 191.291 24.0245C190.455 25.1239 189.416 25.1869 189.164 26.6938C188.755 29.1379 184.445 39.7706 186.996 41.457C188.444 42.4139 191.084 46.6387 191.576 48.2398C192.382 50.8663 195.963 53.6386 197.975 55.3943C201.121 58.1391 204.651 60.7231 207.437 63.9351C208.81 65.5175 211.575 67.2462 212.535 69.0232C212.981 69.8476 210.143 70.3693 209.727 70.94C208.447 72.6981 210.173 77.4009 207.838 77.0103L197.505 75.2817C192.67 74.4727 182.043 68.9541 177.14 69.0232C169.425 69.132 153.313 76.533 164.748 87.6499C167.967 90.7798 189.754 108.796 184.021 112.487C181.582 114.057 164.748 113.6 177.14 116.647C175.364 118.078 173.548 120.714 171.469 121.614C169.372 122.522 177.573 126.566 177.14 128.672C176.565 131.469 168.547 131.545 171.244 131.996C177.367 133.021 183.507 133.449 189.638 132.351C191.839 131.957 193.695 132.122 195.966 132.502C198.625 132.947 201.696 130.757 204.404 130.889C207.009 131.015 209.901 131.056 212.742 131.679C216.418 132.484 217.491 137.09 219.768 139.509C220.937 140.751 220.725 142.756 222.174 144.013C223.079 144.797 224.188 145.439 224.952 146.292C227.586 149.234 231.373 143.646 232.498 141.975C235.415 137.641 240.701 131.837 246.163 131.219C253.204 130.424 260.824 130.376 267.909 131.832C270.336 132.331 272.922 135.484 274.762 137.08C276.617 138.688 277.962 140.91 279.751 142.62C283.874 146.562 288.112 148.243 293.321 143.68C296.408 140.976 306.139 140.616 309.361 143.641C313.806 147.813 307.177 153.801 312.465 156.832C313.18 158.125 314.37 159.907 315.558 160.845C318.184 162.92 319.757 166.507 322.421 168.447C328.04 172.539 334.236 172.338 340.741 173.058C341.772 173.172 343.466 171.896 343.969 171.044C344.608 169.961 345.878 169.239 346.155 169.093C346.224 169.057 346.232 169.055 346.155 169.093C346.142 169.099 346.126 169.107 346.107 169.116C343.282 170.453 339.094 168.188 336.996 166.516C339.42 166.368 338.076 160.267 340.504 160.011C342.228 159.829 344.073 159.405 345.688 158.76C352.387 156.085 359.959 155.806 366.533 152.701C369.03 151.522 374.708 151.515 377.543 151.989C380.305 152.451 382.834 153.663 385.073 155.4C390.635 159.714 396.441 164.698 400.357 170.931C403.434 175.83 400.549 182.512 405.368 186.101C407.195 187.462 415.788 188.476 417.687 189.696C418.318 190.101 420.552 191.828 420.847 192.51C421.67 194.413 424.915 197.978 426.489 199.37C428.245 200.923 425.189 200.187 424.45 199.903C422.08 198.99 420.04 197.578 417.956 196.127C416.273 194.955 414.603 194.491 412.54 194.146C409.096 193.569 414.167 203.623 414.896 205.069L414.909 205.096C416.578 208.407 419.596 213.429 419.889 217.123C419.978 218.248 422.574 226.076 419.976 225.641C417.546 225.235 414.905 219.617 412.417 219.201C409.124 218.65 406.619 222.517 403.399 221.658C401.933 221.267 401.071 220.058 399.476 219.792L395.945 219.201C393.666 218.82 391.725 220.077 389.764 219.982C388.71 219.93 386.938 220.741 386.046 221.309C384.955 222.004 383.12 221.94 381.767 222.577C378.506 224.111 372.235 227.112 371.548 231.22C371.076 234.042 368.786 240.268 369.922 242.948C371.177 245.908 372.518 248.841 373.786 251.796C375.067 254.779 377.57 258.645 380.709 259.643C386.16 261.375 384.168 267.897 383.41 272.43C382.896 275.501 382.771 277.32 380.163 279.181C376.202 282.006 375.548 279.066 373.15 275.89C371.489 273.689 367.685 273.766 365.107 273.335C362.197 272.848 361.787 270.21 359.333 268.873C357.506 267.877 353.855 268.353 351.943 268.847C349.49 269.479 346.411 268.392 343.92 267.975C339.141 267.176 335.169 269.14 332.15 273.031C331.375 274.031 330.69 275.754 329.783 276.534C329.608 276.685 329.474 276.847 329.375 276.999C329.427 276.786 329.484 276.51 329.543 276.158C329.995 273.46 330.712 271.297 332.518 269.227C333.869 267.679 332.375 267.875 331.025 268.103C328.72 268.493 328.155 271.853 327.076 273.628C325.713 275.869 326.303 279.515 326.155 281.944C325.792 287.909 334.535 297.484 339.148 300.117C342.545 302.056 345.58 304.484 348.916 306.625C356.916 311.761 361.518 320.446 363.471 329.732C364.191 333.158 363.278 332.901 360.178 331.131C356.194 328.856 352.094 326.786 348.061 324.599C343.345 322.043 339.368 318.036 335.182 314.781C331.295 311.759 327.416 307.885 324.092 304.321C321.659 301.712 318.145 299.195 315.998 296.446C314.369 294.36 312.116 292.925 310.082 291.221C308.525 289.916 310.601 276.158 304.57 286.198C302.436 285.841 299.275 283.501 297.202 285.234C295.808 286.4 293.53 287.967 291.984 288.899C288.479 291.014 281.541 291.155 277.906 288.258C275.909 286.667 274.183 284.85 272.078 283.317C270.132 281.9 264.057 274.378 261.975 273.335C257.073 270.88 253.919 275.969 248.776 277.94C245.997 279.005 245.784 281.328 242.409 280.639C238.746 279.891 239.468 271.106 236.769 269.227C235.239 268.163 229.054 272.881 227.142 272.64C224.425 272.296 221.886 275.304 219.673 276.499C217.165 277.854 209.745 270.442 204.423 274.603C200.72 271.882 193.164 270.453 189.638 271.394C185.135 272.596 186.777 274.793 182.996 272.515C174.077 267.141 161.314 263.049 152.032 259.077C145.423 256.249 139.917 261.677 132.807 260.488C127.336 259.573 122.402 258.142 117.015 257.241C114.349 256.795 111.268 256.732 108.748 255.824C104.683 254.361 110.261 262.069 110.449 262.932C110.904 265.018 112.431 267.487 113.421 268.875C114.428 270.286 102.388 269.315 100.363 268.976C93.3946 267.81 87.1033 270.205 80.4626 271.394C74.5509 272.453 65.6531 269.503 64.2662 277.794C63.7754 280.728 54.6794 285.836 54.167 288.899C53.594 292.324 61.1993 296.446 64.0166 293.752C68.3655 299.512 74.817 304.869 81.6622 306.015C73.4551 304.642 75.8737 319.047 75.8768 319.298C74.5167 318.407 73.3099 313.472 72.1641 312.358C68.7704 309.059 69.9543 316.124 69.5442 318.575C68.6297 324.042 58.5716 326.204 57.7474 331.131C56.5049 338.557 77.1972 342.075 72.0375 349.883C70.6006 352.057 66.478 351.95 64.9935 353.813C64.3424 354.63 64.0698 356.52 62.6047 356.439C61.6343 365.856 72.11 368.03 75.1488 368.856C77.3104 369.444 79.4508 371.003 81.3837 369.16C81.2606 383.156 93.3362 378.159 93.7272 379.763C100.06 389.326 105.415 384.604 110.836 387.801C111.875 388.415 113.068 388.477 114.253 388.675C117.659 389.245 120.819 390.758 124.186 391.581C136.861 394.679 151.883 404.901 164.748 407.053C185.244 410.482 204.016 406.718 224.573 410.157L245.499 413.658C236.769 418.278 245.749 419.892 248.776 419.474C251.276 419.129 262.428 425.392 261.975 414.028C262.212 419.962 269.237 418.55 274.762 419.474C281.903 419.644 284.039 418.425 291.114 419.474C295.633 420.144 300.279 419.192 304.88 419.962C313.717 421.44 320.787 423.393 329.543 423.602C332.324 423.668 336.628 416.804 339.382 416.658C340.741 423.602 348.916 419.962 347.362 415.573C360.178 423.602 361.94 419.706 363.471 419.962C371.41 421.29 369.915 414.868 377.525 412.485C369.922 419.962 387.187 414.249 389.66 412.485C390.592 411.821 388.54 407.601 389.66 407.053C392.119 405.852 395.783 405.476 397.663 403.418C398.403 402.607 400.012 401.389 401.077 401.098C402.923 400.594 403.392 398.902 404.654 397.797C414.909 397.797 409.919 384.896 417.687 387.801C405.831 379.244 417.568 383.556 420.263 379.636C422.437 376.475 424.748 373.071 427.196 370.141C428.867 368.141 431.129 366.84 432.704 364.743C434.063 362.934 440.066 363.043 441.698 361.541C443.084 360.265 435.993 357.872 435.876 356.837C435.669 355.003 436.535 352.694 436.839 350.88C437.348 347.837 437.569 344.266 439.144 341.518C440.186 339.701 440.261 345.018 440.297 345.476C440.456 347.479 440.723 349.553 441.1 351.526C442.289 357.74 446.367 354.373 447.293 349.873C448.116 345.869 452.728 345.021 455.005 341.518C456.383 339.399 455.57 331.953 457.257 330.095C459.596 327.518 460.149 323.995 461.797 321.039C466.564 312.493 465.722 301.981 469.76 293.33C471.095 290.47 471.17 286.71 471.69 283.603C472.451 279.057 470.879 275.027 471.475 270.424C471.929 266.915 474.749 261.009 475.379 257.241C475.765 254.933 473.329 253.022 472.806 250.815C472.086 247.779 473.571 245.125 472.604 241.975C471.917 239.739 473.109 236.137 472.031 234.35C470.656 232.071 473.153 233.857 472.604 231.22C472.07 228.652 467.281 220.305 467.452 217.719C467.636 214.943 467.889 212.296 468.351 209.533C468.474 208.795 473.432 212.689 475.379 214.337C477.262 214.361 477.867 203.361 479.768 202.972C480.994 202.722 482.326 203.152 482.821 201.803C483.253 200.622 483.363 198.129 485.101 198.419C485.842 198.543 490.304 199.86 490.899 199.121C492.879 196.664 493.143 193.237 494.84 190.637C495.952 188.933 497.087 193.145 498.41 189.184C499.647 185.481 500.767 190.132 502.589 190.925C502.063 191.486 498.081 200.733 499.118 200.025C501.507 198.393 503.75 196.23 506.239 194.83C509.269 193.125 512.058 194.568 514.887 192.51C517.785 190.402 520.098 184.403 522.826 182.076C528.268 177.432 530.711 170.729 532.228 163.851C533.095 159.915 534.686 153.572 531.484 150.214C529.495 148.127 527.651 145.64 524.767 145.157C522.961 144.855 520.587 143.918 519.044 145.208C516.982 146.933 515.412 149.311 514.887 151.975C513.202 160.537 508.882 166.819 503.854 173.725C502.575 175.482 504.911 164.79 505.36 162.112C502.439 168.175 499.041 180.463 491.019 182.132C486.644 183.043 475.84 181.024 474.705 175.975C473.493 170.586 477.801 149.018 476.926 143.809C475.776 146.064 470.514 151.237 469.285 153.32C467.776 155.879 465.857 162.18 462.919 162.642C461.801 162.818 461.388 164.003 460.242 163.975C458.516 163.934 456.698 168.73 455.005 168.447C452.433 168.017 443.183 171.911 441.698 159.092Z" fill="#145FCF"/>
<path d="M473.2 212.697C473.329 212.837 476.084 215.5 476.043 214.988C477.224 215.758 468.515 208.552 468.351 209.533C467.889 212.296 467.636 214.943 467.452 217.719C467.281 220.305 472.07 228.652 472.604 231.22C473.153 233.857 470.656 232.071 472.031 234.35C473.109 236.137 471.917 239.739 472.604 241.975C473.571 245.125 472.086 247.779 472.806 250.815C473.329 253.022 475.765 254.933 475.379 257.241C474.749 261.009 471.929 266.915 471.475 270.424C470.879 275.027 472.451 279.057 471.69 283.603C471.17 286.71 471.095 290.47 469.76 293.33C465.722 301.981 466.564 312.493 461.797 321.039C460.149 323.995 459.596 327.518 457.257 330.095C455.57 331.953 456.383 339.398 455.005 341.518C452.728 345.021 448.116 345.869 447.293 349.873C446.367 354.373 442.289 357.74 441.1 351.526C440.723 349.553 440.456 347.479 440.297 345.476C440.261 345.018 440.186 339.701 439.144 341.518C437.569 344.266 437.348 347.837 436.839 350.88C436.535 352.694 435.669 355.003 435.876 356.837C435.993 357.872 443.084 360.265 441.698 361.541C440.066 363.043 434.063 362.934 432.704 364.743C431.129 366.84 428.867 368.141 427.196 370.141C424.748 373.071 422.437 376.475 420.263 379.636C417.568 383.556 405.831 379.244 417.687 387.801C409.919 384.896 414.909 397.797 404.654 397.797C403.392 398.902 402.923 400.594 401.077 401.098C400.012 401.389 398.403 402.607 397.663 403.418C395.783 405.476 392.119 405.852 389.66 407.053C388.54 407.601 390.592 411.821 389.66 412.485C387.187 414.249 369.922 419.962 377.525 412.485C369.915 414.868 371.41 421.29 363.471 419.962C361.94 419.706 360.178 423.602 347.362 415.573C348.916 419.962 340.741 423.602 339.382 416.658C336.628 416.804 332.324 423.668 329.543 423.602C320.787 423.393 313.717 421.44 304.88 419.962C300.279 419.192 295.633 420.144 291.114 419.474C284.039 418.425 281.903 419.644 274.762 419.474C269.237 418.55 262.212 419.962 261.975 414.028C262.428 425.392 251.276 419.129 248.776 419.474C245.749 419.892 236.769 418.278 245.499 413.658C238.524 412.491 231.548 411.324 224.573 410.157C204.016 406.718 185.244 410.482 164.748 407.053C151.883 404.901 136.861 394.679 124.186 391.581C120.819 390.758 117.659 389.245 114.253 388.675C113.068 388.477 111.875 388.415 110.836 387.801C105.415 384.604 100.06 389.326 93.7272 379.763C93.3362 378.159 81.2606 383.156 81.3837 369.16C79.4508 371.003 77.3104 369.444 75.1488 368.856C72.11 368.03 61.6343 365.856 62.6047 356.439C64.0698 356.52 64.3424 354.63 64.9935 353.813C66.478 351.95 70.6006 352.057 72.0375 349.883C77.1972 342.075 56.5049 338.557 57.7474 331.131C58.5716 326.204 68.6297 324.042 69.5442 318.575C69.9543 316.124 68.7704 309.059 72.1641 312.358C73.3099 313.472 74.5167 318.407 75.8768 319.298C75.8737 319.047 73.4551 304.642 81.6622 306.015C74.817 304.869 68.3655 299.512 64.0166 293.752C61.1992 296.446 53.594 292.324 54.167 288.899C54.6794 285.836 63.7754 280.728 64.2662 277.794C65.6531 269.503 74.5509 272.453 80.4626 271.394C87.1033 270.205 93.3946 267.81 100.363 268.976C102.388 269.315 114.428 270.286 113.421 268.875C112.431 267.487 110.904 265.018 110.449 262.932C110.261 262.069 104.683 254.361 108.748 255.824C111.268 256.732 114.349 256.795 117.015 257.241C122.402 258.142 127.336 259.573 132.807 260.488C139.917 261.677 145.423 256.249 152.032 259.077C161.314 263.049 174.077 267.141 182.996 272.515C186.777 274.793 185.135 272.596 189.638 271.394C193.743 270.299 203.312 272.415 205.901 276.044C206.998 277.582 202.626 274.712 204.404 274.618C209.727 270.424 217.162 277.856 219.673 276.499C221.886 275.304 224.425 272.296 227.142 272.64C229.054 272.881 235.239 268.163 236.769 269.227C239.468 271.106 238.746 279.891 242.409 280.639C245.784 281.328 245.997 279.005 248.776 277.94C253.919 275.969 257.073 270.88 261.975 273.335C264.057 274.378 270.132 281.9 272.078 283.317C274.183 284.85 275.909 286.667 277.906 288.258C281.541 291.155 288.479 291.014 291.984 288.899C293.53 287.967 295.808 286.4 297.202 285.234C299.275 283.501 302.436 285.841 304.57 286.198C310.601 276.158 308.525 289.916 310.082 291.221C312.116 292.925 314.369 294.36 315.998 296.446C318.145 299.195 321.659 301.712 324.092 304.321C327.416 307.885 331.295 311.759 335.182 314.781C339.368 318.036 343.345 322.043 348.061 324.599C352.094 326.786 356.194 328.856 360.178 331.131C363.278 332.901 364.191 333.158 363.471 329.732C361.518 320.446 356.916 311.761 348.916 306.625C345.58 304.484 342.545 302.056 339.148 300.117C334.535 297.484 325.792 287.909 326.155 281.944C326.303 279.515 325.713 275.869 327.076 273.628C328.155 271.853 328.72 268.493 331.025 268.103C332.375 267.875 333.869 267.679 332.518 269.227C330.712 271.297 329.995 273.46 329.543 276.158C329.131 278.622 328.788 277.389 329.783 276.534C330.69 275.754 331.375 274.031 332.15 273.031C335.169 269.14 339.141 267.176 343.92 267.975C346.411 268.392 349.49 269.479 351.943 268.847C353.855 268.353 357.506 267.877 359.333 268.873C361.787 270.21 362.197 272.848 365.107 273.335C367.685 273.766 371.489 273.689 373.15 275.89C375.548 279.066 376.202 282.006 380.163 279.181C382.771 277.32 382.896 275.501 383.41 272.43C384.168 267.897 386.16 261.375 380.709 259.643C377.57 258.645 375.067 254.779 373.786 251.796C372.518 248.841 371.177 245.908 369.922 242.948C368.786 240.268 371.076 234.042 371.548 231.22C372.235 227.112 378.506 224.111 381.767 222.577C383.12 221.94 384.955 222.004 386.046 221.309C386.938 220.741 388.71 219.93 389.764 219.982C391.725 220.077 393.666 218.82 395.945 219.201C397.122 219.398 398.299 219.595 399.476 219.792C401.071 220.058 401.933 221.267 403.399 221.658C406.619 222.517 409.124 218.65 412.417 219.201C414.905 219.617 417.546 225.235 419.976 225.641C422.574 226.076 419.978 218.248 419.889 217.123C419.596 213.429 416.578 208.407 414.909 205.096C414.233 203.755 409.074 193.566 412.54 194.146C414.603 194.491 416.273 194.955 417.956 196.127C420.04 197.578 422.08 198.99 424.45 199.903C425.189 200.187 428.245 200.923 426.489 199.37C424.915 197.978 421.67 194.413 420.847 192.51C420.552 191.828 418.318 190.101 417.687 189.696C415.788 188.476 407.195 187.462 405.368 186.101C400.549 182.512 403.434 175.83 400.357 170.931C396.441 164.698 390.635 159.714 385.073 155.4C382.834 153.663 380.305 152.451 377.543 151.989C374.708 151.515 369.03 151.522 366.533 152.701C359.959 155.806 352.387 156.085 345.688 158.76C344.073 159.405 342.228 159.829 340.504 160.011C338.075 160.267 339.42 166.368 336.996 166.516C339.094 168.188 343.282 170.453 346.107 169.116C346.667 168.851 344.793 169.647 343.969 171.044C343.466 171.896 341.772 173.172 340.741 173.058C334.236 172.338 328.04 172.539 322.421 168.447C319.757 166.507 318.184 162.92 315.558 160.845C314.37 159.907 313.18 158.125 312.465 156.832C307.177 153.801 313.806 147.813 309.361 143.641C306.139 140.616 296.408 140.976 293.321 143.68C288.112 148.243 283.874 146.562 279.751 142.62C277.962 140.91 276.617 138.688 274.762 137.08C272.922 135.484 270.336 132.331 267.909 131.832C260.824 130.376 253.204 130.424 246.163 131.219C240.701 131.837 235.415 137.641 232.498 141.975C231.373 143.646 227.586 149.234 224.952 146.292C224.188 145.439 223.079 144.797 222.174 144.013C220.725 142.756 220.937 140.751 219.768 139.509C217.491 137.09 216.418 132.484 212.742 131.679C209.901 131.056 207.009 131.015 204.404 130.889C201.696 130.757 198.625 132.947 195.966 132.502C193.695 132.122 191.839 131.957 189.638 132.351C183.507 133.449 177.367 133.021 171.244 131.996C168.547 131.545 176.565 131.469 177.14 128.672C177.573 126.566 169.372 122.522 171.469 121.614C173.548 120.714 175.364 118.078 177.14 116.647C164.748 113.6 181.582 114.057 184.021 112.487C189.754 108.796 167.967 90.7798 164.748 87.6499C153.313 76.533 169.425 69.132 177.14 69.0232C182.043 68.9541 192.67 74.4727 197.505 75.2817C200.949 75.8579 204.394 76.4341 207.838 77.0103C210.173 77.4009 208.447 72.6981 209.727 70.94C210.143 70.3693 212.981 69.8476 212.535 69.0232C211.575 67.2462 208.81 65.5175 207.437 63.9351C204.651 60.7231 201.121 58.1391 197.975 55.3943C195.963 53.6386 192.382 50.8663 191.576 48.2398C191.084 46.6387 188.444 42.4139 186.996 41.457C184.445 39.7706 188.755 29.1379 189.164 26.6938C189.416 25.1869 190.455 25.1239 191.291 24.0245C192.079 22.9889 192.178 21.527 193.19 20.712C195.323 18.9927 198.626 17.229 200.289 15.2443C201.964 13.2457 222.174 15.2443 219.352 17.8285C228.085 19.2895 233.986 15.2223 242.409 17.8285C255.784 21.9673 271.048 33.4669 283.716 39.3526C292.411 43.3919 302.172 44.9609 310.601 49.4301C316.42 52.515 322.759 53.7389 328.817 56.4774C334.662 59.1194 340.557 62.0775 346.099 65.2846C352.591 69.0404 359.799 71.2637 366.123 75.3906C371.23 78.7232 376.252 82.3156 381.661 85.1831C385.52 87.2294 388.873 90.0079 392.142 92.8525C394.309 94.7385 395.547 97.3462 398.221 98.7097C401.119 100.188 403.065 102.468 405.368 104.611C407.496 106.591 410.046 108.22 412.417 109.891C413.968 110.984 414.975 112.699 416.502 113.6C419.399 115.308 420.553 118.604 422.82 120.842C425.128 123.12 427.942 126.003 429.846 128.672C431.347 130.776 433.195 131.801 434.334 134.398C437.927 142.592 437.207 151.2 441.698 159.092C443.183 171.911 452.433 168.017 455.005 168.447C456.698 168.73 458.516 163.934 460.242 163.975C461.388 164.003 461.801 162.818 462.919 162.642C465.857 162.18 467.776 155.879 469.285 153.32C470.514 151.237 475.776 146.064 476.926 143.809C477.801 149.018 473.493 170.586 474.705 175.975C475.84 181.024 486.644 183.043 491.019 182.132C499.041 180.463 502.439 168.175 505.36 162.112C504.911 164.79 502.575 175.482 503.854 173.725C508.882 166.819 513.202 160.537 514.887 151.975C515.412 149.311 516.982 146.933 519.044 145.208C520.587 143.918 522.961 144.855 524.767 145.157C527.651 145.64 529.495 148.127 531.484 150.214C534.686 153.572 533.095 159.915 532.228 163.851C530.711 170.729 528.268 177.432 522.826 182.076C520.098 184.403 517.785 190.402 514.887 192.51C512.058 194.568 509.269 193.125 506.239 194.83C503.75 196.23 501.507 198.393 499.118 200.025C498.081 200.733 502.063 191.486 502.589 190.925C500.767 190.132 499.647 185.481 498.41 189.184C497.087 193.145 495.952 188.933 494.84 190.637C493.143 193.237 492.879 196.664 490.899 199.121C490.304 199.86 485.842 198.543 485.101 198.419C483.363 198.129 483.253 200.622 482.821 201.803C482.326 203.152 480.994 202.722 479.768 202.972C477.867 203.361 477.262 214.361 475.379 214.337" stroke="#145FCF" stroke-width="15" stroke-linecap="round" stroke-linejoin="round"/>
<path d="M288.685 148.417C286.458 145.392 275.557 149.103 278.043 137.158C270.231 141.636 273.448 132.154 270.231 131.616C262.041 130.246 255.312 130.088 247.323 132.926C241.343 135.05 237.308 140.834 230.673 141.636C226.126 142.186 219.992 140.447 218.746 135.574C217.843 132.043 211.526 137.772 207.856 137.158C204.181 136.543 206.659 127.955 203.184 129.138C199.117 130.523 194.263 130.106 190.037 130.771C183.824 131.748 166.218 129.321 160.983 125.905C155.707 122.462 170.517 123.689 172.767 120.285C173.59 119.039 174.902 118.531 176.093 117.682C177.41 116.743 177.726 114.887 178.602 113.53C179.9 111.524 181.615 103.6 179.613 101.666C176.928 99.073 173.485 97.0267 170.564 94.6733C166.089 91.0683 161.866 86.9847 160.983 82.406C160.046 77.5467 163.841 68.9739 168.17 69.3946C171.978 69.7648 181.032 69.951 184.853 69.3946C188.881 68.8079 193.38 74.8777 197.451 74.8021C202.479 74.7088 209.89 72.4895 213.75 69.3946C217.081 66.7244 221.414 63.1169 218.746 58.3987C216.717 54.8123 211.948 48.8491 207.856 47.9718C204.524 47.2576 201.248 48.4036 200.168 44.4493C198.819 39.5109 190.037 34.5292 201.083 27.7288C202.616 23.9406 207.513 23.7134 210.355 24.1888C214.681 24.9124 219.182 24.8114 223.604 25.1616C230.316 25.6931 236.996 25.0156 243.709 26.1386C251.557 27.4515 259.404 28.7643 267.252 30.0772C278.001 31.8755 287.801 34.3521 298.018 38.0478C304.305 40.3218 309.71 44.4911 316.228 46.1362C323.748 48.0341 330.877 52.2457 338.034 55.2295C342.721 57.1834 347.492 58.497 351.503 61.718C357.238 66.3234 364.299 68.4759 370.321 72.5972C375.266 75.9815 380.432 79.2918 385.554 82.406C389.534 84.8258 394.089 87.1567 397.725 90.0219C410.516 100.101 420.771 114.03 431.788 125.905C434.349 128.666 428.971 134.574 431.788 137.158C433.483 138.712 430.865 146.297 431.788 148.417C434.015 153.531 427.406 148.602 436.079 145.752C436.523 151.341 449.207 170.107 451.455 175.11C452.595 177.647 454.693 173.693 455.822 172.11C457.303 170.033 458.85 167.755 459.99 165.48C461.644 162.177 464.079 159.313 466.476 156.447C468.372 154.181 470.983 151.222 471.92 148.417C471.997 148.186 476.878 145.506 477.112 145.752C477.739 146.41 473.109 153.575 473.17 154.609C473.465 159.657 475.141 163.973 475.21 168.933C475.252 171.917 476.782 175.045 477.112 178.058C477.334 180.084 477.824 180.261 479.716 180.578C484.798 181.428 488.148 180.613 492.678 177.637C498.928 173.532 510.512 151.151 515.579 145.752C517.062 144.173 540.242 148.417 523.071 160.696C537.258 154.609 525.384 170.176 524.993 172.513C524.139 177.615 517.03 187.965 511.267 190.091C503.893 192.811 495.996 195.223 488.224 197.429C484.435 198.505 480.099 199.898 476.847 202.148C473.595 204.397 478.216 212.209 475.21 214.744C471.468 217.9 464.571 221.276 463.834 225.684C463.414 228.196 462.485 231.106 462.635 233.652C462.821 236.798 462.481 239.653 462.782 242.819C463.057 245.708 463.651 248.477 463.169 251.354C462.009 258.292 462.023 265.438 460.851 272.445C460.426 274.985 460.001 277.524 459.577 280.064C459.432 280.926 458.551 283.389 459.04 284.075C459.276 284.406 460.123 280.28 460.242 279.704C460.89 276.553 462.786 273.837 463.599 270.686C464.633 266.681 466.6 263.399 467.29 259.271C468.054 254.705 468.235 249.332 465.386 245.339" stroke="#0F54BA" stroke-width="15" stroke-linecap="round" stroke-linejoin="round"/>
<path d="M419.187 232.165C414.327 230.343 409.779 228.162 405.086 226.041C401.162 224.267 397.351 223.671 392.934 222.932C386.624 221.877 377.311 218.658 373.377 225.711C369.733 232.245 367.913 238.828 370.225 246.36C371.494 250.491 371.494 255.228 373.242 259.267C374.365 261.861 375.716 264.514 377.058 266.998C378.464 269.6 381.073 273.498 381.532 276.419C381.59 276.788 381.031 275.853 380.721 275.644C379.662 274.931 378.25 274.973 377.092 274.432C375.857 273.856 374.447 272.548 373.153 272.261C368.889 271.315 365.216 269.118 360.761 268.372C357.183 267.774 350.795 265.343 347.322 266.729C340.851 269.313 327.002 269.103 324.489 276.419C323.635 278.904 324.489 287.451 329.738 287.451C330.39 292.805 332.977 295.17 336.271 299.031C339.362 302.654 345.002 304.965 348.965 307.541C354.346 311.038 360.589 313.578 366.64 315.607C371.637 317.283 376.434 320.002 381.69 320.881C384.38 321.331 385.522 318.28 386.353 315.914C387.604 312.354 384.757 308.689 381.077 308.073" stroke="#0F54BA" stroke-width="15" stroke-linecap="round" stroke-linejoin="round"/>
<path d="M406.781 147.2C406.555 143.605 405.194 141.479 403.396 138.499C402.316 136.709 401.047 134.204 399.661 132.698C393.128 125.601 386.103 117.405 377.447 112.982C364.444 106.337 353.382 96.3765 339.669 91.0654C334.462 89.0489 323.106 84.4436 318.904 90.2133C316.19 93.9408 314.348 100.26 315.87 104.731C316.326 106.069 316.603 107.231 316.909 108.568C317.323 110.377 312.078 105.011 311.821 104.826C305.556 100.325 298.526 97.9488 290.75 97.5702C285.214 97.3006 282.65 104.393 281.919 108.765" stroke="#0F54BA" stroke-width="15" stroke-linecap="round" stroke-linejoin="round"/>
<path d="M263.958 281.219C261.245 280.13 258.927 278.768 255.91 278.696C252.528 278.615 249.934 281.44 247.574 283.318C243.649 286.442 240.702 283.126 239.139 279.487C237.536 275.753 237.536 274.984 233.387 274.29C230.586 273.821 228.32 275.847 225.505 275.996C222.116 276.176 219.213 279.258 216.036 280.16C213.301 280.936 210.6 283.705 207.809 283.926C204.396 284.197 201.112 283.411 197.738 282.846C193.139 282.077 185.623 282.347 181.836 279.446C179.761 277.857 176.986 277.059 175.135 275.3C173.606 273.847 171.583 272.149 169.611 271.351C166.274 270.001 162.878 268.066 159.324 267.344C152.521 265.964 146.105 263.67 139.477 262.209C137.456 261.763 133.423 259.71 131.609 258.607C128.539 256.74 123.328 255.907 119.926 255.308C118.618 255.077 102.426 252.519 102.438 252.752C102.563 255.108 107.887 258.285 109.633 259.972C112.055 262.312 119.054 269.106 116.411 273.106C114.769 275.591 105.486 269.77 103.322 268.563C100.362 266.912 95.0311 266.685 91.8073 266.671C87.7208 266.653 84.388 266.591 80.5302 267.776C77.0198 268.853 74.8862 271.689 72.4273 274.218C70.1173 276.594 67.8434 278.11 67.2505 281.654C66.487 286.218 64.4503 292.118 66.571 296.566C69.7058 303.139 74.3937 307.533 79.369 312.69C80.6546 314.022 89.9049 323.43 86.7788 325.66C85.8204 326.344 83.1506 325.389 82.0483 325.205C77.2636 324.404 72.4788 323.604 67.694 322.803C66.4493 322.595 57.2765 320.044 56.4512 321.292C55.5293 322.687 57.213 325.015 57.669 326.269C58.6715 329.027 60.7839 331.009 61.6702 333.896C62.6094 336.955 63.6043 340.974 65.3595 343.589C66.9993 346.032 67.5919 347.393 64.5937 348.167C62.2866 348.762 60.6509 350.035 60.2309 352.546C59.94 354.284 58.6977 357.735 59.7035 359.315C61.4633 362.078 64.3918 364.097 66.9045 366.099C69.2195 367.944 72.2754 368.804 74.7609 370.573C78.7544 373.415 83.024 376.109 87.1823 378.701C90.4613 380.746 93.8775 383.172 97.6378 384.114C100.431 384.815 102.393 387.099 105.233 387.738C109.247 388.641 112.465 390.959 116.42 391.996C130.398 395.661 144.208 400.386 158.822 401.543C162.015 401.796 164.78 401.687 167.015 398.981C168.196 397.552 168.406 394.653 170.163 393.626C170.643 393.345 172.009 396.456 172.335 396.914C175.308 401.08 181.378 405.956 186.38 406.793C188.9 407.214 191.319 407.48 193.638 408.612C199.048 411.251 206.525 411.373 212.374 412.351C216.143 412.982 219.908 413.672 223.687 414.244C226.674 414.696 229.431 413.993 232.397 414.02C241.751 414.106 250.782 412.983 260.139 412.141C268.151 411.42 275.951 411.13 283.904 409.528C292.09 407.88 300.059 405.084 308.172 403.101C322.091 399.698 337.06 399.052 350.492 394.047C351.124 393.812 355.363 391.483 355.421 391.914C355.768 394.513 353.744 397.268 352.495 399.357C351.442 401.118 349.983 405.442 351.302 407.292C354.042 411.133 363.612 411.389 367.389 409.983C370.334 408.887 371.893 407.584 373.9 405.223C378.369 399.965 382.504 394.45 386.761 389.022C388.094 387.323 389.904 385.527 390.71 383.498C391.257 382.121 392.963 378.07 392.718 379.532C392.259 382.278 390.881 390.19 395.688 389.508C406.758 387.937 412.482 371.453 415.053 362.563C415.587 360.715 416.629 358.897 417.051 357.049C417.103 356.82 417.295 358.887 417.943 359.752C423.357 366.988 428.424 360.936 432.737 355.707C437.041 350.488 437.959 344.183 439.038 337.736" stroke="#0F54BA" stroke-width="15" stroke-linecap="round" stroke-linejoin="round"/>
<path d="M485.724 209.414C526.239 213.167 553.637 168.743 534.405 139.039C530.393 132.842 518.487 132.871 513.249 136.105C505.252 141.042 493.858 162.499 488.103 169.88C482.873 176.589 485.058 158.5 484.581 154.77C484.208 151.856 484.787 133.052 481.771 132.183C470.771 129.012 464.699 154.267 450.046 158.673" stroke="#031F48" stroke-width="5" stroke-linecap="round" stroke-linejoin="round"/>
<path d="M447.204 153.962C438.392 90.9095 366.552 59.4648 309.649 34.6829C275.437 19.7829 253.342 10.8093 227.445 6.47689C211.561 4.16563 189.338 5.2833 179.17 20.1817C175.676 25.3024 177.065 40.9052 179.099 47.5306C180.734 52.8545 187.781 62.4304 193.575 64.2715C197.348 65.4702 189.784 63.7045 188.594 63.5055C182.072 62.4142 140.695 51.2568 158.828 94.7603C160.715 98.5176 164.089 103.872 168.36 104.893C176.574 106.856 124.656 129.043 172.327 140.648C175.543 141.186 194.196 144.165 196.46 141.055" stroke="#031F48" stroke-width="5" stroke-linecap="round" stroke-linejoin="round"/>
<path d="M404.989 203.773C396.463 194.038 395.464 177.299 385.117 169.054C379.877 164.878 367.273 159.31 360.867 164.526C353.635 170.415 350.427 182.12 339.448 181.649C322.692 180.929 314.64 173.503 307.371 159.61C305.501 156.036 300.216 150.402 295.526 154.066C293.872 155.357 293.101 157.941 291.195 159.055C289.194 160.225 282.182 157.879 280.252 157.359C273.214 155.464 267.616 145.081 261.206 144.627C243.536 145.368 240.243 165.052 239.215 171.199" stroke="#031F48" stroke-width="5" stroke-linecap="round" stroke-linejoin="round"/>
<path d="M305.052 273.129C298.591 273.261 293.025 275.447 287.649 278.943C283.754 281.476 276.013 279.53 275.444 275.238C274.983 271.757 271.025 260.322 243.627 268.306C239.578 267.629 241.198 263.717 238.394 261.432C234.3 258.098 230.119 261.788 226.332 263.232C221.452 265.092 214.921 263.504 209.995 262.68" stroke="#031F48" stroke-width="5" stroke-linecap="round" stroke-linejoin="round"/>
<path d="M413.22 219.671C388.803 202.88 341.666 208.977 366.988 260.944C322.123 242.615 283.881 283.947 354.254 318.174" stroke="#031F48" stroke-width="5" stroke-linecap="round" stroke-linejoin="round"/>
<path d="M329.063 194.701C323.549 227.66 307.874 221.967 306.496 217.48C304.48 210.913 306.725 198.029 307.875 191.156" stroke="#031F48" stroke-width="5" stroke-linecap="round" stroke-linejoin="round"/>
<path d="M284.529 186.04C283.314 193.306 277.948 214.375 267.651 210.981C257.111 207.507 262.574 190.7 263.93 182.594" stroke="#031F48" stroke-width="5" stroke-linecap="round" stroke-linejoin="round"/>
<path d="M244.306 187.782C213.772 165.863 177.467 145.493 139.954 138.862C124.756 136.176 109.267 136.313 94.4765 141.472C81.1756 146.112 72.7169 155.06 70.2831 168.349C67.7937 181.941 60.0428 229.559 198.739 264.863" stroke="#031F48" stroke-width="5" stroke-linecap="round" stroke-linejoin="round"/>
<path d="M481.694 222.656C486.34 235.651 489.673 330.476 438.043 375.081C426.896 384.712 423.381 411.686 371.301 426.839C290.478 441.007 190.147 419.972 109.949 400.997C80.3607 393.997 31.8379 353.133 55.261 348.555C65.2687 346.599 44.4812 329.811 53.2298 318.905C55.4808 314.659 60.5943 311.935 65.4856 312.754C35.3819 290.171 47.0768 256.431 96.3209 262.249C99.3727 262.76 102.424 263.27 105.476 263.781C107.181 264.066 103.8 262.871 103.08 261.229C93.875 251.555 94.5709 236.545 139.689 252.564" stroke="#031F48" stroke-width="5" stroke-linecap="round" stroke-linejoin="round"/>
</g>
</svg>
