<svg width="37" height="36" viewBox="0 0 37 36" fill="none" xmlns="http://www.w3.org/2000/svg">
<path d="M18.3914 0C10.1074 0 3.39142 6.716 3.39142 15V24H6.39142V15C6.39142 8 11.6604 2.812 18.3914 2.812C25.1214 2.812 30.3914 8 30.3914 15V25L33.3914 24V15C33.3914 6.716 26.6754 0 18.3914 0Z" fill="#66757F"/>
<path d="M6.39142 27C6.39142 28.104 5.49542 29 4.39142 29H2.39142C1.28742 29 0.391418 28.104 0.391418 27V18C0.391418 16.896 1.28742 16 2.39142 16H4.39142C5.49542 16 6.39142 16.896 6.39142 18V27ZM36.3914 27C36.3914 28.104 35.4954 29 34.3914 29H32.3914C31.2874 29 30.3914 28.104 30.3914 27V18C30.3914 16.896 31.2874 16 32.3914 16H34.3914C35.4954 16 36.3914 16.896 36.3914 18V27Z" fill="#31373D"/>
<path d="M19.5734 10.016L13.2094 11.329C12.7594 11.422 12.3914 11.873 12.3914 12.333V28.518C11.7534 28.291 11.0504 28.158 10.3044 28.158C7.51942 28.158 5.26242 29.913 5.26242 32.08C5.26242 34.245 7.52042 35.907 10.3044 35.907C13.0404 35.905 15.3134 34 15.3914 32V16.39L19.5954 15.518C20.0444 15.425 20.3914 14.973 20.3914 14.514V10.682C20.3914 10.224 20.0234 9.923 19.5734 10.016V10.016ZM27.5734 13.167L23.2764 14.032C22.8264 14.125 22.3914 14.576 22.3914 15.035V26.44C22.3914 26.288 21.5134 26.2 20.9914 26.2C18.9674 26.2 17.3584 27.476 17.3584 29.052C17.3584 30.626 19.0164 31.903 21.0414 31.903C23.0664 31.903 24.7184 30.626 24.7184 29.052L24.7044 17.766L27.5734 17.168C28.0234 17.075 28.3914 16.624 28.3914 16.165V13.835C28.3914 13.376 28.0234 13.075 27.5734 13.167V13.167Z" fill="#55ACEE"/>
</svg>
