<svg width="37" height="28" viewBox="0 0 37 28" fill="none" xmlns="http://www.w3.org/2000/svg">
<path d="M4.47441 1C4.47441 1 4.47441 0 5.47441 0H11.4744C11.4744 0 12.4744 0 12.4744 1V3H4.47441V1Z" fill="#66757F"/>
<path d="M0.474411 6C0.474411 6 0.474411 2 4.47441 2H32.4744C32.4744 2 36.4744 2 36.4744 6V24C36.4744 24 36.4744 28 32.4744 28H4.47441C4.47441 28 0.474411 28 0.474411 24V6Z" fill="#31373D"/>
<path d="M21.4744 25C26.9973 25 31.4744 20.5228 31.4744 15C31.4744 9.47715 26.9973 5 21.4744 5C15.9516 5 11.4744 9.47715 11.4744 15C11.4744 20.5228 15.9516 25 21.4744 25Z" fill="#CCD6DD"/>
<path d="M21.4744 23C25.8927 23 29.4744 19.4183 29.4744 15C29.4744 10.5817 25.8927 7 21.4744 7C17.0561 7 13.4744 10.5817 13.4744 15C13.4744 19.4183 17.0561 23 21.4744 23Z" fill="#31373D"/>
<path d="M21.4744 20C24.2358 20 26.4744 17.7614 26.4744 15C26.4744 12.2386 24.2358 10 21.4744 10C18.713 10 16.4744 12.2386 16.4744 15C16.4744 17.7614 18.713 20 21.4744 20Z" fill="#3B88C3"/>
<path d="M32.9744 7C33.8028 7 34.4744 6.32843 34.4744 5.5C34.4744 4.67157 33.8028 4 32.9744 4C32.146 4 31.4744 4.67157 31.4744 5.5C31.4744 6.32843 32.146 7 32.9744 7Z" fill="white"/>
<path d="M12.4744 5.5C12.4744 6.329 11.8034 7 10.9744 7H5.97441C5.14541 7 4.47441 6.329 4.47441 5.5C4.47441 4.671 5.14541 4 5.97441 4H10.9744C11.8034 4 12.4744 4.671 12.4744 5.5Z" fill="#F5F8FA"/>
</svg>
