<svg width="37" height="35" viewBox="0 0 37 35" fill="none" xmlns="http://www.w3.org/2000/svg">
<path d="M34.7224 6.324L31.9804 9.067C31.9804 9.067 30.1514 9.981 28.3234 8.152C26.4944 6.324 27.4084 4.495 27.4084 4.495L30.1514 1.752C31.0664 0.838 29.9674 0 29.1424 0C25.0914 0 21.8084 3.283 21.8084 7.333C21.8084 7.902 21.8804 8.454 22.0024 8.986L15.8034 15.185L21.2884 20.67L27.4874 14.472C28.0204 14.594 28.5714 14.666 29.1414 14.666C33.1914 14.666 36.4744 11.383 36.4744 7.333C36.4754 6.503 35.6364 5.41 34.7224 6.324V6.324ZM15.6954 15.364L3.50641 27.552C2.01141 29.048 2.01141 31.473 3.50641 32.969C5.00341 34.464 7.42741 34.464 8.92341 32.969L21.1104 20.781L15.6954 15.364ZM6.23841 31.838C5.41941 31.838 4.75641 31.174 4.75641 30.356C4.75641 29.538 5.42041 28.873 6.23841 28.873C7.05741 28.873 7.72041 29.537 7.72041 30.356C7.72041 31.174 7.05741 31.838 6.23841 31.838Z" fill="#8899A6"/>
<path d="M31.3054 33.279C32.4714 34.445 34.3274 34.5 35.4264 33.4C36.5264 32.3 36.4714 30.445 35.3054 29.279L12.0404 6.014C10.8734 4.847 9.01941 4.793 7.91941 5.893C6.81941 6.993 6.87441 8.848 8.04041 10.014L31.3054 33.279Z" fill="#F4900C"/>
<path d="M21.9194 0.893001C21.9194 0.893001 15.9194 -2.107 10.9194 2.893L3.91941 9.893C3.91941 9.893 2.91941 8.893 1.91941 9.893L0.919412 10.893C0.919412 10.893 -0.0805876 11.893 0.919412 12.893L4.91941 16.893C4.91941 16.893 5.91941 17.893 6.91941 16.893L7.91941 15.893C7.91941 15.893 8.91941 14.893 7.91941 13.893L7.84141 13.815C8.61141 13.072 9.76441 12.315 10.9194 12.893L14.9194 8.893C14.9194 8.893 13.9194 5.893 15.9194 3.893C17.9194 1.893 18.9194 1.893 20.9194 1.893C22.9194 1.893 21.9194 0.893001 21.9194 0.893001V0.893001Z" fill="#66757F"/>
</svg>
