<svg width="790" height="641" viewBox="0 0 790 641" fill="none" xmlns="http://www.w3.org/2000/svg">
<path d="M104.798 424.446C107.847 423.532 111.198 422.54 114.294 422.024C116.52 421.653 118.541 420.515 120.78 420.383C121.817 420.322 122.972 419.978 124.031 419.827C126.007 419.544 127.985 418.981 129.99 418.758C133.674 418.349 137.183 416.522 140.855 415.989C146.488 415.171 151.647 412.889 157.198 411.655C160.507 410.92 164.058 410.969 167.401 410.361C170.177 409.856 172.931 409.102 175.708 409.007C180.601 408.838 185.306 407.844 189.854 406.298C192.08 405.541 194.578 404.862 196.881 404.402C199.157 403.946 201.062 402.999 203.397 402.776C204.688 402.654 206.144 401.715 207.461 401.422C208.525 401.185 209.469 400.979 210.545 400.865C211.398 400.775 212.116 400.375 213.089 400.339C214.36 400.291 215.632 399.816 216.941 399.797C218.228 399.778 219.607 399.681 220.884 399.511C221.996 399.363 222.883 398.615 223.984 398.457C224.62 398.367 225.332 398.322 225.94 398.111C226.732 397.837 227.935 397.795 228.589 397.359" stroke="#E8CE99" stroke-width="10" stroke-linecap="round" stroke-linejoin="round"/>
<path d="M227.131 375C228.495 376.785 230.36 378.96 230.923 381.215C231.079 381.838 231.281 382.697 231.525 383.277C231.74 383.786 232.466 384.309 232.534 384.782C232.702 385.964 233.086 386.937 233.361 388.107C233.731 389.677 234.626 393.172 233.843 394.503C233.213 395.573 230.472 395.316 229.419 395.316C228.656 395.316 227.894 395.316 227.131 395.316C226.184 395.316 225.508 395.857 224.573 395.857C222.434 395.857 220.247 396.569 218.132 396.881C215.71 397.238 213.082 396.941 210.638 396.941C208.981 396.941 207.849 397.784 206.274 398.009C204.416 398.275 202.717 398.23 200.916 398.897C199.626 399.375 198.261 399.631 196.883 399.921C193.954 400.537 190.837 401.03 187.884 401.335C186.036 401.526 184.282 402.049 182.467 402.328C181.382 402.495 180.325 402.281 179.246 402.569C178.014 402.898 176.908 402.766 175.665 403.292C174.303 403.868 172.897 404.063 171.481 404.405C170.624 404.612 169.824 405.054 168.983 405.278C167.924 405.56 167.177 405.263 166.184 405.759C164.695 406.504 162.934 407.144 161.308 407.505C160.347 407.719 159.317 407.677 158.389 407.987C157.902 408.149 156.466 408.589 157.666 408.589C160.195 408.589 162.723 408.589 165.251 408.589C168.751 408.589 172.063 407.884 175.454 407.174C176.096 407.04 180.296 405.588 178.614 405.609C175.831 405.644 172.905 406.378 170.157 406.828C167.655 407.237 165.295 407.338 162.783 407.535C160.659 407.702 158.421 408.337 156.312 408.709C155.089 408.925 153.996 409.423 152.971 410.094C151.06 411.343 150.081 412.923 147.674 412.923C144.499 412.923 141.324 412.923 138.148 412.923C137.474 412.923 137.225 413.111 136.598 413.344C135.628 413.705 134.437 413.49 133.468 413.856C129.748 415.261 126.278 416.173 122.182 416.173C117.887 416.173 113.834 416.817 109.827 418.22C107.733 418.953 105.424 418.688 103.401 419.424C102.389 419.792 101.349 419.654 100.316 419.98C98.5362 420.543 96.9053 420.658 95.079 420.793C93.6001 420.903 92.2012 421.594 90.73 421.801C89.2371 422.012 87.7672 422.22 86.2906 422.524C82.3585 423.333 78.5138 424.566 74.5677 425.443C72.6862 425.861 71.2843 426.236 69.6919 427.279C68.598 427.996 66.7753 429.446 65.4031 429.446C64.6155 429.446 63.828 429.446 63.0404 429.446C62.1009 429.446 61.5256 430.062 60.6778 430.394C59.1875 430.977 57.4976 431.427 56.118 432.215C54.0744 433.383 51.8874 434.391 49.4665 434.578C48.2423 434.672 45.8669 435.136 44.982 435.947C43.9624 436.882 42.2798 437.144 41.3101 438.114C41.0136 438.411 43.7904 438.656 44.2898 438.656C47.5039 438.656 50.5823 438.937 53.7704 438.671C54.7829 438.587 55.7664 438.337 56.6297 437.843C57.6686 437.25 58.8263 436.386 60.0006 436.218C62.2082 435.903 55.5307 437.287 53.7704 438.656C51.8807 440.126 49.7747 441.335 47.9316 442.93C47.0325 443.708 45.8869 445.208 45.3131 446.24C45.0405 446.731 44.5865 447.252 44.1694 447.61C43.6916 448.019 43.6394 448.898 43.0708 449.34C42.2989 449.941 41.7629 450.702 41.0393 451.387C39.9313 452.437 38.7672 453.25 37.6533 454.246C35.6787 456.013 33.8085 457.802 32.4314 460.055C32.1351 460.54 31.7022 460.881 31.4382 461.409C30.5478 463.19 33.206 460.44 33.4547 460.175C35.5795 457.912 38.0178 455.795 40.016 453.434C41.8238 451.297 43.9947 448.754 44.5005 445.909C44.6076 445.307 45.3722 441.76 44.681 441.365C42.0186 439.843 37.6514 440.552 34.5382 440.552C33.2379 440.552 31.9165 441.538 30.7309 442.057C28.8054 442.899 27.459 444.233 25.3284 444.555C23.4196 444.843 21.0322 444.059 19.2337 444.751C18.4966 445.034 17.8179 445.434 17.0818 445.699C16.7887 445.804 14.4668 446.797 15.2759 446.782C17.9254 446.732 20.7811 445.925 23.3721 445.443C25.8672 444.979 28.4111 444.83 30.8965 444.344C35.3868 443.467 39.2739 441.849 42.6645 438.776C44.6193 437.005 45.1954 435.11 45.8849 432.697C46.2264 431.502 45.8963 430.698 45.1024 429.988C43.7588 428.786 40.6335 429.446 38.9625 429.446C37.0263 429.446 35.1312 429.988 33.1989 429.988C32.3262 429.988 31.6063 430.056 30.7761 430.379C28.3754 431.313 24.9074 430.8 22.3789 430.8C19.8926 430.8 17.488 430.927 15.0352 431.071C14.6088 431.096 18.1917 432.89 18.707 433.073C21.9808 434.231 25.1114 434.864 28.5639 434.864C32.4133 434.864 35.8336 434.612 39.4742 433.178C41.0311 432.565 42.4932 431.935 44.0039 431.222C45.0451 430.73 45.9342 430.034 46.9383 429.566C48.1756 428.991 50.5199 427.577 50.5199 426.045C50.5199 422.599 49.4665 420.331 49.4665 416.865C49.4665 414.182 47.9316 408.293 47.9316 405.609M51.3326 419.905C51.3326 422.393 50.6459 424.841 53.7704 424.841C56.2034 424.841 58.2773 424.093 60.4821 423.276C61.5622 422.876 62.6576 422.674 63.8079 422.674C64.8313 422.674 65.6834 422.132 66.6371 422.132C72.2081 422.132 77.5865 420.502 82.9799 419.424C85.3502 418.95 87.5618 418.06 90.0076 417.783C91.936 417.565 93.5742 416.786 95.4252 416.384C97.1587 416.007 98.9847 416.161 100.752 415.962C105.542 415.424 110.595 415.22 115.274 414.112C117.396 413.609 119.502 412.959 121.64 412.531C122.839 412.292 124.061 412.099 125.252 411.824C125.89 411.677 126.382 411.209 127.027 411.087C139.101 408.809 151.459 407.931 163.52 405.519C174.924 403.238 186.118 399.881 197.335 396.806C204.527 394.834 211.765 392.872 218.915 390.861C220.756 390.343 224.866 388.905 225.987 387.069C226.54 386.165 226.106 385.183 226.454 384.21C227.228 382.042 222.605 383.815 221.548 384.089C218.505 384.878 215.376 385.697 212.383 386.708C210.883 387.215 208.889 387.543 207.312 387.701C206.393 387.793 205.439 387.593 204.648 388.183C203.972 388.687 203.586 389.144 202.752 389.371C199.633 390.222 196.576 390.532 193.482 391.794C188.233 393.937 182.628 394.512 177.155 395.572C169.864 396.983 162.741 399.624 155.334 400.447C152.923 400.715 150.581 401.187 148.186 401.546C146.595 401.784 145.036 402.439 143.461 402.614C141.322 402.852 139.508 404.481 137.26 404.525C135.863 404.553 134.669 404.961 133.303 405.097C131.325 405.295 129.26 405.534 127.328 406C124.581 406.663 121.934 407.494 119.202 408.167C116.623 408.803 113.732 409.351 111.317 410.425C110.296 410.878 109.312 410.652 108.247 410.771C106.992 410.91 105.922 411.733 104.605 411.824C100.8 412.087 97.1799 413.9 93.4538 414.292C92.3577 414.407 91.1471 415.072 90.0678 415.361C88.3818 415.812 86.7242 416.394 85.0416 416.865C82.9149 417.461 80.8545 418.558 78.6308 418.822C77.2234 418.988 75.7719 418.95 74.3721 419.183C73.0303 419.407 71.7323 420.033 70.4143 420.372C68.617 420.834 67.3052 421.707 65.6288 422.343C63.552 423.131 52.855 426.651 55.6214 430.394C57.0032 432.264 61.6388 432.126 63.6123 432.155C66.9212 432.203 70.2351 432.155 73.5444 432.155C76.4246 432.155 79.3719 431.994 82.077 430.936C83.3636 430.432 84.676 430.205 86.0047 429.867C86.6489 429.704 87.3703 429.175 88.0363 429.175C89.7275 429.175 91.4175 427.55 93.1077 427.55C94.6333 427.55 96.0654 427.019 97.532 426.752C99.3319 426.425 101.32 425.966 103.07 425.383" stroke="#E8CE99" stroke-width="10" stroke-linecap="round" stroke-linejoin="round"/>
<path d="M224.026 373C217.561 374.535 211.545 377.221 205.249 379.306C199.71 381.571 63.4584 414.135 57.6098 415.417C55.6003 415.857 53.3126 416.775 52.2765 414.472C51.3387 412.388 51.5544 398.425 47.5265 399C43.382 399.592 44.5265 407.5 44.5265 413.778C44.5265 415.681 44.5824 417.597 44.5265 419.5C44.4586 421.806 33.921 422.516 31.9709 423C28.0924 423.962 24.1946 424.686 20.332 425.722C-25.4306 438 34.0265 436.722 32.9432 434C36.93 434 31.722 435.646 30.0821 436.722C24.0265 439.5 -23.4735 460.667 37.7487 447.111C2.02649 500.5 63.0495 441.266 66.0265 436.722C82.2762 434.294 217.886 405.625 234.026 402.528" stroke="#031F48" stroke-width="5" stroke-linecap="round" stroke-linejoin="round"/>
<path d="M678.044 368.809C674.873 368.524 671.391 368.224 668.255 368.339C666 368.422 663.792 367.713 661.572 368.032C660.544 368.181 659.343 368.075 658.276 368.139C656.283 368.258 654.232 368.103 652.223 368.286C648.532 368.624 644.728 367.538 641.023 367.752C635.341 368.08 629.83 366.878 624.144 366.782C620.754 366.725 617.285 367.485 613.888 367.559C611.067 367.621 608.218 367.435 605.478 367.898C600.651 368.713 595.842 368.683 591.077 368.08C588.743 367.784 586.161 367.621 583.812 367.631C581.491 367.641 579.435 367.095 577.102 367.345C575.813 367.483 574.198 366.855 572.85 366.833C571.759 366.814 570.793 366.801 569.716 366.906C568.863 366.989 568.079 366.74 567.119 366.899C565.863 367.108 564.522 366.897 563.236 367.141C561.971 367.381 560.601 367.562 559.316 367.651C558.196 367.729 557.178 367.174 556.068 367.241C555.427 367.279 554.72 367.378 554.082 367.294C553.251 367.184 552.064 367.384 551.336 367.088" stroke="#E8CE99" stroke-width="10" stroke-linecap="round" stroke-linejoin="round"/>
<path d="M548.282 344.89C547.304 346.912 545.913 349.417 545.812 351.74C545.785 352.381 545.759 353.263 545.636 353.88C545.528 354.422 544.921 355.08 544.95 355.556C545.021 356.748 544.841 357.779 544.806 358.981C544.758 360.592 544.582 364.196 545.616 365.343C546.447 366.265 549.082 365.463 550.113 365.252C550.86 365.099 551.607 364.947 552.354 364.794C553.282 364.604 554.054 364.999 554.969 364.812C557.065 364.383 559.35 364.641 561.485 364.523C563.929 364.388 566.444 363.57 568.839 363.08C570.462 362.747 571.74 363.347 573.328 363.251C575.202 363.139 576.857 362.755 578.755 363.047C580.115 363.257 581.503 363.233 582.911 363.241C585.905 363.258 589.057 363.116 592.011 362.823C593.86 362.64 595.684 362.801 597.518 362.71C598.614 362.656 599.607 362.235 600.721 362.301C601.994 362.375 603.052 362.024 604.375 362.29C605.825 362.582 607.242 362.492 608.697 362.543C609.578 362.573 610.45 362.846 611.319 362.897C612.413 362.961 613.086 362.52 614.158 362.808C615.766 363.238 617.619 363.512 619.285 363.54C620.269 363.557 621.27 363.31 622.241 363.427C622.751 363.488 624.246 363.631 623.07 363.872C620.593 364.379 618.116 364.885 615.639 365.392C612.21 366.094 608.824 366.067 605.36 366.052C604.703 366.049 600.298 365.468 601.95 365.152C604.684 364.628 607.698 364.761 610.48 364.651C613.013 364.55 615.346 364.176 617.846 363.865C619.96 363.603 622.28 363.776 624.421 363.718C625.662 363.684 626.833 363.954 627.971 364.405C630.094 365.246 631.37 366.597 633.728 366.115C636.839 365.478 639.95 364.842 643.06 364.205C643.721 364.07 644.003 364.204 644.663 364.307C645.687 364.466 646.81 364.017 647.833 364.181C651.759 364.812 655.341 365.01 659.355 364.189C663.562 363.328 667.662 363.146 671.869 363.717C674.067 364.015 676.276 363.293 678.406 363.608C679.471 363.766 680.463 363.423 681.54 363.535C683.396 363.729 685.017 363.515 686.833 363.282C688.304 363.093 689.813 363.49 691.296 363.398C692.801 363.304 694.283 363.214 695.79 363.215C699.805 363.22 703.819 363.657 707.86 363.726C709.788 363.758 711.236 363.844 713.005 364.547C714.221 365.03 716.297 366.085 717.641 365.81C718.413 365.652 719.185 365.494 719.956 365.336C720.877 365.148 721.564 365.637 722.461 365.792C724.038 366.064 725.784 366.166 727.293 366.661C729.529 367.396 731.874 367.946 734.283 367.643C735.501 367.49 737.922 367.468 738.951 368.085C740.138 368.797 741.839 368.717 742.983 369.472C743.333 369.703 740.662 370.5 740.172 370.6C737.023 371.245 734.064 372.137 730.887 372.516C729.878 372.636 728.865 372.588 727.92 372.278C726.783 371.905 725.476 371.29 724.292 371.361C722.066 371.495 728.885 371.512 730.884 372.501C733.03 373.562 735.336 374.324 737.461 375.517C738.498 376.099 739.921 377.339 740.69 378.236C741.056 378.662 741.605 379.082 742.085 379.348C742.635 379.654 742.863 380.504 743.509 380.824C744.385 381.257 745.063 381.895 745.909 382.421C747.205 383.228 748.508 383.791 749.8 384.544C752.088 385.879 754.279 387.256 756.08 389.188C756.467 389.604 756.96 389.851 757.324 390.316C758.554 391.882 755.398 389.721 755.101 389.511C752.566 387.72 749.753 386.134 747.322 384.221C745.123 382.491 742.486 380.435 741.42 377.749C741.194 377.18 739.734 373.858 740.332 373.333C742.636 371.308 747.056 371.127 750.106 370.503C751.38 370.242 752.872 370.944 754.138 371.214C756.193 371.653 757.78 372.691 759.931 372.579C761.859 372.478 764.041 371.231 765.942 371.548C766.721 371.678 767.466 371.934 768.24 372.046C768.548 372.09 771.022 372.598 770.226 372.745C767.621 373.227 764.661 373.009 762.026 373.056C759.489 373.102 756.966 373.466 754.434 373.488C749.859 373.529 745.727 372.723 741.789 370.392C739.519 369.049 738.574 367.308 737.415 365.082C736.841 363.979 737.003 363.126 737.639 362.271C738.714 360.824 741.908 360.845 743.545 360.51C745.442 360.121 747.407 360.272 749.3 359.885C750.155 359.71 750.874 359.633 751.753 359.783C754.292 360.216 757.587 359.019 760.064 358.512C762.5 358.014 764.881 357.656 767.313 357.305C767.735 357.244 764.585 359.72 764.117 360.002C761.141 361.793 758.201 363.04 754.819 363.733C751.048 364.504 747.646 364.944 743.792 364.268C742.144 363.98 740.585 363.656 738.962 363.26C737.844 362.987 736.833 362.483 735.755 362.226C734.428 361.911 731.848 360.995 731.541 359.494C730.85 356.118 731.427 353.686 730.732 350.29C730.194 347.661 730.518 341.584 729.98 338.954M729.514 353.642C730.012 356.08 731.176 358.34 728.115 358.967C725.731 359.454 723.549 359.137 721.226 358.779C720.087 358.603 718.974 358.625 717.847 358.856C716.844 359.061 715.901 358.701 714.966 358.892C709.508 360.009 703.912 359.49 698.412 359.515C695.995 359.525 693.65 359.097 691.198 359.316C689.265 359.489 687.504 359.055 685.61 359.031C683.836 359.01 682.078 359.527 680.307 359.687C675.506 360.119 670.515 360.932 665.708 360.784C663.529 360.717 661.335 360.503 659.155 360.512C657.932 360.518 656.697 360.574 655.475 360.543C654.82 360.527 654.244 360.167 653.588 360.177C641.302 360.366 629.019 361.983 616.719 362.038C605.09 362.089 593.45 361.045 581.845 360.28C574.403 359.79 566.919 359.319 559.511 358.783C557.603 358.644 553.289 358.059 551.822 356.485C551.099 355.71 551.327 354.661 550.791 353.777C549.598 351.809 554.483 352.619 555.574 352.676C558.713 352.839 561.943 353.014 565.077 353.404C566.649 353.6 568.668 353.522 570.245 353.361C571.163 353.266 572.058 352.879 572.951 353.298C573.714 353.657 574.185 354.027 575.047 354.083C578.273 354.291 581.33 353.981 584.614 354.598C590.187 355.645 595.793 355.085 601.368 355.026C608.794 354.947 616.301 356.107 623.723 355.428C626.138 355.207 628.527 355.2 630.946 355.071C632.552 354.986 634.211 355.315 635.79 355.171C637.933 354.975 640.036 356.207 642.247 355.8C643.621 355.548 644.873 355.707 646.239 355.567C648.216 355.365 650.287 355.185 652.273 355.254C655.097 355.353 657.857 355.636 660.669 355.748C663.323 355.854 666.265 355.811 668.847 356.379C669.937 356.618 670.857 356.2 671.924 356.102C673.181 355.988 674.394 356.579 675.703 356.404C679.483 355.899 683.393 356.95 687.122 356.587C688.219 356.48 689.538 356.888 690.654 356.955C692.396 357.059 694.137 357.297 695.88 357.422C698.082 357.579 700.321 358.241 702.552 358.053C703.965 357.934 705.379 357.605 706.797 357.553C708.156 357.503 709.554 357.857 710.913 357.924C712.766 358.017 714.227 358.61 715.996 358.896C718.189 359.252 729.375 360.557 727.415 364.778C726.436 366.886 721.867 367.681 719.939 368.105C716.707 368.815 713.45 369.432 710.208 370.096C707.387 370.673 704.467 371.107 701.605 370.612C700.243 370.377 698.912 370.417 697.542 370.353C696.879 370.322 696.066 369.948 695.413 370.082C693.756 370.421 691.775 369.167 690.119 369.506C688.624 369.812 687.115 369.579 685.625 369.612C683.796 369.652 681.756 369.601 679.925 369.38" stroke="#E8CE99" stroke-width="10" stroke-linecap="round" stroke-linejoin="round"/>
<path d="M550.922 342.309C557.564 342.517 563.997 343.942 570.583 344.722C576.464 345.831 716.477 350.42 722.464 350.503C724.521 350.532 726.946 350.972 727.5 348.509C728.001 346.279 724.99 332.642 729.052 332.398C733.231 332.148 733.695 340.124 734.953 346.275C735.335 348.14 735.664 350.028 736.1 351.881C736.629 354.127 747.095 352.71 749.103 352.793C753.095 352.958 757.059 352.886 761.051 353.126C808.346 355.981 749.84 366.648 750.355 363.764C746.449 364.564 751.882 365.132 753.704 365.858C760.194 367.365 810.973 378.58 748.276 377.573C793.975 422.717 722.317 376.918 718.489 373.063C702.083 373.942 563.478 373.041 547.045 373.242" stroke="#031F48" stroke-width="5" stroke-linecap="round" stroke-linejoin="round"/>
<path d="M202 373C222.456 363.048 321 320.5 532 334C539.542 337.771 549.503 335.853 557.444 338.5C561.44 339.832 566.701 340 570.889 340C572.796 340 578.442 341.02 579.778 342.222C583.573 345.638 576.902 364.939 576.444 367.444C576.069 369.498 574.242 392.431 572.444 392.944C570.631 393.462 567.922 391.344 566.222 390.778C561.932 390.405 509.566 383.37 510 389.222C532 449 534.444 500.5 537.222 568C538.044 571.491 535.531 568.13 534.444 566.944C530.479 562.619 522.95 561.18 517.222 563.444C514.889 564.367 512.667 566.73 510.444 568C504.939 571.146 502.503 573 495.722 573C486.52 573 476.6 575.311 471 567.222C467.29 561.864 465.138 560.822 458.555 561C450.093 561.229 439.56 567.204 431.944 570.611C422.947 574.636 416.754 580 406.5 580C402.104 580 397.771 580.326 394.444 577C388.987 571.542 386.544 569.979 378.222 569.222C373.782 568.819 373.628 570.229 369.833 572C358.247 577.407 346.365 587 333.111 587C330.361 587 320.353 588.695 318.222 586.778C317.408 585.052 333.111 501.5 278.778 426C276.468 426.089 272.451 428.644 270.611 430C258.035 439.267 242.616 445.791 226 443.944C206.5 430 194.102 388.572 195.056 378.556C195.405 374.885 199.192 374.366 202 373Z" fill="#081840" stroke="black" stroke-linecap="round" stroke-linejoin="round"/>
<path d="M262.714 182.011C262.123 180.403 256.929 180.072 258.5 177.5C259.188 176.373 258.169 155.909 266.5 162C264.744 149.192 272.327 155.364 275 153.724C275 148.681 285.323 151.854 287.394 151.017C291.816 149.228 297.007 163.517 300.388 166.194C302.005 167.474 302.615 165.436 304.5 166.454C314.657 162.711 319.612 160.034 310 166.454C320.5 162 317.213 162.884 322.5 162C339.736 143 329.273 155.118 333 153.104C339.662 137.666 337.112 147.638 339.736 144.5C344.198 135.896 351.671 140.643 350.063 147.5C350.478 146.664 350.822 145.904 351.105 145.219C351.323 139.042 353.596 139.187 351.105 145.219C351.094 145.522 351.089 145.84 351.089 146.174C361.526 133.77 385.924 128.776 377.5 138C381.935 137.258 379.585 141.239 384 140.5C389.202 139.63 383.358 145.467 388.298 147.5C391.284 148.729 391.014 161.061 388.298 161.061C387.977 163.602 386.115 172.614 389.269 166.194C382.977 179 420 142.024 420 153.724C424.685 149.696 422.923 150.097 428.43 147.5C435.851 144 446.712 141.516 454 138C462.066 134.108 488.412 117.908 509.5 132.5C514.737 130.342 537.975 142.408 527.5 147.5C527.5 147.5 534.5 147.5 534.5 161.061C537.039 166.89 531.061 175.957 527.5 181.652C525.095 185.497 512.833 196.434 509.5 199.5C506.36 202.388 494.835 208.787 491 210.96C483.907 214.977 457.975 223.385 450.5 226.623C445.42 228.823 462.909 210.033 457.367 210.96C452.209 211.823 447.781 213.253 442.916 215.152C440.461 216.11 438.129 217.365 435.762 218.517C433.405 219.665 423.752 233.728 421.5 235.031C415.618 238.434 411.646 237.725 403.959 234.06C398.824 231.612 396.499 225.705 391.014 226.623C389.451 226.884 387.603 226.935 386.115 227.471C391.014 234.06 388.399 237.618 386.115 238C383.555 238.428 375.702 231.077 373.206 230.109C369.929 228.837 366.327 229.232 362.931 229.8C360.205 230.256 357.823 231.033 355.508 232.563C359 239.5 366 252 355.508 244.5C354 246 350.918 241.48 350.063 242C348.112 243.186 347.259 235.81 345.134 235.031C329.296 242.5 332.792 246.86 328 244.5C321.289 241.195 318.092 221.146 310 222.5C306.18 223.139 291.402 232.833 288.423 229.8C287.25 228.606 293.667 215.939 293.354 214.065C293.042 212.201 296.046 211.17 296.072 209.273C296.101 207.25 296.537 205.821 296.178 203.679C295.607 200.265 294.968 197.211 293.497 194.045C292.18 191.211 289.743 186.777 287.394 184.673C286.189 183.594 282.576 181.484 280.839 181.686C276.975 182.136 272.794 181.004 268.92 181.652C267.829 181.835 264.419 181.374 262.714 182.011Z" fill="#FFE4AD"/>
<path d="M257.826 186.55C265.096 182.214 281.289 181.923 289 186.55C296.106 190.814 289.952 234.663 313.867 227.114C321.204 208.262 344.602 231.853 344.172 245.105C344.172 245.105 354.42 237.153 357.24 235.343C384.271 221.161 402.95 226.093 407.545 226.279C411.344 226.433 413.656 228.174 417.753 227.698C429.405 226.342 440.159 223.328 451.189 219.823C453.843 218.979 456.216 217.534 458.809 216.548C560.804 170.335 510.931 148.114 506.511 146.974C504.646 146.493 503.715 145.644 501.441 145.794C500.115 145.882 497.655 145.197 496.28 144.911C495.311 144.71 494.523 144.84 493.631 144.566" stroke="#E8CE99" stroke-width="15" stroke-linecap="round" stroke-linejoin="round"/>
<path d="M222.292 146.869C226.055 140.257 225.452 133.044 228.463 126.179C229.417 124.003 230.965 123.144 232.223 121.381C233.818 119.145 236.176 116.729 238.109 114.82C240.009 112.945 240.976 110.184 243.403 108.752C244.682 107.998 245.527 106.561 246.826 105.645C248.813 104.245 250.95 102.88 252.733 101.221C254.662 99.4252 256.293 97.5147 258.721 96.2761C260.961 95.1336 261.999 92.9487 263.814 91.3684C266.553 88.9849 269.363 86.6568 272.597 84.9423C277.128 82.5397 281.337 79.5296 285.616 76.7372C290.915 73.2794 296.954 71.4165 302.393 68.2695C307.037 65.5823 311.976 63.1038 316.874 60.8901C321.95 58.5955 327.261 57.5701 332.136 54.9852C339.199 51.2405 347.378 49.9259 354.663 46.5414C365.278 41.6099 378.067 31.9744 389.274 28.5066C396.331 26.3229 401.276 29.7307 408.593 28.5066C406.229 26.3414 423.163 24.6667 424.566 26.3413C425.96 28.0043 428.727 29.4821 430.514 30.9226C431.362 31.6055 431.445 32.8304 432.105 33.6982C432.806 34.6193 433.677 34.6721 433.888 35.9347C434.23 37.9826 437.842 46.8917 435.704 48.3046C434.49 49.1065 432.279 52.6464 431.867 53.9879C431.191 56.1886 428.191 58.5115 426.505 59.9826C423.869 62.2824 420.911 64.4475 418.577 67.1388C417.426 68.4647 415.109 69.9131 414.305 71.4021C413.932 72.0928 416.31 72.53 416.658 73.0081C417.73 74.4812 416.285 78.4217 418.241 78.0944L426.898 76.646C430.95 75.9682 439.854 71.3442 443.962 71.4021C450.426 71.4932 463.927 77.6945 454.346 87.0092C451.648 89.6317 433.393 104.727 438.197 107.82C440.24 109.136 454.346 108.752 443.962 111.305C445.45 112.505 446.972 114.713 448.714 115.467C450.471 116.228 443.599 119.617 443.962 121.381C444.444 123.724 451.162 123.789 448.902 124.167C443.772 125.025 438.627 125.384 433.49 124.464C431.646 124.133 430.091 124.272 428.188 124.59C425.961 124.963 423.387 123.128 421.118 123.238C418.936 123.345 416.512 123.379 414.132 123.9C411.051 124.575 410.153 128.434 408.245 130.462C407.266 131.502 407.442 133.182 406.229 134.235C405.471 134.892 404.541 135.43 403.901 136.145C401.694 138.61 398.521 133.928 397.578 132.528C395.134 128.896 390.705 124.033 386.129 123.516C380.229 122.849 373.845 122.809 367.908 124.029C365.874 124.447 363.708 127.089 362.166 128.426C360.611 129.774 359.485 131.635 357.986 133.068C354.531 136.371 350.98 137.779 346.615 133.956C344.029 131.691 335.876 131.389 333.176 133.923C329.451 137.419 335.006 142.437 330.575 144.976C329.976 146.06 328.978 147.553 327.983 148.339C325.783 150.077 324.465 153.083 322.233 154.708C317.525 158.137 312.333 157.969 306.883 158.572C306.019 158.668 304.599 157.598 304.178 156.884C303.643 155.976 302.579 155.372 302.346 155.249C302.289 155.219 302.282 155.218 302.346 155.249C302.358 155.255 302.371 155.261 302.387 155.269C304.754 156.389 308.263 154.491 310.021 153.09C307.989 152.966 309.116 147.854 307.081 147.639C305.637 147.487 304.091 147.132 302.738 146.592C297.124 144.35 290.78 144.117 285.272 141.515C283.179 140.527 278.422 140.521 276.047 140.918C273.732 141.305 271.613 142.321 269.738 143.776C265.077 147.391 260.212 151.567 256.932 156.79C254.353 160.894 256.77 166.493 252.733 169.5C251.201 170.64 244.002 171.491 242.41 172.512C241.882 172.852 240.01 174.299 239.763 174.87C239.073 176.465 236.354 179.451 235.035 180.618C233.564 181.92 236.125 181.303 236.744 181.065C238.73 180.3 240.439 179.117 242.185 177.901C243.596 176.919 244.994 176.53 246.723 176.241C249.608 175.758 245.36 184.182 244.749 185.393L244.738 185.416C243.339 188.19 240.811 192.398 240.566 195.493C240.491 196.436 238.316 202.995 240.492 202.631C242.528 202.29 244.741 197.583 246.826 197.234C249.585 196.773 251.684 200.013 254.382 199.293C255.611 198.965 256.333 197.953 257.669 197.729L260.628 197.234C262.537 196.915 264.164 197.969 265.807 197.889C266.69 197.846 268.175 198.525 268.922 199.001C269.836 199.583 271.374 199.529 272.507 200.063C275.24 201.348 280.494 203.863 281.07 207.305C281.465 209.67 283.384 214.886 282.432 217.131C281.38 219.612 280.257 222.07 279.194 224.545C278.121 227.045 276.024 230.284 273.394 231.12C268.826 232.571 270.496 238.036 271.131 241.835C271.562 244.408 271.666 245.932 273.852 247.491C277.17 249.858 277.718 247.395 279.727 244.734C281.12 242.889 284.307 242.954 286.466 242.592C288.905 242.184 289.249 239.975 291.305 238.854C292.836 238.02 295.894 238.419 297.497 238.832C299.552 239.362 302.132 238.451 304.219 238.102C308.223 237.432 311.552 239.077 314.081 242.338C314.73 243.176 315.305 244.62 316.064 245.273C316.211 245.4 316.323 245.536 316.406 245.663C316.363 245.485 316.314 245.253 316.265 244.958C315.887 242.697 315.286 240.885 313.773 239.151C312.641 237.853 313.893 238.018 315.023 238.209C316.955 238.536 317.428 241.351 318.333 242.838C319.475 244.716 318.98 247.771 319.104 249.806C319.409 254.804 312.082 262.827 308.217 265.033C305.372 266.658 302.828 268.692 300.033 270.486C293.329 274.789 289.474 282.067 287.838 289.847C287.234 292.718 287.999 292.502 290.597 291.019C293.935 289.113 297.37 287.379 300.75 285.547C304.701 283.404 308.033 280.047 311.54 277.32C314.797 274.788 318.048 271.542 320.833 268.556C322.871 266.369 325.816 264.26 327.615 261.957C328.98 260.209 330.867 259.007 332.571 257.579C333.876 256.486 332.136 244.958 337.19 253.371C338.978 253.072 341.626 251.11 343.364 252.563C344.532 253.54 346.441 254.852 347.736 255.634C350.672 257.406 356.486 257.524 359.531 255.097C361.204 253.763 362.651 252.241 364.415 250.956C366.045 249.769 371.135 243.466 372.88 242.592C376.987 240.536 379.63 244.8 383.939 246.451C386.268 247.343 386.446 249.29 389.274 248.713C392.343 248.086 391.738 240.725 394 239.151C395.281 238.259 400.464 242.213 402.066 242.01C404.343 241.722 406.47 244.242 408.324 245.244C410.425 246.379 416.643 240.169 421.102 243.655C424.205 241.375 430.536 240.178 433.49 240.967C437.263 241.974 435.887 243.814 439.056 241.905C446.529 237.403 457.223 233.974 465 230.646C470.538 228.276 475.151 232.825 481.108 231.828C485.692 231.061 489.826 229.863 494.341 229.108C496.574 228.734 499.156 228.681 501.268 227.921C504.673 226.694 500 233.153 499.842 233.876C499.461 235.624 498.181 237.693 497.351 238.856C496.508 240.038 506.596 239.224 508.293 238.94C514.132 237.963 519.403 239.97 524.967 240.967C529.921 241.854 537.376 239.382 538.538 246.329C538.949 248.787 546.571 253.068 547 255.634C547.48 258.503 541.108 261.957 538.747 259.7C535.103 264.526 529.698 269.015 523.962 269.975C530.839 268.824 528.812 280.894 528.81 281.105C529.949 280.358 530.96 276.223 531.92 275.29C534.764 272.525 533.772 278.445 534.116 280.499C534.882 285.079 543.309 286.891 544 291.019C545.041 297.242 527.703 300.189 532.026 306.731C533.23 308.553 536.685 308.464 537.929 310.025C538.474 310.709 538.703 312.292 539.93 312.224C540.743 320.115 531.966 321.937 529.42 322.629C527.608 323.121 525.815 324.427 524.195 322.883C524.299 334.611 514.181 330.423 513.853 331.767C508.547 339.781 504.06 335.823 499.518 338.503C498.647 339.017 497.648 339.069 496.655 339.235C493.801 339.713 491.153 340.98 488.331 341.67C477.711 344.265 465.125 352.831 454.346 354.634C437.172 357.507 421.443 354.353 404.219 357.234L386.685 360.168C394 364.039 386.476 365.391 383.939 365.041C381.845 364.752 372.5 370 372.88 360.478C372.682 365.45 366.795 364.266 362.166 365.041C356.183 365.184 354.393 364.162 348.465 365.041C344.678 365.603 340.785 364.805 336.93 365.45C329.526 366.688 323.602 368.325 316.265 368.5C313.936 368.556 310.329 362.804 308.021 362.682C306.883 368.5 300.033 365.45 301.335 361.773C290.597 368.5 289.121 365.235 287.838 365.45C281.186 366.563 282.438 361.182 276.062 359.185C282.432 365.45 267.966 360.663 265.894 359.185C265.114 358.629 266.832 355.092 265.894 354.634C263.833 353.627 260.763 353.312 259.188 351.587C258.568 350.908 257.22 349.888 256.328 349.644C254.781 349.221 254.388 347.804 253.331 346.878C244.738 346.878 248.92 336.068 242.41 338.503C252.345 331.333 242.511 334.946 240.252 331.661C238.43 329.012 236.494 326.16 234.443 323.705C233.043 322.029 231.147 320.94 229.828 319.182C228.689 317.667 223.659 317.758 222.292 316.5C221.13 315.431 227.072 313.426 227.17 312.558C227.344 311.022 226.618 309.087 226.364 307.567C225.937 305.017 225.751 302.025 224.432 299.723C223.559 298.2 223.496 302.655 223.466 303.039C223.332 304.717 223.109 306.455 222.793 308.108C221.797 313.314 218.379 310.493 217.604 306.723C216.914 303.368 213.05 302.657 211.142 299.723C209.988 297.947 210.669 291.708 209.255 290.151C207.295 287.992 206.832 285.04 205.451 282.564C201.457 275.402 202.162 266.595 198.779 259.346C197.66 256.95 197.597 253.799 197.162 251.196C196.525 247.387 197.842 244.01 197.342 240.154C196.962 237.214 194.599 232.265 194.071 229.108C193.747 227.174 195.789 225.573 196.227 223.724C196.83 221.179 195.586 218.956 196.396 216.316C196.971 214.443 195.973 211.425 196.876 209.927C198.028 208.018 195.936 209.514 196.396 207.305C196.844 205.153 200.856 198.159 200.713 195.992C200.559 193.667 200.347 191.449 199.96 189.134C199.856 188.516 195.703 191.778 194.071 193.159C192.493 193.179 191.987 183.962 190.394 183.637C189.366 183.427 188.25 183.787 187.836 182.656C187.474 181.668 187.382 179.578 185.925 179.822C185.304 179.926 181.566 181.029 181.067 180.409C179.408 178.351 179.187 175.479 177.765 173.301C176.833 171.873 175.882 175.403 174.773 172.084C173.737 168.981 172.798 172.878 171.272 173.542C171.713 174.012 175.05 181.76 174.181 181.167C172.179 179.8 170.3 177.987 168.214 176.814C165.675 175.386 163.338 176.595 160.968 174.87C158.539 173.104 156.601 168.078 154.316 166.127C149.756 162.237 147.709 156.621 146.438 150.857C145.711 147.56 144.378 142.245 147.061 139.431C148.728 137.682 150.273 135.598 152.689 135.194C154.203 134.941 156.191 134.156 157.484 135.237C159.212 136.682 160.528 138.674 160.968 140.906C162.38 148.081 165.999 153.344 170.212 159.131C171.284 160.602 169.326 151.644 168.951 149.4C171.398 154.48 174.245 164.777 180.967 166.175C184.632 166.938 193.685 165.246 194.636 161.016C195.651 156.5 192.042 138.429 192.775 134.064C193.738 135.954 198.148 140.288 199.177 142.034C200.442 144.177 202.05 149.457 204.511 149.844C205.448 149.991 205.794 150.984 206.754 150.961C208.2 150.927 209.724 154.946 211.142 154.708C213.298 154.348 221.047 157.611 222.292 146.869Z" fill="#145FCF"/>
<path d="M195.897 191.785C195.789 191.902 193.48 194.133 193.514 193.704C192.525 194.35 199.822 188.312 199.96 189.134C200.347 191.449 200.559 193.667 200.713 195.992C200.856 198.159 196.844 205.153 196.396 207.305C195.936 209.514 198.028 208.018 196.876 209.927C195.973 211.425 196.971 214.443 196.396 216.316C195.586 218.956 196.83 221.179 196.227 223.724C195.789 225.573 193.747 227.174 194.071 229.108C194.599 232.265 196.962 237.214 197.342 240.154C197.842 244.01 196.525 247.387 197.162 251.196C197.597 253.799 197.66 256.95 198.779 259.346C202.162 266.595 201.457 275.402 205.451 282.564C206.832 285.04 207.295 287.992 209.255 290.151C210.669 291.708 209.988 297.947 211.142 299.723C213.05 302.657 216.914 303.368 217.604 306.723C218.379 310.493 221.797 313.314 222.793 308.108C223.109 306.455 223.332 304.717 223.466 303.039C223.496 302.655 223.559 298.2 224.432 299.723C225.751 302.025 225.937 305.017 226.364 307.567C226.618 309.087 227.344 311.022 227.17 312.558C227.072 313.426 221.13 315.431 222.292 316.5C223.659 317.758 228.689 317.667 229.828 319.182C231.147 320.94 233.043 322.029 234.443 323.705C236.494 326.16 238.43 329.012 240.252 331.661C242.511 334.946 252.345 331.333 242.41 338.503C248.92 336.068 244.738 346.878 253.331 346.878C254.388 347.804 254.781 349.221 256.328 349.644C257.22 349.888 258.568 350.908 259.188 351.587C260.763 353.312 263.833 353.627 265.894 354.634C266.832 355.092 265.114 358.629 265.894 359.185C267.966 360.663 282.432 365.45 276.062 359.185C282.438 361.182 281.186 366.563 287.838 365.45C289.121 365.235 290.597 368.5 301.335 361.773C300.033 365.45 306.883 368.5 308.021 362.682C310.329 362.804 313.936 368.556 316.265 368.5C323.602 368.325 329.526 366.688 336.93 365.45C340.785 364.805 344.678 365.603 348.465 365.041C354.393 364.162 356.183 365.184 362.166 365.041C366.795 364.266 372.682 365.45 372.88 360.478C372.5 370 381.845 364.752 383.939 365.041C386.476 365.391 394 364.039 386.685 360.168C392.53 359.19 398.374 358.212 404.219 357.234C421.443 354.353 437.172 357.507 454.346 354.634C465.125 352.831 477.711 344.265 488.331 341.67C491.153 340.98 493.801 339.713 496.655 339.235C497.648 339.069 498.647 339.017 499.518 338.503C504.06 335.823 508.547 339.781 513.853 331.767C514.181 330.423 524.299 334.611 524.195 322.883C525.815 324.427 527.608 323.121 529.42 322.629C531.966 321.937 540.743 320.115 539.93 312.224C538.703 312.292 538.474 310.709 537.929 310.025C536.685 308.464 533.23 308.553 532.026 306.731C527.703 300.189 545.041 297.242 544 291.019C543.309 286.891 534.882 285.079 534.116 280.499C533.772 278.445 534.764 272.525 531.92 275.29C530.96 276.223 529.949 280.358 528.81 281.105C528.812 280.894 530.839 268.824 523.962 269.975C529.698 269.015 535.103 264.526 538.747 259.7C541.108 261.957 547.48 258.503 547 255.634C546.571 253.068 538.949 248.787 538.538 246.329C537.376 239.382 529.921 241.854 524.967 240.967C519.403 239.97 514.132 237.963 508.293 238.94C506.596 239.224 496.508 240.038 497.351 238.856C498.181 237.693 499.461 235.624 499.842 233.876C500 233.153 504.673 226.694 501.268 227.921C499.156 228.681 496.574 228.734 494.341 229.108C489.826 229.863 485.692 231.061 481.108 231.828C475.151 232.825 470.538 228.276 465 230.646C457.223 233.974 446.529 237.403 439.056 241.905C435.887 243.814 437.263 241.974 433.49 240.967C430.051 240.049 422.033 241.822 419.864 244.863C418.944 246.152 422.608 243.746 421.118 243.668C416.658 240.154 410.428 246.38 408.324 245.244C406.47 244.242 404.343 241.722 402.066 242.01C400.464 242.213 395.281 238.259 394 239.151C391.738 240.725 392.343 248.086 389.274 248.713C386.446 249.29 386.268 247.343 383.939 246.451C379.63 244.8 376.987 240.536 372.88 242.592C371.135 243.466 366.045 249.769 364.415 250.956C362.651 252.241 361.204 253.763 359.531 255.097C356.486 257.524 350.672 257.406 347.736 255.634C346.441 254.852 344.532 253.54 343.364 252.563C341.626 251.11 338.978 253.072 337.19 253.371C332.136 244.958 333.876 256.486 332.571 257.579C330.867 259.007 328.98 260.209 327.615 261.957C325.816 264.26 322.871 266.369 320.833 268.556C318.048 271.542 314.797 274.788 311.54 277.32C308.033 280.047 304.701 283.404 300.75 285.547C297.37 287.379 293.935 289.113 290.597 291.019C287.999 292.502 287.234 292.718 287.838 289.847C289.474 282.067 293.329 274.789 300.033 270.486C302.828 268.692 305.372 266.658 308.217 265.033C312.082 262.827 319.409 254.804 319.104 249.806C318.98 247.771 319.475 244.716 318.333 242.838C317.428 241.351 316.955 238.536 315.023 238.209C313.893 238.018 312.641 237.853 313.773 239.151C315.286 240.885 315.887 242.697 316.265 244.958C316.61 247.022 316.898 245.99 316.064 245.273C315.305 244.62 314.73 243.176 314.081 242.338C311.552 239.077 308.223 237.432 304.219 238.102C302.132 238.451 299.552 239.362 297.497 238.832C295.894 238.419 292.836 238.02 291.305 238.854C289.249 239.975 288.905 242.184 286.466 242.592C284.307 242.954 281.12 242.889 279.727 244.734C277.718 247.395 277.17 249.858 273.852 247.491C271.666 245.932 271.562 244.408 271.131 241.835C270.496 238.036 268.826 232.571 273.394 231.12C276.024 230.284 278.121 227.045 279.194 224.545C280.257 222.07 281.38 219.612 282.432 217.131C283.384 214.886 281.465 209.67 281.07 207.305C280.494 203.863 275.24 201.348 272.507 200.063C271.374 199.529 269.836 199.583 268.922 199.001C268.175 198.525 266.69 197.846 265.807 197.889C264.164 197.969 262.537 196.915 260.628 197.234C259.642 197.399 258.655 197.564 257.669 197.729C256.333 197.953 255.611 198.965 254.382 199.293C251.684 200.013 249.585 196.773 246.826 197.234C244.741 197.583 242.528 202.29 240.492 202.631C238.316 202.995 240.491 196.436 240.566 195.493C240.811 192.398 243.339 188.19 244.738 185.416C245.304 184.293 249.627 175.755 246.723 176.241C244.994 176.53 243.596 176.919 242.185 177.901C240.439 179.117 238.73 180.3 236.744 181.065C236.125 181.303 233.564 181.92 235.035 180.618C236.354 179.451 239.073 176.465 239.763 174.87C240.01 174.299 241.882 172.852 242.41 172.512C244.002 171.491 251.201 170.64 252.733 169.5C256.77 166.493 254.353 160.894 256.932 156.79C260.212 151.567 265.077 147.391 269.738 143.776C271.613 142.321 273.732 141.305 276.047 140.918C278.422 140.521 283.179 140.527 285.272 141.515C290.78 144.117 297.124 144.35 302.738 146.592C304.091 147.132 305.637 147.487 307.081 147.639C309.116 147.854 307.989 152.966 310.021 153.09C308.263 154.491 304.754 156.389 302.387 155.269C301.917 155.046 303.487 155.713 304.178 156.884C304.599 157.598 306.019 158.668 306.883 158.572C312.333 157.969 317.525 158.137 322.233 154.708C324.465 153.083 325.783 150.077 327.983 148.339C328.978 147.553 329.976 146.06 330.575 144.976C335.006 142.437 329.451 137.419 333.176 133.923C335.876 131.389 344.029 131.691 346.615 133.956C350.98 137.779 354.531 136.371 357.986 133.068C359.485 131.635 360.611 129.774 362.166 128.426C363.708 127.089 365.874 124.447 367.908 124.029C373.845 122.809 380.229 122.849 386.129 123.516C390.705 124.033 395.134 128.896 397.578 132.528C398.521 133.928 401.694 138.61 403.901 136.145C404.541 135.43 405.471 134.892 406.229 134.235C407.442 133.182 407.266 131.502 408.245 130.462C410.153 128.434 411.051 124.575 414.132 123.9C416.512 123.379 418.936 123.345 421.118 123.238C423.387 123.128 425.961 124.963 428.188 124.59C430.091 124.272 431.646 124.133 433.49 124.464C438.627 125.384 443.772 125.025 448.902 124.167C451.162 123.789 444.444 123.724 443.962 121.381C443.599 119.617 450.471 116.228 448.714 115.467C446.972 114.713 445.45 112.505 443.962 111.305C454.346 108.752 440.24 109.136 438.197 107.82C433.393 104.727 451.648 89.6317 454.346 87.0092C463.927 77.6945 450.426 71.4932 443.962 71.4021C439.854 71.3442 430.95 75.9682 426.898 76.646C424.013 77.1288 421.127 77.6116 418.241 78.0944C416.285 78.4217 417.73 74.4812 416.658 73.0081C416.31 72.53 413.932 72.0928 414.305 71.4021C415.109 69.9131 417.426 68.4647 418.577 67.1388C420.911 64.4475 423.869 62.2824 426.505 59.9826C428.191 58.5115 431.191 56.1886 431.867 53.9879C432.279 52.6464 434.49 49.1064 435.704 48.3046C437.842 46.8917 434.23 37.9826 433.888 35.9347C433.677 34.6721 432.806 34.6193 432.105 33.6982C431.445 32.8304 431.362 31.6055 430.514 30.9226C428.727 29.4821 425.96 28.0043 424.566 26.3413C423.163 24.6667 406.229 26.3413 408.593 28.5066C401.276 29.7307 396.331 26.3229 389.274 28.5066C378.067 31.9744 365.278 41.6099 354.663 46.5414C347.378 49.9259 339.199 51.2405 332.136 54.9852C327.261 57.5701 321.95 58.5955 316.874 60.8901C311.976 63.1038 307.037 65.5823 302.393 68.2695C296.954 71.4165 290.915 73.2794 285.616 76.7372C281.337 79.5296 277.128 82.5397 272.597 84.9423C269.363 86.6568 266.553 88.9849 263.814 91.3684C261.999 92.9487 260.961 95.1336 258.721 96.2761C256.293 97.5147 254.662 99.4252 252.733 101.221C250.95 102.88 248.813 104.245 246.826 105.645C245.527 106.561 244.682 107.998 243.403 108.752C240.976 110.184 240.009 112.945 238.109 114.82C236.176 116.729 233.818 119.145 232.223 121.381C230.965 123.144 229.417 124.003 228.463 126.179C225.452 133.044 226.055 140.257 222.292 146.869C221.047 157.611 213.298 154.348 211.142 154.708C209.724 154.946 208.2 150.927 206.754 150.961C205.794 150.984 205.448 149.991 204.511 149.844C202.05 149.457 200.442 144.177 199.177 142.034C198.148 140.288 193.738 135.954 192.775 134.064C192.042 138.429 195.651 156.5 194.636 161.016C193.685 165.246 184.632 166.938 180.967 166.175C174.245 164.777 171.398 154.48 168.951 149.4C169.326 151.644 171.284 160.602 170.212 159.131C165.999 153.344 162.38 148.081 160.968 140.906C160.528 138.674 159.212 136.682 157.484 135.237C156.191 134.156 154.203 134.941 152.689 135.194C150.273 135.598 148.728 137.682 147.061 139.431C144.378 142.245 145.711 147.56 146.438 150.857C147.709 156.621 149.756 162.237 154.316 166.127C156.601 168.078 158.539 173.104 160.968 174.87C163.338 176.595 165.675 175.386 168.214 176.814C170.3 177.987 172.179 179.8 174.181 181.167C175.05 181.76 171.713 174.012 171.272 173.542C172.798 172.878 173.737 168.981 174.773 172.084C175.882 175.403 176.833 171.873 177.765 173.301C179.187 175.479 179.408 178.351 181.067 180.409C181.566 181.029 185.304 179.926 185.925 179.822C187.382 179.578 187.474 181.668 187.836 182.656C188.25 183.787 189.366 183.427 190.394 183.637C191.987 183.962 192.493 193.179 194.071 193.159" stroke="#145FCF" stroke-width="15" stroke-linecap="round" stroke-linejoin="round"/>
<path d="M350.5 137.925C352.365 135.391 361.5 138.5 359.417 128.491C365.963 132.244 363.267 124.299 365.963 123.848C372.825 122.7 378.463 122.568 385.157 124.946C390.167 126.726 393.548 131.572 399.108 132.244C402.917 132.704 408.057 131.247 409.101 127.164C409.857 124.205 415.151 129.006 418.226 128.491C421.305 127.976 419.228 120.78 422.14 121.772C425.548 122.932 429.615 122.583 433.156 123.14C438.361 123.958 453.114 121.925 457.5 119.063C461.921 116.178 449.511 117.206 447.627 114.354C446.936 113.31 445.837 112.884 444.84 112.173C443.736 111.386 443.471 109.831 442.737 108.694C441.65 107.013 440.213 100.373 441.89 98.7531C444.14 96.5804 447.024 94.8659 449.472 92.894C453.221 89.8734 456.76 86.4518 457.5 82.6153C458.285 78.5438 455.105 71.3607 451.478 71.7133C448.287 72.0234 440.701 72.1794 437.5 71.7133C434.125 71.2217 430.354 76.3074 426.944 76.2441C422.731 76.1659 416.521 74.3064 413.287 71.7133C410.496 69.4759 406.865 66.4532 409.101 62.4999C410.801 59.4949 414.797 54.4984 418.226 53.7633C421.017 53.1649 423.762 54.1251 424.667 50.8119C425.797 46.674 433.156 42.4999 423.901 36.8019C422.616 33.6278 418.513 33.4374 416.131 33.8358C412.507 34.4421 408.736 34.3575 405.03 34.6509C399.407 35.0962 393.809 34.5286 388.184 35.4695C381.609 36.5696 375.034 37.6696 368.459 38.7696C359.452 40.2764 351.24 42.3515 342.679 45.4481C337.412 47.3535 332.883 50.8469 327.422 52.2253C321.121 53.8156 315.148 57.3443 309.151 59.8445C305.224 61.4816 301.226 62.5822 297.865 65.2811C293.06 69.14 287.144 70.9435 282.098 74.3967C277.954 77.2323 273.626 80.006 269.335 82.6153C266 84.6429 262.183 86.5959 259.137 88.9966C248.419 97.4417 239.827 109.113 230.595 119.063C228.449 121.376 232.956 126.327 230.595 128.491C229.175 129.794 231.369 136.149 230.595 137.925C228.73 142.211 234.267 138.081 227 135.692C226.628 140.375 216 156.099 214.117 160.291C213.162 162.417 211.403 159.104 210.457 157.777C209.216 156.037 207.92 154.129 206.965 152.222C205.58 149.455 203.539 147.055 201.531 144.654C199.942 142.755 197.754 140.276 196.969 137.925C196.905 137.732 192.815 135.486 192.619 135.692C192.093 136.243 195.973 142.247 195.922 143.114C195.674 147.343 194.271 150.96 194.212 155.116C194.177 157.616 192.895 160.236 192.619 162.761C192.433 164.459 192.023 164.607 190.437 164.872C186.179 165.585 183.372 164.902 179.576 162.408C174.339 158.969 164.633 140.216 160.387 135.692C159.146 134.369 139.723 137.925 154.11 148.213C142.223 143.114 152.172 156.157 152.5 158.115C153.215 162.39 159.172 171.062 164.001 172.844C170.179 175.123 176.796 177.144 183.308 178.992C186.483 179.894 190.116 181.061 192.841 182.946C195.566 184.83 191.693 191.376 194.212 193.5C197.348 196.144 203.127 198.973 203.745 202.667C204.097 204.771 204.875 207.21 204.749 209.343C204.593 211.979 204.878 214.371 204.626 217.024C204.395 219.445 203.898 221.764 204.301 224.175C205.274 229.988 205.261 235.976 206.244 241.847C206.6 243.975 206.956 246.103 207.312 248.231C207.433 248.953 208.171 251.017 207.761 251.591C207.563 251.869 206.853 248.411 206.754 247.93C206.211 245.289 204.622 243.014 203.941 240.373C203.075 237.017 201.427 234.267 200.848 230.808C200.208 226.982 200.057 222.481 202.444 219.135" stroke="#0F54BA" stroke-width="15" stroke-linecap="round" stroke-linejoin="round"/>
<path d="M241.153 208.096C245.226 206.571 249.037 204.743 252.969 202.965C256.257 201.479 259.45 200.98 263.151 200.361C268.438 199.476 276.241 196.779 279.537 202.689C282.591 208.164 284.116 213.68 282.178 219.99C281.115 223.452 281.115 227.421 279.65 230.806C278.709 232.979 277.578 235.201 276.453 237.283C275.275 239.463 273.089 242.729 272.704 245.177C272.655 245.486 273.124 244.703 273.384 244.528C274.272 243.93 275.455 243.965 276.425 243.512C277.46 243.029 278.641 241.933 279.725 241.692C283.298 240.9 286.375 239.059 290.108 238.435C293.106 237.933 298.459 235.896 301.369 237.058C306.79 239.223 318.394 239.047 320.5 245.177C321.215 247.259 320.5 254.42 316.102 254.42C315.556 258.907 313.388 260.888 310.628 264.123C308.038 267.159 303.313 269.095 299.992 271.254C295.483 274.184 290.252 276.312 285.182 278.012C280.996 279.416 276.976 281.694 272.572 282.431C270.318 282.808 269.362 280.252 268.665 278.269C267.616 275.286 270.003 272.215 273.086 271.699" stroke="#0F54BA" stroke-width="15" stroke-linecap="round" stroke-linejoin="round"/>
<path d="M251.549 136.905C251.738 133.893 252.879 132.112 254.385 129.615C255.29 128.115 256.353 126.016 257.515 124.754C262.988 118.808 268.875 111.941 276.127 108.235C287.022 102.667 296.291 94.3211 307.781 89.871C312.144 88.1814 321.659 84.3226 325.18 89.157C327.454 92.2803 328.997 97.5747 327.722 101.321C327.34 102.442 327.108 103.416 326.851 104.536C326.505 106.052 330.9 101.556 331.115 101.401C336.364 97.6292 342.254 95.6385 348.77 95.3212C353.408 95.0954 355.556 101.038 356.169 104.701" stroke="#0F54BA" stroke-width="15" stroke-linecap="round" stroke-linejoin="round"/>
<path d="M371.218 249.199C373.491 248.286 375.434 247.145 377.962 247.085C380.796 247.017 382.969 249.384 384.946 250.958C388.235 253.575 390.705 250.796 392.014 247.747C393.357 244.619 393.357 243.974 396.833 243.392C399.181 243 401.079 244.697 403.438 244.822C406.277 244.973 408.71 247.555 411.372 248.311C413.663 248.961 415.926 251.281 418.265 251.467C421.124 251.694 423.877 251.035 426.704 250.562C430.557 249.917 436.855 250.143 440.027 247.713C441.766 246.381 444.091 245.713 445.642 244.239C446.923 243.022 448.618 241.599 450.271 240.93C453.067 239.799 455.912 238.178 458.89 237.573C464.59 236.416 469.966 234.495 475.519 233.27C477.213 232.897 480.592 231.176 482.112 230.252C484.684 228.688 489.051 227.99 491.901 227.488C492.997 227.295 506.564 225.151 506.554 225.346C506.45 227.32 501.989 229.983 500.525 231.396C498.496 233.356 492.632 239.049 494.847 242.401C496.223 244.483 504.001 239.606 505.813 238.595C508.294 237.211 512.76 237.02 515.462 237.009C518.886 236.994 521.678 236.942 524.911 237.934C527.852 238.838 529.64 241.213 531.7 243.333C533.635 245.324 535.541 246.594 536.037 249.563C536.677 253.388 538.384 258.331 536.607 262.057C533.98 267.565 530.052 271.247 525.883 275.568C524.806 276.684 517.056 284.567 519.675 286.435C520.478 287.008 522.715 286.208 523.639 286.054C527.648 285.383 531.657 284.712 535.666 284.042C536.709 283.867 544.395 281.729 545.086 282.776C545.859 283.944 544.448 285.894 544.066 286.946C543.226 289.256 541.456 290.917 540.713 293.336C539.926 295.899 539.093 299.266 537.622 301.458C536.248 303.505 535.751 304.645 538.264 305.293C540.197 305.792 541.567 306.859 541.919 308.963C542.163 310.419 543.204 313.311 542.361 314.634C540.886 316.95 538.433 318.641 536.327 320.319C534.388 321.865 531.827 322.585 529.745 324.067C526.398 326.449 522.821 328.706 519.337 330.878C516.589 332.591 513.727 334.624 510.576 335.414C508.236 336 506.592 337.914 504.212 338.45C500.849 339.206 498.153 341.149 494.839 342.017C483.127 345.088 471.555 349.048 459.311 350.017C456.635 350.229 454.319 350.137 452.446 347.87C451.457 346.673 451.281 344.244 449.808 343.383C449.406 343.148 448.262 345.754 447.988 346.138C445.497 349.629 440.412 353.714 436.22 354.415C434.109 354.769 432.082 354.992 430.138 355.94C425.605 358.151 419.34 358.253 414.44 359.073C411.282 359.601 408.127 360.18 404.961 360.659C402.459 361.037 400.148 360.449 397.663 360.471C389.825 360.543 382.258 359.602 374.418 358.897C367.705 358.293 361.17 358.05 354.506 356.708C347.647 355.326 340.97 352.984 334.172 351.322C322.509 348.471 309.967 347.929 298.712 343.736C298.183 343.539 294.631 341.587 294.583 341.948C294.292 344.126 295.988 346.434 297.034 348.185C297.916 349.661 299.139 353.284 298.034 354.833C295.738 358.052 287.719 358.266 284.555 357.088C282.087 356.17 280.781 355.079 279.1 353.101C275.354 348.694 271.89 344.074 268.323 339.526C267.207 338.102 265.689 336.597 265.014 334.897C264.556 333.743 263.127 330.349 263.331 331.574C263.716 333.875 264.871 340.504 260.843 339.932C251.568 338.617 246.772 324.805 244.618 317.356C244.17 315.808 243.297 314.284 242.944 312.735C242.9 312.544 242.739 314.276 242.196 315.001C237.66 321.064 233.414 315.993 229.8 311.611C226.194 307.239 225.425 301.955 224.521 296.553" stroke="#0F54BA" stroke-width="15" stroke-linecap="round" stroke-linejoin="round"/>
<path d="M463.954 273.226C468.043 271.735 469.736 272.573 473.152 275.011C474.942 276.288 477.01 279.364 476.426 281.786C475.541 285.455 471.651 288.812 469.345 291.645C468.904 292.186 471.133 292.371 471.834 292.721C475.659 294.631 479.028 296.045 481.561 299.684C489.867 311.615 472.644 316.328 464.036 317.824C451.563 319.992 440.296 317.689 428.277 313.836C425.934 313.085 422.244 312.273 420.493 310.407" stroke="#0F54BA" stroke-width="15" stroke-linecap="round" stroke-linejoin="round"/>
<path d="M185.403 189.034C151.456 192.179 128.5 154.956 144.614 130.067C147.975 124.875 157.952 124.9 162.34 127.609C169.041 131.745 178.588 149.724 183.409 155.909C187.792 161.53 185.961 146.373 186.361 143.249C186.673 140.806 186.188 125.051 188.715 124.323C197.932 121.666 203.02 142.827 215.297 146.519" stroke="#031F48" stroke-width="5" stroke-linecap="round" stroke-linejoin="round"/>
<path d="M217.679 142.572C225.062 89.7403 285.256 63.3931 332.934 42.6287C361.6 30.1441 380.113 22.6253 401.812 18.9952C415.121 17.0586 433.742 17.9951 442.261 30.4783C445.189 34.7689 444.025 47.8423 442.321 53.3937C440.951 57.8544 435.046 65.8781 430.191 67.4207C427.031 68.425 433.368 66.9456 434.365 66.7788C439.83 65.8645 474.499 56.5158 459.306 92.9669C457.725 96.115 454.898 100.601 451.319 101.457C444.437 103.102 487.938 121.692 447.995 131.416C445.3 131.867 429.672 134.363 427.774 131.757" stroke="#031F48" stroke-width="5" stroke-linecap="round" stroke-linejoin="round"/>
<path d="M253.05 184.307C260.194 176.15 261.031 162.125 269.7 155.217C274.091 151.718 284.652 147.053 290.02 151.423C296.079 156.357 298.767 166.165 307.966 165.77C322.005 165.167 328.753 158.944 334.843 147.304C336.41 144.309 340.838 139.588 344.768 142.658C346.153 143.74 346.8 145.906 348.397 146.839C350.073 147.819 355.949 145.853 357.566 145.418C363.463 143.83 368.153 135.13 373.524 134.749C388.329 135.371 391.089 151.864 391.95 157.014" stroke="#031F48" stroke-width="5" stroke-linecap="round" stroke-linejoin="round"/>
<path d="M336.787 242.42C342.2 242.531 346.863 244.362 351.368 247.291C354.632 249.414 361.118 247.784 361.594 244.187C361.98 241.271 365.297 231.689 388.254 238.379C391.646 237.811 390.288 234.534 392.638 232.62C396.069 229.826 399.572 232.918 402.745 234.127C406.834 235.686 412.306 234.355 416.434 233.665" stroke="#031F48" stroke-width="5" stroke-linecap="round" stroke-linejoin="round"/>
<path d="M246.153 197.628C266.612 183.559 306.108 188.668 284.89 232.21C322.483 216.852 354.525 251.484 295.56 280.163" stroke="#031F48" stroke-width="5" stroke-linecap="round" stroke-linejoin="round"/>
<path d="M316.668 176.706C321.288 204.322 334.422 199.552 335.576 195.792C337.265 190.29 335.384 179.495 334.421 173.736" stroke="#031F48" stroke-width="5" stroke-linecap="round" stroke-linejoin="round"/>
<path d="M353.982 169.45C355 175.537 359.496 193.191 368.124 190.347C376.955 187.436 372.378 173.353 371.242 166.562" stroke="#031F48" stroke-width="5" stroke-linecap="round" stroke-linejoin="round"/>
<path d="M387.685 170.909C413.269 152.543 443.688 135.475 475.12 129.92C487.854 127.669 500.832 127.784 513.225 132.106C524.37 135.994 531.457 143.491 533.496 154.626C535.582 166.014 542.077 205.913 425.865 235.494" stroke="#031F48" stroke-width="5" stroke-linecap="round" stroke-linejoin="round"/>
<path d="M368.022 277.616C370.919 282.563 373.355 287.953 378.798 290.514C381.989 292.015 392.812 291.397 395.154 288.285C399.024 283.144 395.927 274.718 394.978 269.05" stroke="#031F48" stroke-width="5" stroke-linecap="round" stroke-linejoin="round"/>
<path d="M188.78 200.129C184.887 211.018 182.095 290.47 225.354 327.845C234.695 335.914 237.639 358.516 281.277 371.212C348.998 383.083 433.064 365.459 500.261 349.56C525.053 343.694 565.709 309.454 546.083 305.619C537.698 303.98 555.116 289.913 547.785 280.775C545.899 277.218 541.615 274.935 537.516 275.621C562.74 256.7 552.941 228.429 511.68 233.304C509.123 233.732 506.566 234.16 504.008 234.588C502.58 234.826 505.413 233.825 506.016 232.449C513.729 224.343 513.146 211.767 475.342 225.189" stroke="#031F48" stroke-width="5" stroke-linecap="round" stroke-linejoin="round"/>
<path d="M524.897 541.023C510.962 540.469 500.183 553.03 507.518 564.891C513.229 574.125 521.252 582.868 531.265 590.63C550.002 605.154 574.491 615.296 600.355 619.244C626.219 623.192 651.775 620.688 672.456 612.181C683.908 607.469 693.453 601.087 700.651 593.457C709.724 583.839 702.465 569.913 689.693 566.495V566.495C677.98 563.361 665.751 570.63 655.986 577.818C652.794 580.168 649.129 582.21 645.049 583.888C632.985 588.851 618.078 590.312 602.991 588.009C587.903 585.706 573.618 579.79 562.688 571.317C557.691 567.444 553.544 563.152 550.364 558.619C544.221 549.864 535.584 541.449 524.897 541.023V541.023Z" fill="#EF3E72"/>
<path d="M529.713 542.42C519.974 540.476 511.019 548.13 515.031 557.215C516.595 560.755 518.598 564.275 521.023 567.722C527.701 577.216 537.324 585.802 548.856 592.554C560.388 599.307 573.391 603.971 586.467 606.045C592.355 606.979 598.158 607.371 603.75 607.228C613.14 606.988 616.779 596.297 610.99 588.901V588.901C607.629 584.607 601.982 582.966 596.542 583.328C592.817 583.576 588.898 583.387 584.909 582.754C577.579 581.592 570.29 578.977 563.825 575.192C557.361 571.406 551.966 566.593 548.222 561.271C547.357 560.041 546.587 558.793 545.915 557.537C542.328 550.824 537.177 543.91 529.713 542.42V542.42Z" fill="#FF6B97"/>
<circle cx="516.794" cy="555.834" r="4.99435" transform="rotate(11.9831 516.794 555.834)" fill="#FF9CB9"/>
<circle cx="524.491" cy="567.679" r="4.99435" transform="rotate(11.9831 524.491 567.679)" fill="#FF9CB9"/>
<circle cx="687.603" cy="586.983" r="4.99435" transform="rotate(11.9831 687.603 586.983)" fill="#A2133D"/>
<circle cx="617.587" cy="491.389" r="100.818" transform="rotate(11.9831 617.587 491.389)" fill="#053F97" stroke="#031F48" stroke-width="10"/>
<circle cx="609.039" cy="479.045" r="78.661" transform="rotate(11.9831 609.039 479.045)" fill="#145FCF"/>
<path d="M696.584 463.482C693.971 475.793 681.873 483.654 669.563 481.042C657.252 478.429 649.391 466.331 652.004 454.02C654.617 441.71 666.714 433.848 679.025 436.461C691.335 439.074 699.197 451.172 696.584 463.482Z" fill="#EDF4FF"/>
<circle cx="658.336" cy="503.868" r="14.0466" transform="rotate(11.9831 658.336 503.868)" fill="#EDF4FF"/>
<path d="M610.521 527.48C612.246 558.463 606.949 577.7 593.351 578.457C579.753 579.214 537.652 543.859 535.927 512.876C534.202 481.893 538.111 448.978 551.71 448.22C565.308 447.463 608.796 496.497 610.521 527.48Z" fill="#2D2D2D" fill-opacity="0.47"/>
</svg>
