<svg width="1204" height="842" viewBox="0 0 1204 842" fill="none" xmlns="http://www.w3.org/2000/svg">
<path d="M382.103 624.852C385.152 623.937 388.503 622.945 391.599 622.429C393.824 622.058 395.846 620.921 398.085 620.789C399.122 620.728 400.277 620.383 401.336 620.232C403.312 619.95 405.29 619.386 407.295 619.164C410.979 618.754 414.488 616.928 418.16 616.395C423.793 615.577 428.951 613.294 434.503 612.061C437.812 611.325 441.363 611.374 444.706 610.767C447.482 610.262 450.236 609.508 453.013 609.412C457.906 609.243 462.611 608.25 467.158 606.703C469.385 605.946 471.882 605.268 474.186 604.807C476.462 604.352 478.367 603.404 480.702 603.182C481.993 603.059 483.449 602.12 484.765 601.828C485.83 601.591 486.774 601.384 487.85 601.271C488.703 601.181 489.421 600.78 490.394 600.744C491.665 600.697 492.937 600.221 494.246 600.202C495.533 600.184 496.912 600.087 498.189 599.916C499.301 599.768 500.188 599.02 501.289 598.863C501.924 598.772 502.637 598.728 503.245 598.517C504.037 598.243 505.24 598.201 505.894 597.764" stroke="#E8CE99" stroke-width="10" stroke-linecap="round" stroke-linejoin="round"/>
<path d="M504.436 575.406C505.8 577.19 507.665 579.366 508.228 581.621C508.384 582.244 508.586 583.103 508.83 583.682C509.045 584.192 509.771 584.714 509.839 585.187C510.007 586.369 510.391 587.342 510.666 588.513C511.035 590.082 511.931 593.577 511.148 594.909C510.518 595.979 507.777 595.721 506.723 595.721C505.961 595.721 505.199 595.721 504.436 595.721C503.489 595.721 502.813 596.263 501.878 596.263C499.739 596.263 497.552 596.974 495.437 597.286C493.015 597.644 490.387 597.347 487.943 597.347C486.286 597.347 485.154 598.19 483.579 598.415C481.721 598.681 480.022 598.636 478.221 599.303C476.93 599.781 475.566 600.036 474.188 600.326C471.259 600.943 468.142 601.435 465.189 601.741C463.341 601.932 461.587 602.455 459.772 602.734C458.687 602.901 457.63 602.687 456.551 602.975C455.319 603.303 454.212 603.171 452.97 603.697C451.607 604.273 450.201 604.469 448.786 604.811C447.929 605.018 447.129 605.459 446.288 605.684C445.229 605.966 444.482 605.669 443.489 606.165C442 606.91 440.239 607.549 438.613 607.911C437.652 608.124 436.622 608.083 435.694 608.392C435.207 608.555 433.771 608.994 434.971 608.994C437.5 608.994 440.028 608.994 442.556 608.994C446.056 608.994 449.368 608.29 452.759 607.58C453.401 607.445 457.601 605.993 455.919 606.015C453.136 606.05 450.209 606.784 447.462 607.234C444.96 607.643 442.6 607.744 440.088 607.941C437.964 608.107 435.726 608.743 433.617 609.115C432.394 609.33 431.301 609.829 430.276 610.499C428.365 611.749 427.386 613.328 424.979 613.328C421.804 613.328 418.629 613.328 415.453 613.328C414.779 613.328 414.53 613.517 413.903 613.75C412.932 614.111 411.742 613.895 410.773 614.261C407.053 615.667 403.583 616.579 399.487 616.579C395.192 616.579 391.139 617.223 387.132 618.625C385.038 619.358 382.729 619.094 380.706 619.829C379.694 620.197 378.654 620.06 377.621 620.386C375.841 620.948 374.21 621.064 372.384 621.199C370.905 621.308 369.506 622 368.035 622.207C366.542 622.417 365.072 622.625 363.596 622.929C359.663 623.739 355.819 624.972 351.873 625.849C349.991 626.267 348.589 626.642 346.997 627.685C345.903 628.401 344.08 629.852 342.708 629.852C341.92 629.852 341.133 629.852 340.345 629.852C339.406 629.852 338.83 630.468 337.983 630.8C336.492 631.383 334.802 631.832 333.423 632.621C331.379 633.789 329.192 634.797 326.771 634.983C325.547 635.078 323.172 635.542 322.287 636.353C321.267 637.287 319.585 637.55 318.615 638.52C318.319 638.816 321.095 639.062 321.595 639.062C324.809 639.062 327.887 639.342 331.075 639.077C332.088 638.992 333.071 638.742 333.935 638.249C334.974 637.655 336.131 636.791 337.305 636.624C339.513 636.308 332.836 637.692 331.075 639.062C329.186 640.531 327.08 641.74 325.236 643.335C324.337 644.113 323.192 645.613 322.618 646.646C322.345 647.137 321.891 647.658 321.474 648.016C320.997 648.425 320.944 649.304 320.376 649.746C319.604 650.347 319.068 651.107 318.344 651.793C317.236 652.842 316.072 653.655 314.958 654.652C312.984 656.419 311.113 658.207 309.736 660.461C309.44 660.946 309.007 661.287 308.743 661.815C307.853 663.596 310.511 660.846 310.76 660.581C312.884 658.318 315.323 656.201 317.321 653.839C319.129 651.703 321.3 649.16 321.805 646.315C321.912 645.712 322.677 642.165 321.986 641.77C319.323 640.249 314.956 640.958 311.843 640.958C310.543 640.958 309.221 641.944 308.036 642.463C306.11 643.305 304.764 644.639 302.633 644.961C300.725 645.249 298.337 644.465 296.539 645.156C295.801 645.44 295.123 645.839 294.387 646.104C294.094 646.21 291.772 647.203 292.581 647.188C295.23 647.138 298.086 646.331 300.677 645.849C303.172 645.384 305.716 645.236 308.201 644.75C312.692 643.873 316.579 642.255 319.969 639.182C321.924 637.41 322.5 635.516 323.19 633.102C323.531 631.907 323.201 631.104 322.407 630.394C321.064 629.191 317.938 629.852 316.267 629.852C314.331 629.852 312.436 630.394 310.504 630.394C309.631 630.394 308.911 630.462 308.081 630.785C305.68 631.718 302.212 631.206 299.684 631.206C297.198 631.206 294.793 631.333 292.34 631.477C291.914 631.502 295.497 633.296 296.012 633.479C299.286 634.637 302.416 635.269 305.869 635.269C309.718 635.269 313.138 635.018 316.779 633.584C318.336 632.971 319.798 632.341 321.309 631.628C322.35 631.136 323.239 630.439 324.243 629.972C325.481 629.397 327.825 627.983 327.825 626.451C327.825 623.004 326.771 620.737 326.771 617.271C326.771 614.587 325.236 608.698 325.236 606.015M328.637 620.311C328.637 622.799 327.951 625.247 331.075 625.247C333.508 625.247 335.582 624.498 337.787 623.682C338.867 623.282 339.962 623.08 341.113 623.08C342.136 623.08 342.988 622.538 343.942 622.538C349.513 622.538 354.891 620.908 360.285 619.829C362.655 619.355 364.867 618.466 367.313 618.189C369.241 617.971 370.879 617.192 372.73 616.79C374.464 616.413 376.29 616.567 378.057 616.368C382.847 615.83 387.9 615.625 392.579 614.517C394.701 614.015 396.807 613.365 398.945 612.937C400.144 612.697 401.366 612.505 402.557 612.23C403.195 612.082 403.687 611.614 404.332 611.492C416.406 609.214 428.764 608.337 440.825 605.924C452.229 603.644 463.423 600.287 474.64 597.211C481.832 595.239 489.07 593.278 496.219 591.267C498.061 590.749 502.171 589.31 503.292 587.475C503.845 586.571 503.411 585.588 503.759 584.615C504.533 582.447 499.91 584.221 498.853 584.495C495.81 585.284 492.681 586.103 489.688 587.114C488.188 587.621 486.194 587.949 484.617 588.107C483.698 588.199 482.744 587.999 481.953 588.588C481.277 589.093 480.891 589.55 480.057 589.777C476.938 590.628 473.881 590.937 470.787 592.2C465.538 594.343 459.933 594.918 454.459 595.977C447.169 597.388 440.046 600.03 432.639 600.853C430.228 601.121 427.886 601.592 425.491 601.952C423.9 602.19 422.341 602.845 420.765 603.02C418.627 603.258 416.813 604.886 414.565 604.931C413.168 604.959 411.974 605.366 410.608 605.503C408.63 605.701 406.565 605.94 404.633 606.406C401.886 607.069 399.239 607.9 396.507 608.573C393.928 609.208 391.037 609.757 388.621 610.83C387.601 611.284 386.617 611.058 385.552 611.176C384.297 611.316 383.227 612.139 381.91 612.23C378.105 612.492 374.485 614.306 370.759 614.698C369.663 614.813 368.452 615.477 367.373 615.766C365.687 616.217 364.029 616.8 362.346 617.271C360.22 617.867 358.159 618.964 355.936 619.227C354.528 619.394 353.077 619.355 351.677 619.589C350.335 619.812 349.037 620.438 347.719 620.777C345.922 621.24 344.61 622.113 342.934 622.749C340.857 623.537 330.16 627.057 332.926 630.8C334.308 632.669 338.944 632.532 340.917 632.561C344.226 632.609 347.54 632.561 350.849 632.561C353.73 632.561 356.677 632.4 359.382 631.342C360.668 630.838 361.981 630.61 363.31 630.273C363.954 630.11 364.675 629.581 365.341 629.581C367.032 629.581 368.722 627.956 370.413 627.956C371.938 627.956 373.37 627.425 374.837 627.158C376.637 626.831 378.625 626.372 380.375 625.789" stroke="#E8CE99" stroke-width="10" stroke-linecap="round" stroke-linejoin="round"/>
<path d="M501.331 573.406C494.866 574.941 488.85 577.627 482.554 579.711C477.015 581.977 340.763 614.54 334.915 615.822C332.905 616.263 330.618 617.18 329.581 614.878C328.644 612.794 328.859 598.83 324.831 599.406C320.687 599.998 321.831 607.906 321.831 614.183C321.831 616.087 321.887 618.003 321.831 619.906C321.764 622.212 311.226 622.922 309.276 623.406C305.397 624.368 301.499 625.092 297.637 626.128C251.874 638.406 311.331 637.128 310.248 634.406C314.235 634.406 309.027 636.052 307.387 637.128C301.331 639.906 253.831 661.072 315.054 647.517C279.331 700.906 340.354 641.672 343.331 637.128C359.581 634.7 495.191 606.031 511.331 602.933" stroke="#031F48" stroke-width="5" stroke-linecap="round" stroke-linejoin="round"/>
<path d="M955.348 569.215C952.178 568.93 948.696 568.63 945.56 568.745C943.305 568.828 941.097 568.118 938.877 568.438C937.849 568.586 936.648 568.48 935.58 568.544C933.588 568.664 931.536 568.509 929.528 568.692C925.836 569.03 922.033 567.944 918.328 568.158C912.646 568.486 907.134 567.283 901.448 567.188C898.059 567.131 894.59 567.89 891.193 567.965C888.372 568.027 885.523 567.841 882.783 568.304C877.956 569.119 873.147 569.089 868.382 568.485C866.048 568.19 863.466 568.026 861.116 568.037C858.795 568.047 856.739 567.5 854.407 567.751C853.118 567.889 851.503 567.261 850.155 567.238C849.064 567.22 848.098 567.207 847.021 567.311C846.167 567.394 845.384 567.145 844.423 567.305C843.168 567.514 841.827 567.303 840.541 567.547C839.276 567.786 837.906 567.968 836.621 568.057C835.501 568.135 834.482 567.58 833.372 567.646C832.731 567.685 832.025 567.784 831.386 567.699C830.555 567.59 829.369 567.789 828.641 567.493" stroke="#E8CE99" stroke-width="10" stroke-linecap="round" stroke-linejoin="round"/>
<path d="M825.587 545.296C824.608 547.318 823.217 549.823 823.117 552.145C823.089 552.787 823.064 553.669 822.941 554.286C822.833 554.827 822.226 555.485 822.255 555.962C822.326 557.154 822.146 558.184 822.11 559.386C822.063 560.998 821.887 564.601 822.921 565.749C823.752 566.671 826.386 565.869 827.418 565.658C828.165 565.505 828.912 565.352 829.659 565.199C830.587 565.01 831.358 565.405 832.274 565.217C834.37 564.788 836.655 565.047 838.789 564.929C841.233 564.793 843.749 563.975 846.144 563.485C847.766 563.153 849.045 563.752 850.633 563.657C852.507 563.545 854.162 563.161 856.06 563.453C857.42 563.663 858.808 563.639 860.216 563.647C863.209 563.664 866.362 563.522 869.316 563.229C871.165 563.046 872.989 563.206 874.823 563.116C875.919 563.062 876.911 562.641 878.026 562.706C879.299 562.781 880.357 562.43 881.68 562.696C883.13 562.987 884.546 562.897 886.002 562.948C886.883 562.979 887.755 563.251 888.624 563.303C889.718 563.367 890.39 562.926 891.463 563.213C893.071 563.644 894.924 563.918 896.589 563.946C897.574 563.963 898.575 563.715 899.546 563.833C900.056 563.894 901.551 564.037 900.375 564.277C897.898 564.784 895.421 565.291 892.944 565.798C889.515 566.5 886.129 566.473 882.664 566.457C882.008 566.454 877.603 565.874 879.255 565.558C881.989 565.034 885.003 565.167 887.785 565.056C890.317 564.956 892.65 564.582 895.151 564.271C897.265 564.009 899.585 564.182 901.726 564.124C902.967 564.09 904.138 564.359 905.276 564.811C907.399 565.652 908.675 567.003 911.033 566.52C914.144 565.884 917.254 565.247 920.365 564.611C921.026 564.476 921.308 564.61 921.968 564.713C922.992 564.872 924.115 564.422 925.137 564.587C929.064 565.218 932.646 565.416 936.659 564.594C940.867 563.734 944.967 563.552 949.174 564.123C951.372 564.421 953.581 563.699 955.711 564.014C956.776 564.172 957.767 563.829 958.845 563.941C960.701 564.135 962.322 563.921 964.138 563.687C965.609 563.498 967.118 563.895 968.601 563.803C970.106 563.71 971.587 563.619 973.095 563.621C977.11 563.626 981.123 564.063 985.165 564.131C987.092 564.164 988.541 564.25 990.31 564.952C991.525 565.435 993.602 566.491 994.946 566.216C995.718 566.058 996.489 565.9 997.261 565.742C998.181 565.554 998.869 566.042 999.766 566.197C1001.34 566.47 1003.09 566.571 1004.6 567.067C1006.83 567.802 1009.18 568.351 1011.59 568.048C1012.81 567.895 1015.23 567.874 1016.26 568.491C1017.44 569.202 1019.14 569.122 1020.29 569.878C1020.64 570.109 1017.97 570.906 1017.48 571.006C1014.33 571.65 1011.37 572.542 1008.19 572.921C1007.18 573.042 1006.17 572.994 1005.22 572.684C1004.09 572.31 1002.78 571.696 1001.6 571.767C999.371 571.901 1006.19 571.918 1008.19 572.907C1010.34 573.968 1012.64 574.73 1014.77 575.923C1015.8 576.505 1017.23 577.745 1018 578.642C1018.36 579.068 1018.91 579.487 1019.39 579.754C1019.94 580.06 1020.17 580.91 1020.81 581.229C1021.69 581.663 1022.37 582.301 1023.21 582.827C1024.51 583.633 1025.81 584.196 1027.1 584.95C1029.39 586.285 1031.58 587.662 1033.38 589.594C1033.77 590.009 1034.26 590.257 1034.63 590.721C1035.86 592.288 1032.7 590.126 1032.41 589.917C1029.87 588.125 1027.06 586.54 1024.63 584.627C1022.43 582.896 1019.79 580.84 1018.72 578.154C1018.5 577.586 1017.04 574.264 1017.64 573.738C1019.94 571.714 1024.36 571.533 1027.41 570.909C1028.68 570.648 1030.18 571.349 1031.44 571.62C1033.5 572.059 1035.08 573.096 1037.24 572.984C1039.16 572.884 1041.35 571.637 1043.25 571.954C1044.03 572.084 1044.77 572.339 1045.54 572.452C1045.85 572.496 1048.33 573.004 1047.53 573.151C1044.93 573.633 1041.97 573.415 1039.33 573.462C1036.79 573.507 1034.27 573.872 1031.74 573.894C1027.16 573.935 1023.03 573.129 1019.09 570.798C1016.82 569.454 1015.88 567.714 1014.72 565.488C1014.15 564.385 1014.31 563.532 1014.94 562.677C1016.02 561.23 1019.21 561.25 1020.85 560.915C1022.75 560.527 1024.71 560.678 1026.61 560.291C1027.46 560.116 1028.18 560.038 1029.06 560.188C1031.6 560.622 1034.89 559.425 1037.37 558.918C1039.8 558.419 1042.19 558.061 1044.62 557.711C1045.04 557.65 1041.89 560.126 1041.42 560.408C1038.45 562.199 1035.51 563.446 1032.12 564.138C1028.35 564.91 1024.95 565.349 1021.1 564.674C1019.45 564.385 1017.89 564.062 1016.27 563.666C1015.15 563.393 1014.14 562.888 1013.06 562.632C1011.73 562.316 1009.15 561.401 1008.85 559.9C1008.15 556.524 1008.73 554.091 1008.04 550.696C1007.5 548.066 1007.82 541.989 1007.28 539.36M1006.82 554.048C1007.32 556.485 1008.48 558.746 1005.42 559.372C1003.04 559.86 1000.85 559.543 998.53 559.185C997.392 559.009 996.278 559.031 995.151 559.262C994.149 559.467 993.205 559.107 992.271 559.298C986.813 560.415 981.217 559.896 975.717 559.92C973.3 559.931 970.955 559.503 968.503 559.722C966.57 559.895 964.809 559.46 962.915 559.437C961.141 559.415 959.383 559.932 957.611 560.092C952.811 560.525 947.819 561.338 943.013 561.19C940.834 561.123 938.64 560.908 936.46 560.918C935.237 560.923 934.002 560.98 932.78 560.949C932.125 560.933 931.549 560.573 930.892 560.583C918.607 560.771 906.324 562.389 894.024 562.443C882.395 562.495 870.755 561.45 859.149 560.686C851.708 560.196 844.224 559.725 836.816 559.188C834.908 559.05 830.593 558.464 829.126 556.891C828.404 556.116 828.632 555.067 828.096 554.183C826.903 552.214 831.788 553.025 832.878 553.082C836.018 553.245 839.248 553.419 842.382 553.81C843.954 554.006 845.973 553.928 847.549 553.766C848.468 553.672 849.363 553.285 850.256 553.704C851.019 554.062 851.489 554.433 852.352 554.489C855.578 554.697 858.635 554.387 861.919 555.004C867.492 556.051 873.097 555.491 878.673 555.431C886.098 555.352 893.606 556.512 901.028 555.834C903.443 555.613 905.832 555.605 908.251 555.477C909.857 555.392 911.516 555.721 913.094 555.577C915.237 555.381 917.34 556.613 919.552 556.206C920.926 555.953 922.178 556.113 923.544 555.973C925.521 555.77 927.592 555.59 929.578 555.66C932.402 555.759 935.162 556.042 937.974 556.154C940.628 556.259 943.57 556.217 946.152 556.784C947.242 557.024 948.161 556.606 949.229 556.508C950.486 556.393 951.699 556.985 953.008 556.81C956.788 556.304 960.698 557.355 964.427 556.993C965.524 556.886 966.843 557.294 967.958 557.361C969.701 557.465 971.441 557.703 973.184 557.827C975.387 557.984 977.626 558.647 979.857 558.459C981.269 558.34 982.684 558.011 984.102 557.959C985.461 557.909 986.858 558.262 988.218 558.33C990.071 558.423 991.531 559.015 993.301 559.302C995.494 559.658 1006.68 560.962 1004.72 565.184C1003.74 567.292 999.171 568.087 997.244 568.511C994.012 569.221 990.755 569.838 987.513 570.502C984.691 571.079 981.772 571.513 978.909 571.018C977.548 570.783 976.217 570.822 974.847 570.758C974.183 570.727 973.371 570.354 972.718 570.488C971.061 570.827 969.08 569.573 967.424 569.912C965.929 570.218 964.42 569.985 962.93 570.017C961.101 570.058 959.061 570.007 957.23 569.786" stroke="#E8CE99" stroke-width="10" stroke-linecap="round" stroke-linejoin="round"/>
<path d="M828.227 542.714C834.869 542.923 841.302 544.347 847.888 545.127C853.768 546.237 993.782 550.825 999.769 550.909C1001.83 550.937 1004.25 551.378 1004.8 548.914C1005.31 546.685 1002.3 533.048 1006.36 532.804C1010.54 532.553 1011 540.53 1012.26 546.68C1012.64 548.545 1012.97 550.434 1013.41 552.286C1013.93 554.532 1024.4 553.115 1026.41 553.198C1030.4 553.364 1034.36 553.291 1038.36 553.532C1085.65 556.387 1027.14 567.054 1027.66 564.17C1023.75 564.969 1029.19 565.538 1031.01 566.263C1037.5 567.771 1088.28 578.986 1025.58 577.978C1071.28 623.122 999.622 577.324 995.794 573.469C979.388 574.348 840.783 573.446 824.35 573.647" stroke="#031F48" stroke-width="5" stroke-linecap="round" stroke-linejoin="round"/>
<path d="M479.305 573.406C499.761 563.454 598.305 520.906 809.305 534.406C816.847 538.177 826.808 536.259 834.749 538.906C838.745 540.238 844.006 540.406 848.194 540.406C850.101 540.406 855.747 541.426 857.082 542.628C860.877 546.043 854.207 565.345 853.749 567.85C853.374 569.904 851.547 592.836 849.749 593.35C847.936 593.868 845.227 591.75 843.527 591.183C839.237 590.81 786.871 583.775 787.305 589.628C809.305 649.406 811.749 700.906 814.527 768.406C815.348 771.897 812.836 768.536 811.749 767.35C807.784 763.024 800.255 761.586 794.527 763.85C792.194 764.772 789.972 767.136 787.749 768.406C782.244 771.552 779.808 773.406 773.027 773.406C763.825 773.406 753.905 775.716 748.305 767.628C744.595 762.269 742.443 761.228 735.86 761.406C727.398 761.634 716.865 767.61 709.249 771.017C700.251 775.042 694.059 780.406 683.805 780.406C679.409 780.406 675.075 780.732 671.749 777.406C666.292 771.948 663.849 770.384 655.527 769.628C651.087 769.224 650.933 770.635 647.138 772.406C635.552 777.813 623.67 787.406 610.416 787.406C607.666 787.406 597.658 789.101 595.527 787.183C594.713 785.458 610.416 701.906 556.083 626.406C553.773 626.495 549.756 629.05 547.916 630.406C535.339 639.673 519.921 646.196 503.305 644.35C483.805 630.406 471.407 588.978 472.36 578.961C472.71 575.291 476.496 574.772 479.305 573.406Z" fill="black" stroke="black" stroke-linecap="round" stroke-linejoin="round"/>
<path d="M540.019 382.417C539.428 380.808 534.234 380.478 535.805 377.906C536.493 376.779 535.474 356.315 543.805 362.406C542.049 349.597 549.632 355.769 552.305 354.129C552.305 349.086 562.628 352.26 564.699 351.422C569.121 349.633 574.312 363.923 577.693 366.599C579.31 367.879 579.92 365.842 581.805 366.86C591.962 363.117 596.917 360.439 587.305 366.86C597.805 362.406 594.518 363.29 599.805 362.406C617.041 343.406 606.578 355.524 610.305 353.51C616.967 338.072 614.417 348.044 617.041 344.906C621.503 336.302 628.976 341.049 627.368 347.906C627.783 347.07 628.127 346.309 628.41 345.625C628.628 339.448 630.901 339.593 628.41 345.625C628.399 345.928 628.394 346.246 628.394 346.58C638.831 334.176 663.229 329.182 654.805 338.406C659.24 337.664 656.89 341.644 661.305 340.906C666.507 340.035 660.663 345.873 665.603 347.906C668.589 349.134 668.319 361.467 665.603 361.467C665.282 364.008 663.42 373.02 666.574 366.599C660.282 379.406 697.305 342.43 697.305 354.129C701.99 350.102 700.228 350.503 705.735 347.906C713.156 344.406 724.017 341.922 731.305 338.406C739.371 334.514 765.717 318.314 786.805 332.906C792.042 330.748 815.28 342.814 804.805 347.906C804.805 347.906 811.805 347.906 811.805 361.467C814.344 367.296 808.366 376.363 804.805 382.058C802.4 385.903 790.138 396.839 786.805 399.906C783.665 402.794 772.14 409.193 768.305 411.365C761.212 415.383 735.28 423.791 727.805 427.029C722.725 429.229 740.214 410.438 734.672 411.365C729.514 412.228 725.087 413.659 720.221 415.557C717.766 416.515 715.434 417.771 713.067 418.923C710.71 420.07 701.057 434.133 698.805 435.436C692.923 438.84 688.951 438.131 681.264 434.466C676.13 432.017 673.804 426.111 668.319 427.029C666.756 427.29 664.908 427.341 663.42 427.876C668.319 434.466 665.704 438.023 663.42 438.406C660.86 438.834 653.007 431.483 650.511 430.515C647.234 429.243 643.632 429.638 640.236 430.206C637.51 430.662 635.128 431.439 632.813 432.969C636.305 439.906 643.305 452.406 632.813 444.906C631.305 446.406 628.223 441.886 627.368 442.406C625.417 443.592 624.564 436.216 622.439 435.436C606.601 442.906 610.097 447.266 605.305 444.906C598.594 441.6 595.397 421.552 587.305 422.906C583.485 423.545 568.707 433.239 565.728 430.206C564.555 429.012 570.972 416.345 570.659 414.471C570.347 412.606 573.351 411.576 573.377 409.679C573.406 407.655 573.842 406.227 573.483 404.085C572.912 400.671 572.273 397.617 570.802 394.451C569.485 391.617 567.048 387.182 564.699 385.079C563.494 383.999 559.881 381.89 558.144 382.092C554.28 382.541 550.099 381.41 546.225 382.058C545.134 382.241 541.724 381.78 540.019 382.417Z" fill="#FFE4AD"/>
<path d="M535.131 386.956C542.401 382.619 558.594 382.329 566.305 386.956C573.411 391.22 567.257 435.069 591.172 427.52C598.509 408.668 621.907 432.258 621.477 445.511C621.477 445.511 631.725 437.559 634.545 435.749C661.576 421.566 680.255 426.499 684.85 426.685C688.649 426.839 690.961 428.58 695.058 428.104C706.71 426.748 717.464 423.733 728.494 420.228C731.148 419.385 733.521 417.939 736.114 416.954C838.109 370.741 788.236 348.52 783.816 347.379C781.951 346.898 781.02 346.049 778.746 346.2C777.42 346.288 774.96 345.603 773.585 345.317C772.616 345.115 771.828 345.245 770.936 344.972" stroke="#E8CE99" stroke-width="15" stroke-linecap="round" stroke-linejoin="round"/>
<path d="M499.597 347.275C503.36 340.663 502.756 333.45 505.767 326.584C506.722 324.409 508.27 323.55 509.527 321.787C511.123 319.551 513.481 317.135 515.414 315.226C517.314 313.351 518.281 310.59 520.708 309.158C521.987 308.403 522.832 306.967 524.131 306.051C526.117 304.651 528.255 303.286 530.038 301.627C531.967 299.831 533.598 297.92 536.026 296.682C538.266 295.539 539.303 293.354 541.119 291.774C543.858 289.391 546.668 287.063 549.902 285.348C554.433 282.945 558.641 279.935 562.921 277.143C568.219 273.685 574.259 271.822 579.698 268.675C584.342 265.988 589.281 263.51 594.179 261.296C599.255 259.001 604.566 257.976 609.441 255.391C616.504 251.646 624.683 250.332 631.968 246.947C642.582 242.016 655.372 232.38 666.579 228.912C673.636 226.729 678.581 230.136 685.898 228.912C683.533 226.747 700.467 225.072 701.871 226.747C703.264 228.41 706.032 229.888 707.819 231.328C708.667 232.011 708.75 233.236 709.41 234.104C710.111 235.025 710.981 235.078 711.193 236.34C711.535 238.388 715.147 247.297 713.009 248.71C711.795 249.512 709.583 253.052 709.172 254.394C708.496 256.594 705.495 258.917 703.809 260.388C701.174 262.688 698.216 264.853 695.882 267.545C694.731 268.87 692.414 270.319 691.61 271.808C691.237 272.499 693.614 272.936 693.963 273.414C695.035 274.887 693.589 278.827 695.546 278.5L704.203 277.052C708.255 276.374 717.159 271.75 721.267 271.808C727.731 271.899 741.231 278.1 731.651 287.415C728.953 290.037 710.698 305.133 715.502 308.226C717.545 309.541 731.651 309.158 721.267 311.711C722.755 312.911 724.277 315.119 726.019 315.873C727.776 316.634 720.904 320.022 721.267 321.787C721.749 324.13 728.467 324.194 726.207 324.572C721.077 325.431 715.932 325.79 710.795 324.87C708.951 324.539 707.396 324.678 705.493 324.996C703.265 325.369 700.692 323.534 698.423 323.644C696.24 323.75 693.817 323.784 691.436 324.306C688.356 324.981 687.458 328.84 685.55 330.867C684.57 331.908 684.747 333.588 683.533 334.641C682.776 335.298 681.846 335.836 681.206 336.551C678.999 339.015 675.826 334.334 674.883 332.933C672.439 329.302 668.01 324.439 663.434 323.921C657.534 323.255 651.149 323.214 645.213 324.435C643.179 324.853 641.013 327.495 639.471 328.831C637.916 330.179 636.79 332.041 635.291 333.474C631.836 336.777 628.285 338.185 623.92 334.362C621.334 332.097 613.181 331.795 610.481 334.329C606.756 337.825 612.311 342.842 607.88 345.382C607.28 346.465 606.283 347.959 605.288 348.745C603.088 350.483 601.77 353.489 599.538 355.114C594.83 358.543 589.638 358.374 584.187 358.978C583.324 359.073 581.904 358.004 581.483 357.29C580.948 356.382 579.883 355.777 579.651 355.655C579.594 355.625 579.587 355.624 579.651 355.655C579.662 355.66 579.676 355.667 579.692 355.674C582.059 356.795 585.568 354.897 587.326 353.496C585.294 353.372 586.421 348.26 584.386 348.045C582.942 347.893 581.395 347.538 580.043 346.997C574.429 344.756 568.085 344.522 562.577 341.921C560.484 340.933 555.727 340.926 553.352 341.324C551.037 341.711 548.918 342.727 547.042 344.182C542.382 347.797 537.517 351.973 534.236 357.195C531.658 361.3 534.075 366.899 530.038 369.906C528.506 371.046 521.307 371.896 519.715 372.918C519.186 373.257 517.315 374.705 517.068 375.276C516.378 376.87 513.659 379.857 512.34 381.024C510.869 382.326 513.43 381.709 514.048 381.47C516.035 380.706 517.744 379.522 519.49 378.307C520.9 377.325 522.299 376.936 524.028 376.646C526.913 376.164 522.665 384.588 522.054 385.799L522.043 385.822C520.644 388.596 518.116 392.804 517.87 395.899C517.796 396.842 515.621 403.4 517.797 403.036C519.833 402.696 522.046 397.989 524.131 397.64C526.89 397.178 528.989 400.419 531.687 399.699C532.916 399.371 533.637 398.359 534.974 398.135L537.933 397.64C539.842 397.321 541.469 398.374 543.112 398.294C543.995 398.251 545.479 398.931 546.227 399.407C547.141 399.989 548.679 399.935 549.812 400.469C552.545 401.754 557.799 404.269 558.375 407.711C558.77 410.075 560.689 415.292 559.737 417.537C558.685 420.018 557.562 422.475 556.499 424.951C555.426 427.45 553.329 430.69 550.699 431.526C546.131 432.977 547.801 438.442 548.436 442.24C548.866 444.813 548.971 446.338 551.157 447.897C554.475 450.264 555.023 447.801 557.032 445.14C558.425 443.295 561.612 443.359 563.771 442.998C566.21 442.59 566.554 440.38 568.61 439.26C570.14 438.425 573.199 438.824 574.802 439.238C576.857 439.768 579.437 438.857 581.524 438.507C585.528 437.838 588.856 439.483 591.386 442.744C592.035 443.582 592.61 445.026 593.369 445.679C593.516 445.805 593.628 445.941 593.711 446.069C593.667 445.89 593.619 445.659 593.57 445.364C593.192 443.103 592.591 441.291 591.078 439.556C589.946 438.259 591.198 438.424 592.328 438.615C594.26 438.942 594.733 441.756 595.637 443.244C596.78 445.122 596.285 448.177 596.409 450.212C596.714 455.21 589.387 463.232 585.522 465.439C582.676 467.064 580.133 469.098 577.338 470.892C570.634 475.195 566.779 482.472 565.143 490.253C564.539 493.123 565.304 492.908 567.902 491.425C571.24 489.519 574.675 487.785 578.055 485.952C582.006 483.81 585.338 480.453 588.845 477.726C592.102 475.193 595.353 471.948 598.137 468.961C600.176 466.775 603.121 464.666 604.919 462.363C606.285 460.615 608.172 459.413 609.876 457.985C611.181 456.891 609.441 445.364 614.495 453.776C616.283 453.477 618.931 451.516 620.669 452.969C621.837 453.946 623.746 455.258 625.041 456.04C627.977 457.811 633.79 457.93 636.836 455.503C638.509 454.169 639.956 452.647 641.72 451.362C643.35 450.175 648.44 443.872 650.185 442.998C654.292 440.941 656.935 445.205 661.244 446.857C663.573 447.749 663.751 449.696 666.579 449.118C669.648 448.492 669.043 441.131 671.305 439.556C672.586 438.664 677.769 442.618 679.371 442.416C681.648 442.128 683.775 444.648 685.629 445.65C687.73 446.785 693.948 440.574 698.407 444.061C701.509 441.781 707.841 440.584 710.795 441.372C714.568 442.38 713.192 444.22 716.36 442.311C723.834 437.808 734.527 434.38 742.305 431.052C747.843 428.682 752.456 433.231 758.413 432.234C762.997 431.467 767.131 430.269 771.646 429.513C773.879 429.14 776.461 429.087 778.572 428.326C781.978 427.1 777.304 433.559 777.147 434.282C776.766 436.029 775.486 438.098 774.656 439.261C773.813 440.444 783.901 439.63 785.598 439.346C791.436 438.369 796.708 440.376 802.272 441.372C807.225 442.26 814.681 439.788 815.843 446.734C816.254 449.193 823.876 453.473 824.305 456.039C824.785 458.909 818.413 462.363 816.052 460.105C812.408 464.932 807.002 469.421 801.267 470.38C808.144 469.23 806.117 481.3 806.114 481.511C807.254 480.764 808.265 476.629 809.225 475.696C812.069 472.931 811.077 478.851 811.42 480.905C812.187 485.485 820.614 487.297 821.305 491.425C822.346 497.648 805.008 500.595 809.331 507.137C810.535 508.959 813.99 508.869 815.233 510.43C815.779 511.115 816.007 512.698 817.235 512.63C818.048 520.521 809.271 522.343 806.724 523.035C804.913 523.527 803.12 524.833 801.5 523.289C801.603 535.016 791.485 530.829 791.158 532.173C785.852 540.186 781.365 536.229 776.823 538.909C775.952 539.422 774.953 539.475 773.96 539.641C771.106 540.118 768.458 541.386 765.636 542.076C755.016 544.671 742.43 553.236 731.651 555.04C714.477 557.913 698.748 554.758 681.524 557.64L663.99 560.573C671.305 564.444 663.781 565.797 661.244 565.447C659.149 565.158 649.805 570.406 650.185 560.883C649.987 565.856 644.1 564.672 639.471 565.447C633.488 565.589 631.698 564.567 625.77 565.447C621.983 566.008 618.09 565.211 614.235 565.856C606.831 567.094 600.907 568.731 593.57 568.906C591.24 568.961 587.634 563.21 585.326 563.088C584.187 568.906 577.338 565.856 578.64 562.178C567.902 568.906 566.426 565.641 565.143 565.856C558.491 566.968 559.743 561.588 553.367 559.591C559.737 565.856 545.271 561.069 543.199 559.591C542.418 559.034 544.137 555.498 543.199 555.04C541.138 554.033 538.068 553.718 536.493 551.993C535.873 551.314 534.525 550.293 533.633 550.05C532.086 549.627 531.693 548.21 530.636 547.284C522.043 547.284 526.225 536.474 519.715 538.909C529.649 531.739 519.815 535.352 517.557 532.067C515.735 529.418 513.799 526.566 511.748 524.111C510.348 522.435 508.452 521.346 507.132 519.588C505.994 518.072 500.964 518.164 499.597 516.906C498.435 515.836 504.377 513.831 504.475 512.964C504.649 511.427 503.923 509.493 503.668 507.973C503.242 505.423 503.056 502.431 501.736 500.128C500.864 498.606 500.801 503.061 500.77 503.444C500.637 505.123 500.414 506.861 500.098 508.514C499.102 513.72 495.684 510.899 494.909 507.129C494.219 503.774 490.355 503.063 488.447 500.128C487.293 498.352 487.974 492.114 486.56 490.557C484.6 488.397 484.137 485.446 482.756 482.969C478.762 475.808 479.467 467.001 476.084 459.752C474.965 457.356 474.902 454.205 474.467 451.602C473.829 447.793 475.146 444.416 474.647 440.559C474.267 437.619 471.904 432.67 471.376 429.513C471.052 427.58 473.094 425.978 473.532 424.129C474.135 421.585 472.891 419.362 473.701 416.722C474.276 414.848 473.278 411.83 474.181 410.333C475.333 408.424 473.241 409.92 473.701 407.711C474.149 405.559 478.161 398.565 478.018 396.398C477.864 394.072 477.652 391.854 477.265 389.539C477.161 388.921 473.008 392.184 471.376 393.564C469.798 393.585 469.291 384.368 467.699 384.042C466.671 383.833 465.555 384.193 465.141 383.062C464.779 382.073 464.687 379.984 463.23 380.227C462.609 380.331 458.871 381.435 458.372 380.815C456.713 378.756 456.492 375.885 455.07 373.707C454.138 372.279 453.187 375.808 452.078 372.489C451.042 369.387 450.103 373.283 448.577 373.948C449.017 374.418 452.355 382.166 451.486 381.573C449.484 380.205 447.604 378.393 445.519 377.22C442.98 375.792 440.643 377.001 438.272 375.276C435.844 373.51 433.906 368.483 431.621 366.533C427.061 362.643 425.014 357.026 423.743 351.263C423.016 347.965 421.683 342.651 424.366 339.837C426.033 338.088 427.578 336.004 429.994 335.6C431.508 335.347 433.496 334.561 434.789 335.643C436.517 337.087 437.833 339.08 438.272 341.312C439.684 348.486 443.304 353.75 447.517 359.537C448.589 361.008 446.631 352.05 446.256 349.806C448.702 354.886 451.55 365.182 458.272 366.581C461.937 367.343 470.99 365.652 471.941 361.421C472.956 356.906 469.347 338.834 470.079 334.47C471.043 336.359 475.453 340.694 476.482 342.44C477.747 344.583 479.355 349.863 481.816 350.25C482.753 350.397 483.099 351.39 484.059 351.367C485.505 351.333 487.029 355.351 488.447 355.114C490.602 354.754 498.352 358.017 499.597 347.275Z" fill="#145FCF"/>
<path d="M473.202 392.191C473.094 392.308 470.785 394.539 470.819 394.11C469.83 394.756 477.127 388.718 477.265 389.539C477.652 391.854 477.864 394.072 478.018 396.398C478.161 398.565 474.149 405.559 473.701 407.711C473.241 409.92 475.333 408.424 474.181 410.333C473.278 411.83 474.276 414.848 473.701 416.722C472.891 419.362 474.135 421.585 473.532 424.129C473.094 425.978 471.052 427.58 471.376 429.513C471.904 432.67 474.267 437.619 474.647 440.559C475.146 444.416 473.829 447.793 474.467 451.602C474.902 454.205 474.965 457.356 476.084 459.752C479.467 467.001 478.762 475.808 482.756 482.969C484.137 485.446 484.6 488.397 486.56 490.557C487.974 492.114 487.293 498.352 488.447 500.128C490.355 503.063 494.219 503.774 494.909 507.129C495.684 510.899 499.102 513.72 500.098 508.514C500.414 506.861 500.637 505.123 500.77 503.444C500.801 503.061 500.864 498.606 501.736 500.128C503.056 502.431 503.242 505.423 503.668 507.973C503.923 509.493 504.649 511.427 504.475 512.964C504.377 513.831 498.435 515.836 499.597 516.906C500.964 518.164 505.994 518.073 507.132 519.588C508.452 521.346 510.348 522.435 511.748 524.111C513.799 526.566 515.735 529.418 517.557 532.067C519.815 535.352 529.649 531.739 519.715 538.909C526.225 536.474 522.043 547.284 530.636 547.284C531.693 548.21 532.086 549.627 533.633 550.05C534.525 550.293 535.873 551.314 536.493 551.993C538.068 553.718 541.138 554.033 543.199 555.04C544.137 555.498 542.418 559.034 543.199 559.591C545.271 561.069 559.737 565.856 553.367 559.591C559.743 561.588 558.491 566.968 565.143 565.856C566.426 565.641 567.902 568.906 578.64 562.178C577.338 565.856 584.187 568.906 585.326 563.088C587.634 563.21 591.24 568.961 593.57 568.906C600.907 568.731 606.831 567.094 614.235 565.856C618.09 565.211 621.983 566.008 625.77 565.447C631.698 564.567 633.488 565.589 639.471 565.447C644.1 564.672 649.986 565.856 650.185 560.883C649.805 570.406 659.149 565.158 661.244 565.447C663.781 565.797 671.305 564.444 663.99 560.573C669.834 559.596 675.679 558.618 681.524 557.64C698.748 554.758 714.477 557.913 731.651 555.04C742.43 553.236 755.016 544.671 765.636 542.076C768.458 541.386 771.106 540.118 773.96 539.641C774.953 539.475 775.952 539.422 776.823 538.909C781.365 536.229 785.852 540.186 791.158 532.173C791.485 530.829 801.603 535.016 801.5 523.289C803.12 524.833 804.913 523.527 806.724 523.035C809.271 522.343 818.048 520.521 817.235 512.63C816.007 512.698 815.779 511.115 815.233 510.43C813.99 508.869 810.535 508.959 809.331 507.137C805.008 500.595 822.346 497.648 821.305 491.425C820.614 487.297 812.187 485.485 811.42 480.905C811.077 478.851 812.069 472.931 809.225 475.696C808.265 476.629 807.254 480.764 806.114 481.511C806.117 481.3 808.144 469.23 801.267 470.38C807.002 469.421 812.408 464.932 816.052 460.105C818.413 462.363 824.785 458.909 824.305 456.039C823.876 453.473 816.254 449.193 815.843 446.734C814.681 439.788 807.225 442.26 802.272 441.372C796.708 440.376 791.436 438.369 785.598 439.346C783.901 439.63 773.813 440.444 774.656 439.261C775.486 438.098 776.766 436.029 777.147 434.282C777.304 433.559 781.978 427.1 778.572 428.326C776.461 429.087 773.879 429.14 771.646 429.513C767.131 430.269 762.997 431.467 758.413 432.234C752.456 433.231 747.843 428.682 742.305 431.052C734.527 434.38 723.834 437.808 716.36 442.311C713.192 444.22 714.568 442.38 710.795 441.372C707.356 440.454 699.338 442.228 697.169 445.268C696.249 446.557 699.913 444.152 698.423 444.073C693.963 440.559 687.733 446.786 685.629 445.65C683.775 444.648 681.648 442.128 679.371 442.416C677.769 442.618 672.586 438.665 671.305 439.556C669.043 441.131 669.648 448.492 666.579 449.118C663.751 449.696 663.573 447.749 661.244 446.857C656.935 445.205 654.292 440.941 650.185 442.998C648.44 443.872 643.35 450.175 641.72 451.362C639.956 452.647 638.509 454.169 636.836 455.503C633.79 457.93 627.977 457.811 625.041 456.04C623.746 455.258 621.837 453.946 620.669 452.969C618.931 451.516 616.283 453.477 614.495 453.776C609.441 445.364 611.181 456.891 609.876 457.985C608.172 459.413 606.285 460.615 604.919 462.363C603.121 464.666 600.176 466.775 598.137 468.961C595.353 471.948 592.102 475.193 588.845 477.726C585.338 480.453 582.006 483.81 578.055 485.952C574.675 487.785 571.24 489.519 567.902 491.425C565.304 492.908 564.539 493.123 565.143 490.253C566.779 482.472 570.634 475.195 577.338 470.892C580.133 469.098 582.676 467.064 585.522 465.439C589.387 463.232 596.714 455.21 596.409 450.212C596.285 448.177 596.78 445.122 595.637 443.244C594.733 441.756 594.26 438.942 592.328 438.615C591.198 438.424 589.946 438.259 591.078 439.556C592.591 441.291 593.192 443.103 593.57 445.364C593.915 447.428 594.203 446.396 593.369 445.679C592.61 445.026 592.035 443.582 591.386 442.744C588.856 439.483 585.528 437.838 581.524 438.507C579.437 438.857 576.857 439.768 574.802 439.238C573.199 438.824 570.14 438.425 568.61 439.26C566.554 440.38 566.21 442.59 563.771 442.998C561.612 443.359 558.425 443.295 557.032 445.14C555.023 447.801 554.475 450.264 551.157 447.897C548.971 446.338 548.866 444.813 548.436 442.24C547.801 438.442 546.131 432.977 550.699 431.526C553.329 430.69 555.426 427.45 556.499 424.951C557.562 422.475 558.685 420.018 559.737 417.537C560.689 415.292 558.77 410.075 558.375 407.711C557.799 404.269 552.545 401.754 549.812 400.469C548.679 399.935 547.141 399.989 546.227 399.407C545.479 398.931 543.995 398.251 543.112 398.294C541.469 398.374 539.842 397.321 537.933 397.64C536.946 397.805 535.96 397.97 534.974 398.135C533.637 398.359 532.916 399.371 531.687 399.699C528.989 400.419 526.89 397.178 524.131 397.64C522.046 397.989 519.833 402.696 517.797 403.036C515.621 403.4 517.796 396.842 517.87 395.899C518.116 392.804 520.644 388.596 522.043 385.822C522.609 384.698 526.932 376.161 524.028 376.646C522.299 376.936 520.9 377.325 519.49 378.307C517.744 379.522 516.035 380.706 514.048 381.47C513.43 381.709 510.869 382.326 512.34 381.024C513.659 379.857 516.378 376.87 517.068 375.276C517.315 374.705 519.186 373.257 519.715 372.918C521.307 371.896 528.506 371.046 530.038 369.906C534.075 366.899 531.658 361.3 534.236 357.195C537.517 351.973 542.382 347.797 547.042 344.182C548.918 342.727 551.037 341.711 553.352 341.324C555.727 340.926 560.484 340.933 562.577 341.921C568.085 344.522 574.429 344.756 580.043 346.997C581.395 347.538 582.942 347.893 584.386 348.045C586.421 348.26 585.294 353.372 587.326 353.496C585.568 354.897 582.059 356.795 579.692 355.674C579.222 355.452 580.792 356.119 581.483 357.29C581.904 358.004 583.324 359.073 584.187 358.978C589.638 358.374 594.83 358.543 599.538 355.114C601.77 353.489 603.088 350.483 605.288 348.745C606.283 347.959 607.28 346.465 607.88 345.382C612.311 342.842 606.756 337.825 610.481 334.329C613.181 331.795 621.334 332.097 623.92 334.362C628.285 338.185 631.836 336.777 635.291 333.474C636.79 332.041 637.916 330.179 639.471 328.831C641.013 327.495 643.179 324.853 645.213 324.435C651.149 323.214 657.534 323.255 663.434 323.921C668.01 324.439 672.439 329.302 674.883 332.933C675.826 334.334 678.999 339.015 681.206 336.551C681.846 335.836 682.776 335.298 683.533 334.641C684.747 333.588 684.57 331.908 685.55 330.867C687.458 328.84 688.356 324.981 691.436 324.306C693.817 323.784 696.24 323.75 698.423 323.644C700.692 323.534 703.265 325.369 705.493 324.996C707.396 324.678 708.951 324.539 710.795 324.87C715.932 325.79 721.077 325.431 726.207 324.572C728.467 324.194 721.749 324.13 721.267 321.787C720.904 320.022 727.776 316.634 726.019 315.873C724.277 315.119 722.755 312.911 721.267 311.711C731.651 309.158 717.545 309.541 715.502 308.226C710.698 305.133 728.953 290.037 731.651 287.415C741.231 278.1 727.731 271.899 721.267 271.808C717.159 271.75 708.255 276.374 704.203 277.052C701.317 277.535 698.432 278.017 695.546 278.5C693.589 278.827 695.035 274.887 693.963 273.414C693.614 272.936 691.237 272.499 691.61 271.808C692.414 270.319 694.731 268.87 695.882 267.545C698.216 264.853 701.174 262.688 703.809 260.388C705.495 258.917 708.496 256.594 709.172 254.394C709.583 253.052 711.795 249.512 713.009 248.71C715.147 247.297 711.535 238.388 711.193 236.34C710.981 235.078 710.111 235.025 709.41 234.104C708.75 233.236 708.667 232.011 707.819 231.328C706.032 229.888 703.264 228.41 701.871 226.747C700.467 225.072 683.533 226.747 685.898 228.912C678.581 230.136 673.636 226.729 666.579 228.912C655.372 232.38 642.582 242.016 631.968 246.947C624.683 250.332 616.504 251.646 609.441 255.391C604.566 257.976 599.255 259.001 594.179 261.296C589.281 263.51 584.342 265.988 579.698 268.675C574.259 271.822 568.219 273.685 562.921 277.143C558.641 279.935 554.433 282.945 549.902 285.348C546.668 287.063 543.858 289.391 541.119 291.774C539.303 293.354 538.266 295.539 536.026 296.682C533.598 297.92 531.967 299.831 530.038 301.627C528.255 303.286 526.117 304.651 524.131 306.051C522.832 306.967 521.987 308.403 520.708 309.158C518.281 310.59 517.314 313.351 515.414 315.226C513.481 317.135 511.123 319.551 509.527 321.787C508.27 323.55 506.722 324.409 505.767 326.584C502.756 333.45 503.36 340.663 499.597 347.275C498.352 358.017 490.602 354.754 488.447 355.114C487.029 355.351 485.505 351.333 484.059 351.367C483.099 351.39 482.753 350.397 481.816 350.25C479.355 349.863 477.747 344.583 476.482 342.44C475.453 340.694 471.043 336.359 470.079 334.47C469.347 338.834 472.956 356.906 471.941 361.421C470.99 365.652 461.937 367.343 458.272 366.581C451.55 365.182 448.702 354.886 446.256 349.806C446.631 352.05 448.589 361.008 447.517 359.537C443.304 353.75 439.684 348.486 438.272 341.312C437.833 339.08 436.517 337.087 434.789 335.643C433.496 334.561 431.508 335.347 429.994 335.6C427.578 336.004 426.033 338.088 424.366 339.837C421.683 342.651 423.016 347.965 423.743 351.263C425.014 357.026 427.061 362.643 431.621 366.533C433.906 368.483 435.844 373.51 438.272 375.276C440.643 377.001 442.98 375.792 445.519 377.22C447.604 378.393 449.484 380.205 451.486 381.573C452.355 382.166 449.017 374.418 448.577 373.948C450.103 373.283 451.042 369.387 452.078 372.489C453.187 375.808 454.138 372.279 455.07 373.707C456.492 375.885 456.713 378.756 458.372 380.815C458.871 381.435 462.609 380.331 463.23 380.227C464.687 379.984 464.779 382.073 465.141 383.062C465.555 384.193 466.671 383.833 467.699 384.042C469.291 384.368 469.798 393.585 471.376 393.564" stroke="#145FCF" stroke-width="15" stroke-linecap="round" stroke-linejoin="round"/>
<path d="M627.805 338.331C629.67 335.797 638.805 338.906 636.722 328.897C643.268 332.649 640.572 324.704 643.268 324.253C650.13 323.105 655.768 322.973 662.462 325.351C667.472 327.131 670.853 331.977 676.413 332.649C680.222 333.11 685.362 331.653 686.406 327.57C687.162 324.611 692.456 329.412 695.531 328.897C698.61 328.382 696.533 321.186 699.445 322.178C702.853 323.338 706.92 322.989 710.461 323.545C715.666 324.364 730.419 322.331 734.805 319.468C739.226 316.583 726.816 317.612 724.932 314.759C724.241 313.715 723.142 313.29 722.145 312.578C721.041 311.791 720.776 310.236 720.042 309.1C718.955 307.419 717.518 300.779 719.195 299.159C721.445 296.986 724.329 295.272 726.777 293.3C730.526 290.279 734.065 286.858 734.805 283.021C735.59 278.95 732.41 271.766 728.783 272.119C725.592 272.429 718.006 272.585 714.805 272.119C711.43 271.627 707.659 276.713 704.249 276.65C700.036 276.572 693.826 274.712 690.592 272.119C687.801 269.882 684.17 266.859 686.406 262.906C688.106 259.901 692.102 254.904 695.531 254.169C698.322 253.571 701.067 254.531 701.972 251.218C703.102 247.08 710.461 242.906 701.206 237.208C699.921 234.034 695.818 233.843 693.436 234.242C689.812 234.848 686.041 234.763 682.335 235.057C676.712 235.502 671.114 234.934 665.489 235.875C658.914 236.975 652.339 238.075 645.764 239.175C636.757 240.682 628.545 242.757 619.984 245.854C614.717 247.759 610.188 251.253 604.727 252.631C598.426 254.221 592.453 257.75 586.456 260.25C582.529 261.887 578.531 262.988 575.17 265.687C570.365 269.546 564.449 271.349 559.403 274.802C555.259 277.638 550.931 280.412 546.64 283.021C543.305 285.049 539.488 287.002 536.442 289.402C525.724 297.847 517.132 309.518 507.9 319.468C505.754 321.782 510.261 326.732 507.9 328.897C506.48 330.2 508.674 336.555 507.9 338.331C506.035 342.616 511.572 338.486 504.305 336.098C503.933 340.781 493.305 356.505 491.422 360.697C490.467 362.823 488.708 359.509 487.762 358.183C486.521 356.443 485.225 354.534 484.27 352.627C482.884 349.861 480.844 347.46 478.836 345.059C477.247 343.16 475.059 340.682 474.274 338.331C474.209 338.138 470.12 335.892 469.924 336.098C469.398 336.649 473.278 342.653 473.227 343.519C472.979 347.749 471.576 351.366 471.517 355.521C471.482 358.021 470.2 360.642 469.924 363.167C469.737 364.865 469.328 365.013 467.742 365.278C463.484 365.99 460.677 365.308 456.881 362.814C451.644 359.374 441.938 340.622 437.692 336.098C436.451 334.775 417.028 338.331 431.415 348.619C419.528 343.519 429.477 356.562 429.805 358.521C430.52 362.795 436.477 371.468 441.306 373.249C447.484 375.528 454.101 377.549 460.613 379.398C463.788 380.299 467.421 381.467 470.146 383.351C472.871 385.236 468.998 391.782 471.517 393.906C474.653 396.55 480.431 399.378 481.049 403.073C481.402 405.177 482.18 407.615 482.054 409.748C481.898 412.384 482.183 414.777 481.931 417.43C481.7 419.85 481.203 422.17 481.606 424.581C482.579 430.394 482.566 436.382 483.549 442.253C483.905 444.381 484.261 446.508 484.617 448.636C484.737 449.359 485.476 451.423 485.066 451.997C484.868 452.275 484.158 448.817 484.059 448.335C483.516 445.694 481.927 443.419 481.246 440.779C480.38 437.423 478.732 434.673 478.153 431.214C477.513 427.388 477.362 422.887 479.749 419.541" stroke="#0F54BA" stroke-width="15" stroke-linecap="round" stroke-linejoin="round"/>
<path d="M518.458 408.502C522.531 406.976 526.342 405.148 530.273 403.371C533.562 401.885 536.755 401.386 540.455 400.767C545.743 399.882 553.546 397.185 556.842 403.095C559.896 408.57 561.421 414.085 559.483 420.396C558.42 423.857 558.42 427.827 556.955 431.211C556.014 433.385 554.882 435.607 553.758 437.689C552.58 439.869 550.394 443.135 550.009 445.582C549.96 445.892 550.429 445.108 550.689 444.933C551.577 444.336 552.759 444.371 553.73 443.918C554.765 443.435 555.946 442.339 557.03 442.098C560.602 441.306 563.68 439.465 567.413 438.84C570.411 438.339 575.764 436.302 578.673 437.463C584.095 439.628 595.699 439.453 597.805 445.582C598.52 447.665 597.805 454.826 593.407 454.826C592.861 459.312 590.693 461.294 587.933 464.529C585.343 467.564 580.618 469.501 577.297 471.659C572.788 474.59 567.557 476.718 562.487 478.418C558.301 479.822 554.28 482.1 549.877 482.837C547.623 483.214 546.666 480.657 545.97 478.675C544.921 475.692 547.307 472.621 550.391 472.105" stroke="#0F54BA" stroke-width="15" stroke-linecap="round" stroke-linejoin="round"/>
<path d="M528.854 337.311C529.043 334.299 530.183 332.518 531.69 330.021C532.595 328.521 533.658 326.422 534.82 325.16C540.293 319.214 546.179 312.347 553.432 308.64C564.327 303.073 573.596 294.727 585.086 290.277C589.449 288.587 598.964 284.728 602.484 289.563C604.759 292.686 606.302 297.98 605.026 301.727C604.645 302.848 604.412 303.822 604.156 304.942C603.81 306.458 608.204 301.961 608.419 301.807C613.669 298.035 619.559 296.044 626.075 295.727C630.713 295.501 632.861 301.443 633.474 305.107" stroke="#0F54BA" stroke-width="15" stroke-linecap="round" stroke-linejoin="round"/>
<path d="M648.523 449.604C650.796 448.692 652.739 447.551 655.267 447.491C658.101 447.423 660.274 449.789 662.251 451.363C665.54 453.981 668.009 451.202 669.319 448.153C670.662 445.025 670.662 444.38 674.138 443.798C676.486 443.405 678.384 445.103 680.742 445.228C683.582 445.378 686.014 447.961 688.677 448.717C690.968 449.367 693.231 451.687 695.57 451.873C698.429 452.1 701.182 451.441 704.008 450.968C707.862 450.323 714.159 450.549 717.332 448.119C719.071 446.787 721.396 446.119 722.947 444.645C724.228 443.428 725.923 442.005 727.576 441.336C730.371 440.205 733.217 438.583 736.195 437.979C741.895 436.822 747.271 434.9 752.824 433.676C754.518 433.303 757.897 431.582 759.417 430.658C761.989 429.094 766.356 428.396 769.206 427.894C770.302 427.701 783.869 425.557 783.859 425.752C783.754 427.726 779.294 430.389 777.83 431.802C775.801 433.762 769.936 439.455 772.151 442.807C773.528 444.889 781.306 440.011 783.118 439C785.599 437.617 790.065 437.426 792.766 437.414C796.191 437.399 798.983 437.348 802.215 438.34C805.157 439.243 806.945 441.619 809.005 443.738C810.94 445.729 812.846 447 813.342 449.969C813.982 453.793 815.689 458.737 813.912 462.463C811.285 467.971 807.357 471.652 803.188 475.973C802.111 477.09 794.361 484.973 796.98 486.841C797.783 487.414 800.02 486.614 800.943 486.46C804.953 485.789 808.962 485.118 812.971 484.448C814.014 484.273 821.699 482.135 822.391 483.181C823.163 484.35 821.753 486.3 821.371 487.351C820.531 489.662 818.761 491.323 818.018 493.742C817.231 496.305 816.398 499.672 814.927 501.863C813.553 503.911 813.056 505.051 815.568 505.699C817.502 506.198 818.872 507.265 819.224 509.368C819.468 510.825 820.509 513.717 819.666 515.04C818.191 517.355 815.738 519.047 813.632 520.725C811.693 522.27 809.132 522.991 807.05 524.473C803.703 526.855 800.126 529.112 796.642 531.284C793.894 532.997 791.032 535.03 787.881 535.819C785.541 536.406 783.897 538.32 781.517 538.855C778.154 539.612 775.458 541.554 772.144 542.423C760.432 545.494 748.86 549.453 736.616 550.423C733.94 550.635 731.624 550.543 729.751 548.276C728.761 547.079 728.585 544.649 727.113 543.789C726.711 543.554 725.567 546.16 725.293 546.544C722.802 550.035 717.717 554.12 713.525 554.821C711.414 555.174 709.387 555.397 707.443 556.345C702.91 558.557 696.645 558.659 691.745 559.479C688.587 560.007 685.432 560.586 682.266 561.065C679.764 561.443 677.453 560.854 674.968 560.877C667.13 560.949 659.563 560.008 651.723 559.302C645.01 558.698 638.475 558.456 631.811 557.113C624.952 555.732 618.275 553.39 611.477 551.728C599.814 548.877 587.272 548.335 576.017 544.142C575.488 543.945 571.936 541.993 571.888 542.354C571.597 544.532 573.293 546.84 574.339 548.591C575.221 550.066 576.444 553.69 575.339 555.239C573.043 558.458 565.024 558.672 561.859 557.494C559.392 556.576 558.086 555.484 556.404 553.506C552.659 549.1 549.195 544.48 545.628 539.932C544.511 538.508 542.994 537.003 542.319 535.303C541.86 534.149 540.431 530.755 540.636 531.98C541.021 534.28 542.176 540.91 538.148 540.338C528.873 539.022 524.077 525.21 521.923 517.762C521.475 516.214 520.602 514.69 520.248 513.141C520.205 512.95 520.044 514.681 519.501 515.407C514.965 521.469 510.719 516.399 507.105 512.017C503.499 507.644 502.73 502.361 501.826 496.959" stroke="#0F54BA" stroke-width="15" stroke-linecap="round" stroke-linejoin="round"/>
<path d="M741.259 473.632C745.348 472.141 747.04 472.979 750.457 475.417C752.247 476.693 754.315 479.77 753.731 482.191C752.846 485.861 748.956 489.218 746.65 492.051C746.209 492.592 748.438 492.777 749.139 493.127C752.964 495.036 756.333 496.451 758.866 500.089C767.171 512.021 749.949 516.734 741.341 518.23C728.868 520.398 717.601 518.095 705.582 514.242C703.238 513.491 699.549 512.678 697.798 510.813" stroke="#0F54BA" stroke-width="15" stroke-linecap="round" stroke-linejoin="round"/>
<path d="M462.708 389.44C428.761 392.584 405.805 355.362 421.919 330.473C425.28 325.281 435.257 325.305 439.645 328.015C446.346 332.151 455.893 350.13 460.714 356.315C465.097 361.936 463.266 346.779 463.666 343.654C463.978 341.212 463.493 325.457 466.02 324.729C475.237 322.072 480.325 343.233 492.602 346.924" stroke="#031F48" stroke-width="5" stroke-linecap="round" stroke-linejoin="round"/>
<path d="M494.983 342.977C502.367 290.146 562.561 263.799 610.239 243.034C638.905 230.55 657.418 223.031 679.117 219.401C692.426 217.464 711.047 218.401 719.566 230.884C722.494 235.175 721.33 248.248 719.626 253.799C718.256 258.26 712.351 266.284 707.496 267.826C704.335 268.831 710.673 267.351 711.67 267.185C717.135 266.27 751.804 256.922 736.61 293.373C735.03 296.521 732.202 301.007 728.624 301.862C721.742 303.507 765.243 322.097 725.3 331.822C722.605 332.272 706.976 334.769 705.079 332.163" stroke="#031F48" stroke-width="5" stroke-linecap="round" stroke-linejoin="round"/>
<path d="M530.355 384.713C537.499 376.556 538.336 362.531 547.005 355.623C551.396 352.123 561.957 347.458 567.324 351.829C573.384 356.763 576.072 366.571 585.271 366.175C599.31 365.572 606.058 359.35 612.148 347.71C613.715 344.714 618.143 339.994 622.073 343.064C623.458 344.146 624.105 346.311 625.702 347.245C627.378 348.225 633.254 346.259 634.87 345.823C640.768 344.236 645.458 335.536 650.829 335.155C665.634 335.776 668.394 352.269 669.255 357.42" stroke="#031F48" stroke-width="5" stroke-linecap="round" stroke-linejoin="round"/>
<path d="M614.091 442.826C619.504 442.936 624.168 444.768 628.673 447.697C631.937 449.819 638.422 448.189 638.899 444.593C639.285 441.677 642.602 432.095 665.559 438.785C668.951 438.217 667.593 434.939 669.943 433.025C673.373 430.232 676.877 433.324 680.05 434.533C684.139 436.092 689.611 434.761 693.738 434.07" stroke="#031F48" stroke-width="5" stroke-linecap="round" stroke-linejoin="round"/>
<path d="M523.458 398.034C543.917 383.965 583.413 389.074 562.195 432.616C599.788 417.258 631.83 451.89 572.865 480.568" stroke="#031F48" stroke-width="5" stroke-linecap="round" stroke-linejoin="round"/>
<path d="M593.973 377.112C598.593 404.728 611.727 399.958 612.881 396.198C614.57 390.696 612.689 379.901 611.726 374.142" stroke="#031F48" stroke-width="5" stroke-linecap="round" stroke-linejoin="round"/>
<path d="M631.287 369.855C632.305 375.943 636.801 393.597 645.429 390.753C654.26 387.842 649.683 373.759 648.547 366.968" stroke="#031F48" stroke-width="5" stroke-linecap="round" stroke-linejoin="round"/>
<path d="M664.989 371.314C690.574 352.948 720.993 335.881 752.425 330.325C765.159 328.075 778.137 328.19 790.53 332.512C801.675 336.399 808.762 343.897 810.801 355.032C812.887 366.42 819.382 406.319 703.17 435.9" stroke="#031F48" stroke-width="5" stroke-linecap="round" stroke-linejoin="round"/>
<path d="M645.327 478.021C648.224 482.968 650.66 488.359 656.103 490.92C659.294 492.421 670.117 491.802 672.459 488.691C676.329 483.55 673.231 475.124 672.283 469.456" stroke="#031F48" stroke-width="5" stroke-linecap="round" stroke-linejoin="round"/>
<path d="M466.085 400.535C462.192 411.424 459.399 490.876 502.659 528.25C512 536.32 514.944 558.922 558.582 571.617C626.303 583.489 710.369 565.864 777.566 549.965C802.357 544.1 843.014 509.86 823.388 506.024C815.003 504.385 832.421 490.319 825.09 481.181C823.204 477.623 818.92 475.341 814.821 476.027C840.045 457.105 830.246 428.835 788.985 433.71C786.428 434.138 783.87 434.565 781.313 434.993C779.885 435.232 782.718 434.231 783.321 432.855C791.034 424.749 790.451 412.173 752.647 425.594" stroke="#031F48" stroke-width="5" stroke-linecap="round" stroke-linejoin="round"/>
<path d="M1037.28 264.705C1054.55 262.208 1083 258.259 1101.17 255.086C1102.33 254.883 1116.15 252.687 1120.22 250.367C1120.97 249.942 1120.61 246.186 1120.59 245.467C1120.33 237.981 1115.76 233.859 1110.24 229.497C1101.35 222.466 1097.38 229.629 1097.72 238.571C1098.27 253.235 1109.38 254.729 1120.95 256.175C1136.11 258.07 1158 259.963 1169.59 248.371" stroke="#145FCF" stroke-width="10" stroke-linecap="round" stroke-linejoin="round"/>
<path d="M699.179 160.169C693.819 141.41 693.33 118.443 675.949 105.905C663.529 96.9468 642.489 85.0347 626.948 85.0347C608.878 85.0347 607.711 91.2888 607.711 107.902C607.711 115.779 611.191 116.069 619.144 116.069C634.826 116.069 650.499 111.114 659.252 96.8312C666.935 84.2961 668.427 59.3647 659.615 47.1044C648.437 31.552 630.309 22.9724 612.248 18.0669C597.253 13.9943 582.267 6.92382 566.877 5" stroke="#FF8165" stroke-width="10" stroke-linecap="round" stroke-linejoin="round"/>
<path d="M896.816 220.604C925.457 198.25 952.393 168.315 985.017 152.003" stroke="#E8CE99" stroke-width="10" stroke-linecap="round" stroke-linejoin="round"/>
<path d="M1074.04 107.902C1059.88 101.612 1110.79 76.8679 1110.79 76.8679C1114.4 74.4558 1118.34 73.0004 1122.22 71.0604C1123.64 70.3505 1137.9 64.4512 1132.02 70.3345L1131.93 70.4278C1124.8 77.5525 1112.42 89.9343 1112.42 100.461C1112.42 112.664 1118.38 112.292 1127.85 117.702C1130.6 119.278 1158.8 124.406 1119.5 149.734C1108.99 156.036 1098.8 163.649 1087.92 169.244C1074.28 176.257 1061.18 188.953 1046.63 193.381C1039.83 195.451 1052.94 174.318 1053.71 172.964C1060.43 161.204 1066.73 149.394 1074.13 138.028C1077.49 132.86 1082.8 126.221 1083.02 119.698C1083.19 114.507 1078.44 109.861 1074.04 107.902Z" fill="#FFDD71" stroke="#FFDD71" stroke-width="10" stroke-linecap="round" stroke-linejoin="round"/>
<path d="M1070.5 371.599C1057.91 380.701 1043.55 394.729 1030.75 403.54C1046.11 403.54 1058.69 413.34 1074.85 413.34C1080.26 413.34 1082.12 413.917 1079.75 408.44C1076.74 401.486 1078.58 393.291 1077.76 385.936C1077.29 381.808 1076.75 367.077 1070.5 371.599Z" fill="#367FEE" stroke="#367FEE" stroke-width="10" stroke-linecap="round" stroke-linejoin="round"/>
<path d="M922.949 653.445C912.251 655.852 915.918 657.715 912.333 665.604C910.723 669.145 914.446 673.972 918.14 674.588C925.825 675.868 926.216 663.202 926.216 658.345" stroke="#E8CE99" stroke-width="10" stroke-linecap="round" stroke-linejoin="round"/>
<path d="M1001.35 624.044C1022.8 624.044 1064.67 629.534 1066.59 658.436C1067.41 670.607 1070.02 682.845 1055.25 682.845C1045.04 682.845 1050.73 659.833 1055.25 655.078C1062.42 647.532 1071.78 648.543 1081.57 646.911C1092.19 645.14 1101.63 643.645 1112.42 643.645" stroke="#E8CE99" stroke-width="10" stroke-linecap="round" stroke-linejoin="round"/>
<path d="M253.09 277.046C248.487 276.775 250.004 247.636 250.004 245.104C256.005 245.104 308.841 249.198 308.352 250.912C306.829 256.24 283.482 262.989 279.042 265.068C270.768 268.941 262.911 277.623 253.09 277.046Z" fill="#367FEE" stroke="#367FEE" stroke-width="10" stroke-linecap="round" stroke-linejoin="round"/>
<path d="M383.94 156.903C385.327 158.289 394.132 169.698 397.007 167.973C401.334 165.377 405.614 156.482 408.077 152.003C415.523 138.465 419.602 179.575 420.781 182.946C425.134 195.38 433.719 187.402 440.019 181.675C445.691 176.519 452.526 186.303 459.075 186.303" stroke="#E8CE99" stroke-width="10" stroke-linecap="round" stroke-linejoin="round"/>
<path d="M147.102 475.408C163.398 460.399 188.808 449.641 210.804 447.641" stroke="#145FCF" stroke-width="10" stroke-linecap="round" stroke-linejoin="round"/>
<path d="M303.905 344.739C315.392 344.739 326.9 344.111 338.206 346.373" stroke="#E8CE99" stroke-width="10" stroke-linecap="round" stroke-linejoin="round"/>
<path d="M1099.35 302.272C1132.56 302.272 1165.78 302.272 1198.99 302.272" stroke="#E8CE99" stroke-width="10" stroke-linecap="round" stroke-linejoin="round"/>
<path d="M217.337 774.313C249.344 751.12 281.21 728.888 315.339 708.979" stroke="#FF8E6A" stroke-width="10" stroke-linecap="round" stroke-linejoin="round"/>
<path d="M365.973 762.88C371.893 751.885 379.305 744.547 388.84 736.746" stroke="#E8CE99" stroke-width="10" stroke-linecap="round" stroke-linejoin="round"/>
<path d="M1083.3 542.722C1106.9 552.933 1131.58 561.758 1154.03 574.268" stroke="#FF8E6A" stroke-width="10" stroke-linecap="round" stroke-linejoin="round"/>
<path d="M180.314 599.544C162.107 605.727 141.688 615.79 127.502 628.944C134.183 633.398 137.884 639.438 143.11 645.278C148.637 651.456 153.813 668.406 164.707 664.515C170.907 662.301 176.156 648.683 179.77 643.463C186.294 634.04 189.528 621.997 193.744 611.522C194.445 609.779 198.39 592.739 194.107 593.373C189.764 594.017 184.543 598.108 180.314 599.544Z" fill="#F95283" stroke="#F95283" stroke-width="10" stroke-linecap="round" stroke-linejoin="round"/>
<path d="M1140.3 460.406C1142.05 471.838 1142.29 482.025 1155.01 481.639C1160.5 481.473 1161.54 476.64 1161.54 472.202C1161.54 456.618 1147.34 469.581 1143.57 462.039" stroke="#E8CE99" stroke-width="10" stroke-linecap="round" stroke-linejoin="round"/>
<path d="M914.783 134.036C916.777 144.259 917.935 143.836 927.124 143.836C934.424 143.836 932.75 139.226 932.75 133.219C932.75 126.532 932.804 125.869 926.216 125.869C921.906 125.869 916.363 124.395 914.783 129.136" stroke="#E8CE99" stroke-width="10" stroke-linecap="round" stroke-linejoin="round"/>
<path d="M5 578.31C12.8576 583.101 17.9373 588.11 27.2319 588.11C35.9426 588.11 51.1083 582.111 52.2768 571.595C52.7348 567.473 54.604 557.076 49.1008 557.076C41.9592 557.076 41.8884 557.633 40.8432 564.426C39.001 576.401 38.0355 584.844 53.6379 584.844C71.9904 584.844 85.4469 583.409 96.4683 566.877" stroke="#E8CE99" stroke-width="10" stroke-linecap="round" stroke-linejoin="round"/>
<path d="M50.7341 228.771C84.1986 229.293 117.544 237.609 150.369 243.471" stroke="#E8CE99" stroke-width="10" stroke-linecap="round" stroke-linejoin="round"/>
<path d="M957.25 388.84C968.119 396.502 979.162 403.885 989.917 411.707" stroke="#E8CE99" stroke-width="10" stroke-linecap="round" stroke-linejoin="round"/>
<path d="M257.772 481.745C257.303 482.465 256.89 483.082 256.538 483.575C256.538 482.901 256.987 482.291 257.772 481.745C264.999 470.646 285.342 434.985 295.013 450.182C297.232 453.67 299.982 458.727 303.179 461.343C308.148 465.408 321.885 449.86 324.776 446.734C327.72 443.55 335.203 436.465 339.839 436.208C343.118 436.025 341.506 448.49 341.2 450.273C339.417 460.673 307.286 527.998 294.468 495.372C293.816 493.712 284.568 479.1 283.397 478.766C278.974 477.502 262.441 478.497 257.772 481.745Z" fill="#FFDD71"/>
<path d="M256.538 483.575C262.314 475.489 284.714 433.999 295.013 450.182C297.232 453.67 299.982 458.727 303.179 461.343C308.148 465.408 321.885 449.86 324.776 446.734C327.72 443.55 335.203 436.465 339.839 436.208C343.118 436.025 341.506 448.49 341.2 450.273C339.417 460.673 307.286 527.998 294.468 495.372C293.816 493.712 284.568 479.1 283.397 478.766C278.23 477.289 256.538 478.896 256.538 483.575Z" stroke="#FFDD71" stroke-width="10" stroke-linecap="round" stroke-linejoin="round"/>
<path d="M802.202 741.429C788.267 740.874 777.488 753.435 784.823 765.296C790.534 774.531 798.557 783.274 808.57 791.035C827.307 805.56 851.796 815.702 877.66 819.65C903.524 823.598 929.08 821.094 949.761 812.586C961.213 807.875 970.758 801.492 977.956 793.862C987.029 784.245 979.77 770.319 966.998 766.901V766.901C955.284 763.766 943.056 771.036 933.291 778.224C930.099 780.573 926.434 782.615 922.354 784.294C910.29 789.257 895.383 790.717 880.296 788.414C865.208 786.111 850.923 780.195 839.993 771.723C834.996 767.849 830.849 763.557 827.669 759.025C821.526 750.269 812.889 741.854 802.202 741.429V741.429Z" fill="#EF3E72"/>
<path d="M807.018 742.826C797.279 740.882 788.324 748.535 792.336 757.62C793.9 761.16 795.903 764.68 798.328 768.128C805.006 777.622 814.629 786.207 826.161 792.96C837.693 799.713 850.696 804.377 863.772 806.45C869.66 807.384 875.463 807.777 881.055 807.633C890.445 807.393 894.084 796.702 888.295 789.306V789.306C884.934 785.013 879.287 783.372 873.847 783.734C870.122 783.982 866.203 783.793 862.214 783.16C854.884 781.998 847.595 779.383 841.13 775.597C834.666 771.812 829.271 766.999 825.527 761.677C824.662 760.446 823.892 759.199 823.22 757.943C819.633 751.23 814.482 744.316 807.018 742.826V742.826Z" fill="#FF6B97"/>
<circle cx="794.099" cy="756.24" r="4.99435" transform="rotate(11.9831 794.099 756.24)" fill="#FF9CB9"/>
<circle cx="801.796" cy="768.085" r="4.99435" transform="rotate(11.9831 801.796 768.085)" fill="#FF9CB9"/>
<circle cx="964.908" cy="787.388" r="4.99435" transform="rotate(11.9831 964.908 787.388)" fill="#A2133D"/>
<circle cx="894.892" cy="691.795" r="100.818" transform="rotate(11.9831 894.892 691.795)" fill="#053F97" stroke="#031F48" stroke-width="10"/>
<circle cx="886.343" cy="679.45" r="78.661" transform="rotate(11.9831 886.343 679.45)" fill="#145FCF"/>
<path d="M973.889 663.888C971.276 676.199 959.178 684.06 946.868 681.447C934.557 678.834 926.696 666.736 929.309 654.426C931.922 642.115 944.019 634.254 956.33 636.867C968.64 639.48 976.502 651.578 973.889 663.888Z" fill="#EDF4FF"/>
<circle cx="935.641" cy="704.273" r="14.0466" transform="rotate(11.9831 935.641 704.273)" fill="#EDF4FF"/>
<path d="M887.826 727.885C889.551 758.868 884.255 778.105 870.656 778.862C857.058 779.62 814.957 744.264 813.232 713.282C811.507 682.299 815.417 649.383 829.015 648.626C842.613 647.869 886.101 696.902 887.826 727.885Z" fill="#2D2D2D" fill-opacity="0.47"/>
</svg>
