<svg width="790" height="659" viewBox="0 0 790 659" fill="none" xmlns="http://www.w3.org/2000/svg">
<path d="M104.798 442.446C107.847 441.532 111.198 440.54 114.294 440.024C116.52 439.653 118.541 438.515 120.78 438.383C121.817 438.322 122.972 437.978 124.031 437.827C126.007 437.544 127.985 436.981 129.99 436.758C133.674 436.349 137.183 434.522 140.855 433.989C146.488 433.171 151.647 430.889 157.198 429.655C160.507 428.92 164.058 428.969 167.401 428.361C170.177 427.856 172.931 427.102 175.708 427.007C180.601 426.838 185.306 425.844 189.854 424.298C192.08 423.541 194.578 422.862 196.881 422.402C199.157 421.946 201.062 420.999 203.397 420.776C204.688 420.654 206.144 419.715 207.461 419.422C208.525 419.185 209.469 418.979 210.545 418.865C211.398 418.775 212.116 418.375 213.089 418.339C214.36 418.291 215.632 417.816 216.941 417.797C218.228 417.778 219.607 417.681 220.884 417.511C221.996 417.363 222.883 416.615 223.984 416.457C224.62 416.367 225.332 416.322 225.94 416.111C226.732 415.837 227.935 415.795 228.589 415.359" stroke="#E8CE99" stroke-width="10" stroke-linecap="round" stroke-linejoin="round"/>
<path d="M227.131 393C228.495 394.785 230.36 396.96 230.923 399.215C231.079 399.838 231.281 400.697 231.525 401.277C231.74 401.786 232.466 402.309 232.534 402.782C232.702 403.964 233.086 404.937 233.361 406.107C233.731 407.677 234.626 411.172 233.843 412.503C233.213 413.573 230.472 413.316 229.419 413.316C228.656 413.316 227.894 413.316 227.131 413.316C226.184 413.316 225.508 413.857 224.573 413.857C222.434 413.857 220.247 414.569 218.132 414.881C215.71 415.238 213.082 414.941 210.638 414.941C208.981 414.941 207.849 415.784 206.274 416.009C204.416 416.275 202.717 416.23 200.916 416.897C199.626 417.375 198.261 417.631 196.883 417.921C193.954 418.537 190.837 419.03 187.884 419.335C186.036 419.526 184.282 420.049 182.467 420.328C181.382 420.495 180.325 420.281 179.246 420.569C178.014 420.898 176.908 420.766 175.665 421.292C174.303 421.868 172.897 422.063 171.481 422.405C170.624 422.612 169.824 423.054 168.983 423.278C167.924 423.56 167.177 423.263 166.184 423.759C164.695 424.504 162.934 425.144 161.308 425.505C160.347 425.719 159.317 425.677 158.389 425.987C157.902 426.149 156.466 426.589 157.666 426.589C160.195 426.589 162.723 426.589 165.251 426.589C168.751 426.589 172.063 425.884 175.454 425.174C176.096 425.04 180.296 423.588 178.614 423.609C175.831 423.644 172.905 424.378 170.157 424.828C167.655 425.237 165.295 425.338 162.783 425.535C160.659 425.702 158.421 426.337 156.312 426.709C155.089 426.925 153.996 427.423 152.971 428.094C151.06 429.343 150.081 430.923 147.674 430.923C144.499 430.923 141.324 430.923 138.148 430.923C137.474 430.923 137.225 431.111 136.598 431.344C135.628 431.705 134.437 431.49 133.468 431.856C129.748 433.261 126.278 434.173 122.182 434.173C117.887 434.173 113.834 434.817 109.827 436.22C107.733 436.953 105.424 436.688 103.401 437.424C102.389 437.792 101.349 437.654 100.316 437.98C98.5362 438.543 96.9053 438.658 95.079 438.793C93.6001 438.903 92.2012 439.594 90.73 439.801C89.2371 440.012 87.7672 440.22 86.2906 440.524C82.3585 441.333 78.5138 442.566 74.5677 443.443C72.6862 443.861 71.2843 444.236 69.6919 445.279C68.598 445.996 66.7753 447.446 65.4031 447.446C64.6155 447.446 63.828 447.446 63.0404 447.446C62.1009 447.446 61.5256 448.062 60.6778 448.394C59.1875 448.977 57.4976 449.427 56.118 450.215C54.0744 451.383 51.8874 452.391 49.4665 452.578C48.2423 452.672 45.8669 453.136 44.982 453.947C43.9624 454.882 42.2798 455.144 41.3101 456.114C41.0136 456.411 43.7904 456.656 44.2898 456.656C47.5039 456.656 50.5823 456.937 53.7704 456.671C54.7829 456.587 55.7664 456.337 56.6297 455.843C57.6686 455.25 58.8263 454.386 60.0006 454.218C62.2082 453.903 55.5307 455.287 53.7704 456.656C51.8807 458.126 49.7747 459.335 47.9316 460.93C47.0325 461.708 45.8869 463.208 45.3131 464.24C45.0405 464.731 44.5865 465.252 44.1694 465.61C43.6916 466.019 43.6394 466.898 43.0708 467.34C42.2989 467.941 41.7629 468.702 41.0393 469.387C39.9313 470.437 38.7672 471.25 37.6533 472.246C35.6787 474.013 33.8085 475.802 32.4314 478.055C32.1351 478.54 31.7022 478.881 31.4382 479.409C30.5478 481.19 33.206 478.44 33.4547 478.175C35.5795 475.912 38.0178 473.795 40.016 471.434C41.8238 469.297 43.9947 466.754 44.5005 463.909C44.6076 463.307 45.3722 459.76 44.681 459.365C42.0186 457.843 37.6514 458.552 34.5382 458.552C33.2379 458.552 31.9165 459.538 30.7309 460.057C28.8054 460.899 27.459 462.233 25.3284 462.555C23.4196 462.843 21.0322 462.059 19.2337 462.751C18.4966 463.034 17.8179 463.434 17.0818 463.699C16.7887 463.804 14.4668 464.797 15.2759 464.782C17.9254 464.732 20.7811 463.925 23.3721 463.443C25.8672 462.979 28.4111 462.83 30.8965 462.344C35.3868 461.467 39.2739 459.849 42.6645 456.776C44.6193 455.005 45.1954 453.11 45.8849 450.697C46.2264 449.502 45.8963 448.698 45.1024 447.988C43.7588 446.786 40.6335 447.446 38.9625 447.446C37.0263 447.446 35.1312 447.988 33.1989 447.988C32.3262 447.988 31.6063 448.056 30.7761 448.379C28.3754 449.313 24.9074 448.8 22.3789 448.8C19.8926 448.8 17.488 448.927 15.0352 449.071C14.6088 449.096 18.1917 450.89 18.707 451.073C21.9808 452.231 25.1114 452.864 28.5639 452.864C32.4133 452.864 35.8336 452.612 39.4742 451.178C41.0311 450.565 42.4932 449.935 44.0039 449.222C45.0451 448.73 45.9342 448.034 46.9383 447.566C48.1756 446.991 50.5199 445.577 50.5199 444.045C50.5199 440.599 49.4665 438.331 49.4665 434.865C49.4665 432.182 47.9316 426.293 47.9316 423.609M51.3326 437.905C51.3326 440.393 50.6459 442.841 53.7704 442.841C56.2034 442.841 58.2773 442.093 60.4821 441.276C61.5622 440.876 62.6576 440.674 63.8079 440.674C64.8313 440.674 65.6834 440.132 66.6371 440.132C72.2081 440.132 77.5865 438.502 82.9799 437.424C85.3502 436.95 87.5618 436.06 90.0076 435.783C91.936 435.565 93.5742 434.786 95.4252 434.384C97.1587 434.007 98.9847 434.161 100.752 433.962C105.542 433.424 110.595 433.22 115.274 432.112C117.396 431.609 119.502 430.959 121.64 430.531C122.839 430.292 124.061 430.099 125.252 429.824C125.89 429.677 126.382 429.209 127.027 429.087C139.101 426.809 151.459 425.931 163.52 423.519C174.924 421.238 186.118 417.881 197.335 414.806C204.527 412.834 211.765 410.872 218.915 408.861C220.756 408.343 224.866 406.905 225.987 405.069C226.54 404.165 226.106 403.183 226.454 402.21C227.228 400.042 222.605 401.815 221.548 402.089C218.505 402.878 215.376 403.697 212.383 404.708C210.883 405.215 208.889 405.543 207.312 405.701C206.393 405.793 205.439 405.593 204.648 406.183C203.972 406.687 203.586 407.144 202.752 407.371C199.633 408.222 196.576 408.532 193.482 409.794C188.233 411.937 182.628 412.512 177.155 413.572C169.864 414.983 162.741 417.624 155.334 418.447C152.923 418.715 150.581 419.187 148.186 419.546C146.595 419.784 145.036 420.439 143.461 420.614C141.322 420.852 139.508 422.481 137.26 422.525C135.863 422.553 134.669 422.961 133.303 423.097C131.325 423.295 129.26 423.534 127.328 424C124.581 424.663 121.934 425.494 119.202 426.167C116.623 426.803 113.732 427.351 111.317 428.425C110.296 428.878 109.312 428.652 108.247 428.771C106.992 428.91 105.922 429.733 104.605 429.824C100.8 430.087 97.1799 431.9 93.4538 432.292C92.3577 432.407 91.1471 433.072 90.0678 433.361C88.3818 433.812 86.7242 434.394 85.0416 434.865C82.9149 435.461 80.8545 436.558 78.6308 436.822C77.2234 436.988 75.7719 436.95 74.3721 437.183C73.0303 437.407 71.7323 438.033 70.4143 438.372C68.617 438.834 67.3052 439.707 65.6288 440.343C63.552 441.131 52.855 444.651 55.6214 448.394C57.0032 450.264 61.6388 450.126 63.6123 450.155C66.9212 450.203 70.2351 450.155 73.5444 450.155C76.4246 450.155 79.3719 449.994 82.077 448.936C83.3636 448.432 84.676 448.205 86.0047 447.867C86.6489 447.704 87.3703 447.175 88.0363 447.175C89.7275 447.175 91.4175 445.55 93.1077 445.55C94.6333 445.55 96.0654 445.019 97.532 444.752C99.3319 444.425 101.32 443.966 103.07 443.383" stroke="#E8CE99" stroke-width="10" stroke-linecap="round" stroke-linejoin="round"/>
<path d="M224.026 391C217.561 392.536 211.545 395.221 205.249 397.306C199.71 399.571 63.4584 432.135 57.6098 433.417C55.6003 433.857 53.3126 434.775 52.2765 432.472C51.3387 430.388 51.5544 416.425 47.5265 417C43.382 417.592 44.5265 425.5 44.5265 431.778C44.5265 433.681 44.5824 435.597 44.5265 437.5C44.4586 439.806 33.921 440.516 31.9709 441C28.0924 441.962 24.1946 442.686 20.332 443.722C-25.4306 456 34.0265 454.722 32.9432 452C36.93 452 31.722 453.646 30.0821 454.722C24.0265 457.5 -23.4735 478.667 37.7487 465.111C2.02649 518.5 63.0495 459.266 66.0265 454.722C82.2762 452.294 217.886 423.625 234.026 420.528" stroke="#031F48" stroke-width="5" stroke-linecap="round" stroke-linejoin="round"/>
<path d="M678.043 386.809C674.873 386.525 671.391 386.224 668.255 386.339C666 386.422 663.792 385.713 661.572 386.033C660.544 386.181 659.343 386.075 658.276 386.139C656.283 386.258 654.231 386.103 652.223 386.287C648.531 386.624 644.728 385.538 641.023 385.752C635.341 386.08 629.829 384.878 624.143 384.782C620.754 384.725 617.285 385.485 613.888 385.56C611.067 385.622 608.218 385.435 605.478 385.898C600.651 386.714 595.842 386.683 591.077 386.08C588.743 385.785 586.161 385.621 583.812 385.631C581.49 385.641 579.434 385.095 577.102 385.345C575.813 385.483 574.198 384.855 572.85 384.833C571.759 384.814 570.793 384.801 569.716 384.906C568.863 384.989 568.079 384.74 567.119 384.899C565.863 385.108 564.522 384.897 563.236 385.141C561.971 385.381 560.601 385.562 559.316 385.651C558.196 385.729 557.177 385.174 556.067 385.241C555.427 385.279 554.72 385.378 554.081 385.294C553.251 385.184 552.064 385.384 551.336 385.088" stroke="#E8CE99" stroke-width="10" stroke-linecap="round" stroke-linejoin="round"/>
<path d="M548.282 362.89C547.304 364.912 545.913 367.417 545.812 369.74C545.785 370.381 545.759 371.264 545.636 371.88C545.528 372.422 544.921 373.08 544.95 373.557C545.021 374.748 544.841 375.779 544.806 376.981C544.758 378.592 544.582 382.196 545.616 383.343C546.447 384.265 549.082 383.463 550.113 383.252C550.86 383.099 551.607 382.947 552.354 382.794C553.282 382.604 554.054 382.999 554.969 382.812C557.065 382.383 559.35 382.641 561.485 382.523C563.929 382.388 566.444 381.57 568.839 381.08C570.462 380.748 571.74 381.347 573.328 381.252C575.202 381.139 576.857 380.755 578.755 381.047C580.115 381.257 581.503 381.233 582.911 381.241C585.905 381.258 589.057 381.116 592.011 380.823C593.86 380.64 595.684 380.801 597.518 380.71C598.614 380.656 599.607 380.235 600.721 380.301C601.994 380.375 603.052 380.024 604.375 380.29C605.825 380.582 607.242 380.492 608.697 380.543C609.578 380.573 610.45 380.846 611.319 380.897C612.413 380.961 613.086 380.52 614.158 380.808C615.766 381.239 617.619 381.512 619.285 381.54C620.269 381.557 621.27 381.31 622.241 381.427C622.751 381.488 624.246 381.631 623.07 381.872C620.593 382.379 618.116 382.885 615.639 383.392C612.21 384.094 608.824 384.067 605.36 384.052C604.703 384.049 600.298 383.468 601.95 383.152C604.684 382.629 607.698 382.761 610.48 382.651C613.013 382.55 615.346 382.176 617.846 381.865C619.96 381.603 622.28 381.776 624.421 381.718C625.662 381.685 626.833 381.954 627.971 382.405C630.094 383.246 631.37 384.597 633.728 384.115C636.839 383.478 639.95 382.842 643.06 382.205C643.721 382.07 644.003 382.204 644.663 382.307C645.687 382.466 646.81 382.017 647.833 382.181C651.759 382.812 655.341 383.01 659.355 382.189C663.562 381.328 667.662 381.146 671.869 381.717C674.067 382.015 676.276 381.293 678.406 381.608C679.471 381.766 680.463 381.423 681.54 381.536C683.396 381.729 685.017 381.515 686.833 381.282C688.304 381.093 689.813 381.49 691.296 381.398C692.801 381.304 694.283 381.214 695.79 381.215C699.805 381.22 703.819 381.658 707.86 381.726C709.788 381.758 711.236 381.844 713.005 382.547C714.221 383.03 716.297 384.085 717.641 383.81C718.413 383.652 719.185 383.494 719.956 383.336C720.877 383.148 721.564 383.637 722.461 383.792C724.038 384.064 725.784 384.166 727.293 384.661C729.529 385.396 731.874 385.946 734.283 385.643C735.501 385.49 737.922 385.468 738.951 386.085C740.138 386.797 741.839 386.717 742.983 387.472C743.333 387.703 740.662 388.5 740.172 388.6C737.023 389.245 734.064 390.137 730.887 390.516C729.878 390.636 728.865 390.588 727.92 390.278C726.783 389.905 725.476 389.29 724.292 389.361C722.066 389.495 728.885 389.513 730.884 390.501C733.03 391.562 735.336 392.324 737.461 393.518C738.498 394.1 739.921 395.339 740.69 396.236C741.056 396.662 741.605 397.082 742.085 397.348C742.635 397.654 742.863 398.504 743.509 398.824C744.385 399.257 745.063 399.895 745.909 400.422C747.205 401.228 748.508 401.791 749.8 402.544C752.088 403.879 754.279 405.256 756.08 407.188C756.467 407.604 756.96 407.851 757.324 408.316C758.554 409.882 755.398 407.721 755.101 407.511C752.566 405.72 749.753 404.134 747.322 402.221C745.123 400.491 742.486 398.435 741.42 395.749C741.194 395.18 739.734 391.858 740.332 391.333C742.636 389.308 747.056 389.127 750.106 388.503C751.38 388.243 752.872 388.944 754.138 389.214C756.193 389.654 757.78 390.691 759.931 390.579C761.859 390.478 764.041 389.231 765.942 389.548C766.721 389.678 767.466 389.934 768.24 390.046C768.548 390.091 771.022 390.598 770.226 390.745C767.621 391.228 764.661 391.009 762.026 391.056C759.489 391.102 756.966 391.466 754.434 391.488C749.859 391.529 745.727 390.723 741.789 388.393C739.519 387.049 738.574 385.308 737.415 383.082C736.841 381.979 737.003 381.126 737.639 380.271C738.714 378.824 741.908 378.845 743.545 378.51C745.442 378.121 747.407 378.272 749.3 377.885C750.155 377.71 750.874 377.633 751.753 377.783C754.292 378.216 757.587 377.019 760.064 376.512C762.5 376.014 764.881 375.656 767.313 375.305C767.735 375.244 764.585 377.72 764.117 378.002C761.141 379.793 758.201 381.04 754.819 381.733C751.048 382.504 747.646 382.944 743.792 382.269C742.144 381.98 740.585 381.656 738.962 381.26C737.844 380.987 736.833 380.483 735.755 380.226C734.428 379.911 731.848 378.995 731.541 377.495C730.85 374.118 731.427 371.686 730.732 368.29C730.194 365.661 730.518 359.584 729.98 356.954M729.514 371.642C730.012 374.08 731.176 376.34 728.115 376.967C725.731 377.454 723.549 377.137 721.226 376.779C720.087 376.604 718.974 376.625 717.847 376.856C716.844 377.061 715.901 376.701 714.966 376.892C709.508 378.009 703.912 377.49 698.412 377.515C695.995 377.525 693.65 377.097 691.198 377.317C689.265 377.489 687.504 377.055 685.61 377.031C683.836 377.01 682.078 377.527 680.307 377.687C675.506 378.119 670.515 378.932 665.708 378.784C663.529 378.717 661.335 378.503 659.155 378.512C657.932 378.518 656.697 378.574 655.475 378.543C654.82 378.527 654.244 378.167 653.588 378.177C641.302 378.366 629.019 379.983 616.719 380.038C605.09 380.089 593.45 379.045 581.845 378.28C574.403 377.79 566.919 377.319 559.511 376.783C557.603 376.644 553.289 376.059 551.822 374.485C551.099 373.71 551.327 372.661 550.791 371.777C549.598 369.809 554.483 370.62 555.574 370.676C558.713 370.839 561.943 371.014 565.077 371.404C566.649 371.6 568.668 371.522 570.245 371.361C571.163 371.266 572.058 370.879 572.951 371.298C573.714 371.657 574.185 372.027 575.047 372.083C578.273 372.291 581.33 371.981 584.614 372.598C590.187 373.645 595.793 373.085 601.368 373.026C608.794 372.947 616.301 374.107 623.723 373.428C626.138 373.207 628.527 373.2 630.946 373.071C632.552 372.986 634.211 373.315 635.79 373.171C637.933 372.975 640.036 374.207 642.247 373.8C643.621 373.548 644.873 373.707 646.239 373.567C648.216 373.365 650.287 373.185 652.273 373.254C655.097 373.353 657.857 373.636 660.669 373.748C663.323 373.854 666.265 373.811 668.847 374.379C669.937 374.619 670.857 374.2 671.924 374.103C673.181 373.988 674.394 374.58 675.703 374.404C679.483 373.899 683.393 374.95 687.122 374.587C688.219 374.48 689.538 374.888 690.654 374.955C692.396 375.059 694.137 375.297 695.88 375.422C698.082 375.579 700.321 376.241 702.552 376.053C703.965 375.934 705.379 375.605 706.797 375.553C708.156 375.503 709.554 375.857 710.913 375.925C712.766 376.017 714.227 376.61 715.996 376.897C718.189 377.252 729.375 378.557 727.415 382.778C726.436 384.886 721.867 385.681 719.939 386.105C716.707 386.816 713.45 387.433 710.208 388.096C707.387 388.673 704.467 389.107 701.605 388.612C700.243 388.377 698.912 388.417 697.542 388.353C696.879 388.322 696.066 387.948 695.413 388.082C693.756 388.421 691.775 387.167 690.119 387.506C688.624 387.812 687.115 387.579 685.625 387.612C683.796 387.652 681.756 387.601 679.925 387.38" stroke="#E8CE99" stroke-width="10" stroke-linecap="round" stroke-linejoin="round"/>
<path d="M550.922 360.309C557.564 360.517 563.997 361.942 570.583 362.722C576.464 363.831 716.477 368.42 722.464 368.503C724.521 368.532 726.946 368.972 727.5 366.509C728.001 364.279 724.99 350.642 729.052 350.398C733.231 350.148 733.695 358.124 734.953 364.275C735.335 366.14 735.664 368.028 736.1 369.881C736.629 372.127 747.095 370.71 749.103 370.793C753.095 370.958 757.059 370.886 761.051 371.127C808.346 373.981 749.84 384.649 750.355 381.764C746.449 382.564 751.882 383.132 753.704 383.858C760.194 385.365 810.973 396.58 748.276 395.573C793.975 440.717 722.317 394.918 718.489 391.063C702.083 391.942 563.478 391.041 547.045 391.242" stroke="#031F48" stroke-width="5" stroke-linecap="round" stroke-linejoin="round"/>
<path d="M202 391C222.456 381.048 321 338.5 532 352C539.542 355.771 549.503 353.853 557.444 356.5C561.44 357.832 566.701 358 570.889 358C572.796 358 578.442 359.02 579.778 360.222C583.573 363.638 576.902 382.94 576.444 385.445C576.069 387.498 574.242 410.431 572.444 410.945C570.631 411.463 567.922 409.345 566.222 408.778C561.932 408.405 509.566 401.37 510 407.222C532 467 534.444 518.5 537.222 586C538.044 589.491 535.531 586.131 534.444 584.945C530.479 580.619 522.95 579.18 517.222 581.445C514.889 582.367 512.667 584.73 510.444 586C504.939 589.146 502.503 591 495.722 591C486.52 591 476.6 593.311 471 585.222C467.29 579.864 465.138 578.822 458.555 579C450.093 579.229 439.56 585.204 431.944 588.611C422.947 592.637 416.754 598 406.5 598C402.104 598 397.771 598.326 394.444 595C388.987 589.543 386.544 587.979 378.222 587.222C373.782 586.819 373.628 588.229 369.833 590C358.247 595.407 346.365 605 333.111 605C330.361 605 320.353 606.696 318.222 604.778C317.408 603.052 333.111 519.5 278.778 444C276.468 444.089 272.451 446.644 270.611 448C258.035 457.267 242.616 463.791 226 461.945C206.5 448 194.102 406.572 195.056 396.556C195.405 392.885 199.192 392.366 202 391Z" fill="#02091B" stroke="black" stroke-linecap="round" stroke-linejoin="round"/>
<path d="M240.714 182.011C240.123 180.403 234.929 180.072 236.5 177.5C237.188 176.373 236.169 155.909 244.5 162C242.744 149.192 250.327 155.364 253 153.724C253 148.681 263.323 151.855 265.394 151.017C269.816 149.228 275.007 163.517 278.388 166.194C280.005 167.474 280.615 165.436 282.5 166.454C292.657 162.711 297.612 160.034 288 166.454C298.5 162 295.213 162.885 300.5 162C317.736 143 307.273 155.118 311 153.104C317.662 137.667 315.112 147.638 317.736 144.5C322.198 135.896 329.671 140.643 328.063 147.5C328.478 146.664 328.822 145.904 329.105 145.219C329.323 139.042 331.596 139.187 329.105 145.219C329.094 145.522 329.089 145.841 329.089 146.174C339.526 133.77 363.924 128.776 355.5 138C359.935 137.258 357.585 141.239 362 140.5C367.202 139.63 361.358 145.467 366.298 147.5C368.879 148.562 373.179 161.953 372.543 165.563C382.032 158.559 399.5 143.139 399.5 151.017C404.185 146.99 402 147.5 406.43 147.5C413.851 144 424.712 141.516 432 138C440.066 134.108 466.412 117.909 487.5 132.5C492.737 130.342 515.975 142.409 505.5 147.5C505.5 147.5 512.5 147.5 512.5 161.061C515.039 166.89 509.061 175.957 505.5 181.652C503.095 185.497 490.833 196.434 487.5 199.5C484.36 202.388 472.835 208.787 469 210.96C461.907 214.977 435.975 223.385 428.5 226.623C423.42 228.823 440.909 210.033 435.367 210.96C430.209 211.823 425.781 213.253 420.916 215.152C418.461 216.11 416.129 217.365 413.762 218.517C411.405 219.665 401.752 233.728 399.5 235.031C393.618 238.434 389.646 237.726 381.959 234.06C376.824 231.612 374.499 225.705 369.014 226.623C367.451 226.884 365.603 226.935 364.115 227.471C369.014 234.06 366.399 237.618 364.115 238C361.555 238.428 353.702 231.077 351.206 230.109C347.929 228.837 344.327 229.232 340.931 229.8C338.205 230.256 335.823 231.033 333.508 232.563C337 239.5 344 255 333.508 247.5C332 249 328.918 241.48 328.063 242C326.112 243.186 325.259 235.811 323.134 235.031C307.296 242.5 310.792 246.86 306 244.5C299.289 241.195 296.092 221.146 288 222.5C284.18 223.139 269.402 232.833 266.423 229.8C265.25 228.606 271.667 215.939 271.354 214.065C271.042 212.201 274.046 211.171 274.072 209.273C274.101 207.25 274.537 205.821 274.178 203.679C273.607 200.265 272.968 197.211 271.497 194.045C270.18 191.211 267.743 186.777 265.394 184.673C264.189 183.594 260.576 181.484 258.839 181.686C254.975 182.136 250.794 181.004 246.92 181.652C245.829 181.835 242.419 181.374 240.714 182.011Z" fill="#FFE4AD"/>
<path d="M235.826 186.55C243.096 182.214 259.289 181.923 267 186.55C274.106 190.814 267.952 234.664 291.867 227.114C299.204 208.262 322.602 231.853 322.172 245.105C322.172 245.105 332.42 237.153 335.24 235.343C362.271 221.161 380.95 226.093 385.545 226.279C389.344 226.433 391.656 228.174 395.753 227.698C407.405 226.342 418.159 223.328 429.189 219.823C431.843 218.979 434.216 217.534 436.809 216.548C538.804 170.335 488.931 148.114 484.511 146.974C482.646 146.493 481.715 145.644 479.441 145.794C478.115 145.882 475.655 145.198 474.28 144.911C473.311 144.71 472.523 144.84 471.631 144.566" stroke="#E8CE99" stroke-width="15" stroke-linecap="round" stroke-linejoin="round"/>
<path d="M200.292 146.869C204.055 140.258 203.452 133.044 206.463 126.179C207.417 124.003 208.965 123.144 210.223 121.382C211.818 119.145 214.176 116.729 216.109 114.82C218.009 112.945 218.976 110.184 221.403 108.752C222.682 107.998 223.527 106.561 224.826 105.645C226.813 104.245 228.95 102.88 230.733 101.221C232.662 99.4253 234.293 97.5147 236.721 96.2761C238.961 95.1336 239.999 92.9487 241.814 91.3685C244.553 88.985 247.363 86.6569 250.597 84.9424C255.128 82.5397 259.337 79.5297 263.616 76.7373C268.915 73.2795 274.954 71.4165 280.393 68.2696C285.037 65.5824 289.976 63.1039 294.874 60.8901C299.95 58.5956 305.261 57.5701 310.136 54.9852C317.199 51.2406 325.378 49.9259 332.663 46.5414C343.278 41.6099 356.067 31.9745 367.274 28.5067C374.331 26.323 379.276 29.7308 386.593 28.5067C384.229 26.3414 401.163 24.6667 402.566 26.3414C403.96 28.0044 406.727 29.4821 408.514 30.9227C409.362 31.6056 409.445 32.8305 410.105 33.6982C410.806 34.6194 411.677 34.6722 411.888 35.9348C412.23 37.9827 415.842 46.8917 413.704 48.3047C412.49 49.1065 410.279 52.6464 409.867 53.9879C409.191 56.1886 406.191 58.5115 404.505 59.9827C401.869 62.2824 398.911 64.4476 396.577 67.1389C395.426 68.4648 393.109 69.9132 392.305 71.4022C391.932 72.0929 394.31 72.53 394.658 73.0082C395.73 74.4813 394.285 78.4217 396.241 78.0945L404.898 76.6461C408.95 75.9682 417.854 71.3443 421.962 71.4022C428.426 71.4933 441.927 77.6946 432.346 87.0092C429.648 89.6318 411.393 104.727 416.197 107.82C418.24 109.136 432.346 108.752 421.962 111.306C423.45 112.505 424.972 114.713 426.714 115.467C428.471 116.228 421.599 119.617 421.962 121.382C422.444 123.724 429.162 123.789 426.902 124.167C421.772 125.025 416.627 125.384 411.49 124.464C409.646 124.134 408.091 124.272 406.188 124.59C403.961 124.963 401.387 123.128 399.118 123.238C396.936 123.345 394.512 123.379 392.132 123.9C389.051 124.575 388.153 128.434 386.245 130.462C385.266 131.502 385.442 133.182 384.229 134.235C383.471 134.892 382.541 135.43 381.901 136.145C379.694 138.61 376.521 133.928 375.578 132.528C373.134 128.897 368.705 124.033 364.129 123.516C358.229 122.849 351.845 122.809 345.908 124.029C343.874 124.447 341.708 127.089 340.166 128.426C338.611 129.774 337.485 131.635 335.986 133.068C332.531 136.371 328.98 137.779 324.615 133.956C322.029 131.691 313.876 131.389 311.176 133.924C307.451 137.419 313.006 142.437 308.575 144.976C307.976 146.06 306.978 147.553 305.983 148.339C303.783 150.077 302.465 153.083 300.233 154.708C295.525 158.137 290.333 157.969 284.883 158.572C284.019 158.668 282.599 157.598 282.178 156.884C281.643 155.976 280.579 155.372 280.346 155.249C280.289 155.219 280.282 155.218 280.346 155.249C280.358 155.255 280.371 155.261 280.387 155.269C282.754 156.389 286.263 154.491 288.021 153.09C285.989 152.966 287.116 147.854 285.081 147.639C283.637 147.487 282.091 147.132 280.738 146.592C275.124 144.35 268.78 144.117 263.272 141.515C261.179 140.527 256.422 140.521 254.047 140.918C251.732 141.305 249.613 142.321 247.738 143.776C243.077 147.391 238.212 151.567 234.932 156.79C232.353 160.895 234.77 166.493 230.733 169.5C229.201 170.641 222.002 171.491 220.41 172.512C219.882 172.852 218.01 174.299 217.763 174.871C217.073 176.465 214.354 179.452 213.035 180.618C211.564 181.92 214.125 181.303 214.744 181.065C216.73 180.3 218.439 179.117 220.185 177.901C221.596 176.919 222.994 176.53 224.723 176.241C227.608 175.758 223.36 184.182 222.749 185.394L222.738 185.416C221.339 188.19 218.811 192.398 218.566 195.493C218.491 196.436 216.316 202.995 218.492 202.631C220.528 202.29 222.741 197.583 224.826 197.234C227.585 196.773 229.684 200.013 232.382 199.293C233.611 198.965 234.333 197.953 235.669 197.729L238.628 197.234C240.537 196.915 242.164 197.969 243.807 197.889C244.69 197.846 246.175 198.525 246.922 199.001C247.836 199.583 249.374 199.529 250.507 200.063C253.24 201.348 258.494 203.863 259.07 207.305C259.465 209.67 261.384 214.886 260.432 217.131C259.38 219.612 258.257 222.07 257.194 224.545C256.121 227.045 254.024 230.284 251.394 231.12C246.826 232.571 248.496 238.036 249.131 241.835C249.562 244.408 249.666 245.932 251.852 247.491C255.17 249.859 255.718 247.395 257.727 244.734C259.12 242.889 262.307 242.954 264.466 242.593C266.905 242.185 267.249 239.975 269.305 238.854C270.836 238.02 273.894 238.419 275.497 238.832C277.552 239.362 280.132 238.451 282.219 238.102C286.223 237.432 289.552 239.078 292.081 242.338C292.73 243.176 293.305 244.62 294.064 245.273C294.211 245.4 294.323 245.536 294.406 245.663C294.363 245.485 294.314 245.253 294.265 244.958C293.887 242.697 293.286 240.885 291.773 239.151C290.641 237.853 291.893 238.018 293.023 238.209C294.955 238.536 295.428 241.351 296.333 242.838C297.475 244.716 296.98 247.771 297.104 249.806C297.409 254.804 290.082 262.827 286.217 265.033C283.372 266.658 280.828 268.692 278.033 270.486C271.329 274.789 267.474 282.067 265.838 289.847C265.234 292.718 265.999 292.502 268.597 291.019C271.935 289.113 275.37 287.379 278.75 285.547C282.701 283.404 286.033 280.047 289.54 277.32C292.797 274.788 296.048 271.542 298.833 268.556C300.871 266.37 303.816 264.26 305.615 261.957C306.98 260.209 308.867 259.007 310.571 257.579C311.876 256.486 310.136 244.958 315.19 253.371C316.978 253.072 319.626 251.111 321.364 252.563C322.532 253.54 324.441 254.852 325.736 255.634C328.672 257.406 334.486 257.524 337.531 255.097C339.204 253.763 340.651 252.241 342.415 250.956C344.045 249.769 349.135 243.466 350.88 242.593C354.987 240.536 357.63 244.8 361.939 246.451C364.268 247.343 364.446 249.29 367.274 248.713C370.343 248.086 369.738 240.725 372 239.151C373.281 238.259 378.464 242.213 380.066 242.01C382.343 241.722 384.47 244.242 386.324 245.244C388.425 246.379 394.643 240.169 399.102 243.655C402.205 241.375 408.536 240.178 411.49 240.967C415.263 241.974 413.887 243.814 417.056 241.905C424.529 237.403 435.223 233.975 443 230.646C448.538 228.276 453.151 232.825 459.108 231.828C463.692 231.061 467.826 229.863 472.341 229.108C474.574 228.734 477.156 228.681 479.268 227.921C482.673 226.695 478 233.153 477.842 233.876C477.461 235.624 476.181 237.693 475.351 238.856C474.508 240.038 484.596 239.224 486.293 238.94C492.132 237.963 497.403 239.97 502.967 240.967C507.921 241.854 515.376 239.382 516.538 246.329C516.949 248.787 524.571 253.068 525 255.634C525.48 258.503 519.108 261.957 516.747 259.7C513.103 264.527 507.698 269.015 501.962 269.975C508.839 268.824 506.812 280.894 506.81 281.105C507.949 280.358 508.96 276.223 509.92 275.29C512.764 272.525 511.772 278.445 512.116 280.499C512.882 285.079 521.309 286.891 522 291.019C523.041 297.242 505.703 300.189 510.026 306.731C511.23 308.553 514.685 308.464 515.929 310.025C516.474 310.709 516.703 312.292 517.93 312.225C518.743 320.115 509.966 321.937 507.42 322.629C505.608 323.122 503.815 324.428 502.195 322.884C502.299 334.611 492.181 330.423 491.853 331.767C486.547 339.781 482.06 335.824 477.518 338.503C476.647 339.017 475.648 339.069 474.655 339.235C471.801 339.713 469.153 340.98 466.331 341.67C455.711 344.265 443.125 352.831 432.346 354.634C415.172 357.507 399.443 354.353 382.219 357.234L364.685 360.168C372 364.039 364.476 365.391 361.939 365.041C359.845 364.752 350.5 370 350.88 360.478C350.682 365.45 344.795 364.266 340.166 365.041C334.183 365.184 332.393 364.162 326.465 365.041C322.678 365.603 318.785 364.805 314.93 365.45C307.526 366.688 301.602 368.325 294.265 368.5C291.936 368.556 288.329 362.804 286.021 362.682C284.883 368.5 278.033 365.45 279.335 361.773C268.597 368.5 267.121 365.235 265.838 365.45C259.186 366.563 260.438 361.182 254.062 359.185C260.432 365.45 245.966 360.663 243.894 359.185C243.114 358.629 244.832 355.092 243.894 354.634C241.833 353.627 238.763 353.312 237.188 351.588C236.568 350.908 235.22 349.888 234.328 349.644C232.781 349.221 232.388 347.804 231.331 346.878C222.738 346.878 226.92 336.068 220.41 338.503C230.345 331.333 220.511 334.946 218.252 331.661C216.43 329.012 214.494 326.16 212.443 323.705C211.043 322.029 209.147 320.94 207.828 319.182C206.689 317.667 201.659 317.758 200.292 316.5C199.13 315.431 205.072 313.426 205.17 312.558C205.344 311.022 204.618 309.087 204.364 307.567C203.937 305.017 203.751 302.025 202.432 299.723C201.559 298.2 201.496 302.655 201.466 303.039C201.332 304.717 201.109 306.455 200.793 308.108C199.797 313.314 196.379 310.494 195.604 306.723C194.914 303.368 191.05 302.657 189.142 299.723C187.988 297.947 188.669 291.708 187.255 290.151C185.295 287.992 184.832 285.04 183.451 282.564C179.457 275.402 180.162 266.595 176.779 259.346C175.66 256.95 175.597 253.799 175.162 251.196C174.525 247.387 175.842 244.01 175.342 240.154C174.962 237.214 172.599 232.265 172.071 229.108C171.747 227.174 173.789 225.573 174.227 223.724C174.83 221.18 173.586 218.956 174.396 216.317C174.971 214.443 173.973 211.425 174.876 209.928C176.028 208.018 173.936 209.514 174.396 207.305C174.844 205.153 178.856 198.159 178.713 195.992C178.559 193.667 178.347 191.449 177.96 189.134C177.856 188.516 173.703 191.778 172.071 193.159C170.493 193.179 169.987 183.962 168.394 183.637C167.366 183.427 166.25 183.787 165.836 182.656C165.474 181.668 165.382 179.578 163.925 179.822C163.304 179.926 159.566 181.029 159.067 180.409C157.408 178.351 157.187 175.479 155.765 173.301C154.833 171.873 153.882 175.403 152.773 172.084C151.737 168.981 150.798 172.878 149.272 173.543C149.713 174.012 153.05 181.761 152.181 181.167C150.179 179.8 148.3 177.987 146.214 176.814C143.675 175.386 141.338 176.595 138.968 174.871C136.539 173.104 134.601 168.078 132.316 166.128C127.756 162.237 125.709 156.621 124.438 150.857C123.711 147.56 122.378 142.245 125.061 139.431C126.728 137.683 128.273 135.598 130.689 135.194C132.203 134.941 134.191 134.156 135.484 135.237C137.212 136.682 138.528 138.674 138.968 140.906C140.38 148.081 143.999 153.345 148.212 159.131C149.284 160.602 147.326 151.644 146.951 149.4C149.398 154.48 152.245 164.777 158.967 166.175C162.632 166.938 171.685 165.246 172.636 161.016C173.651 156.5 170.042 138.429 170.775 134.064C171.738 135.954 176.148 140.288 177.177 142.034C178.442 144.177 180.05 149.457 182.511 149.844C183.448 149.991 183.794 150.984 184.754 150.962C186.2 150.927 187.724 154.946 189.142 154.708C191.298 154.348 199.047 157.611 200.292 146.869Z" fill="#145FCF"/>
<path d="M173.897 191.785C173.789 191.902 171.48 194.133 171.514 193.704C170.525 194.35 177.822 188.312 177.96 189.134C178.347 191.449 178.559 193.667 178.713 195.992C178.856 198.159 174.844 205.153 174.396 207.305C173.936 209.514 176.028 208.018 174.876 209.928C173.973 211.425 174.971 214.443 174.396 216.317C173.586 218.956 174.83 221.18 174.227 223.724C173.789 225.573 171.747 227.174 172.071 229.108C172.599 232.265 174.962 237.214 175.342 240.154C175.842 244.01 174.525 247.387 175.162 251.196C175.597 253.799 175.66 256.95 176.779 259.346C180.162 266.595 179.457 275.402 183.451 282.564C184.832 285.04 185.295 287.992 187.255 290.151C188.669 291.708 187.988 297.947 189.142 299.723C191.05 302.657 194.914 303.368 195.604 306.723C196.379 310.494 199.797 313.314 200.793 308.108C201.109 306.455 201.332 304.717 201.466 303.039C201.496 302.655 201.559 298.2 202.432 299.723C203.751 302.025 203.937 305.017 204.364 307.567C204.618 309.087 205.344 311.022 205.17 312.558C205.072 313.426 199.13 315.431 200.292 316.5C201.659 317.758 206.689 317.667 207.828 319.182C209.147 320.94 211.043 322.029 212.443 323.705C214.494 326.16 216.43 329.012 218.252 331.661C220.511 334.946 230.345 331.333 220.41 338.503C226.92 336.068 222.738 346.878 231.331 346.878C232.388 347.804 232.781 349.221 234.328 349.644C235.22 349.888 236.568 350.908 237.188 351.588C238.763 353.312 241.833 353.627 243.894 354.634C244.832 355.092 243.114 358.629 243.894 359.185C245.966 360.663 260.432 365.45 254.062 359.185C260.438 361.182 259.186 366.563 265.838 365.45C267.121 365.235 268.597 368.5 279.335 361.773C278.033 365.45 284.883 368.5 286.021 362.682C288.329 362.804 291.936 368.556 294.265 368.5C301.602 368.325 307.526 366.688 314.93 365.45C318.785 364.805 322.678 365.603 326.465 365.041C332.393 364.162 334.183 365.184 340.166 365.041C344.795 364.266 350.682 365.45 350.88 360.478C350.5 370 359.845 364.752 361.939 365.041C364.476 365.391 372 364.039 364.685 360.168C370.53 359.19 376.374 358.212 382.219 357.234C399.443 354.353 415.172 357.507 432.346 354.634C443.125 352.831 455.711 344.265 466.331 341.67C469.153 340.98 471.801 339.713 474.655 339.235C475.648 339.069 476.647 339.017 477.518 338.503C482.06 335.823 486.547 339.781 491.853 331.767C492.181 330.423 502.299 334.611 502.195 322.884C503.815 324.428 505.608 323.122 507.42 322.629C509.966 321.937 518.743 320.115 517.93 312.225C516.703 312.292 516.474 310.709 515.929 310.025C514.685 308.464 511.23 308.553 510.026 306.731C505.703 300.189 523.041 297.242 522 291.019C521.309 286.891 512.882 285.079 512.116 280.499C511.772 278.445 512.764 272.525 509.92 275.29C508.96 276.223 507.949 280.358 506.81 281.105C506.812 280.894 508.839 268.824 501.962 269.975C507.698 269.015 513.103 264.527 516.747 259.7C519.108 261.957 525.48 258.503 525 255.634C524.571 253.068 516.949 248.787 516.538 246.329C515.376 239.382 507.921 241.854 502.967 240.967C497.403 239.97 492.132 237.963 486.293 238.94C484.596 239.224 474.508 240.038 475.351 238.856C476.181 237.693 477.461 235.624 477.842 233.876C478 233.153 482.673 226.695 479.268 227.921C477.156 228.681 474.574 228.734 472.341 229.108C467.826 229.863 463.692 231.061 459.108 231.828C453.151 232.825 448.538 228.276 443 230.646C435.223 233.975 424.529 237.403 417.056 241.905C413.887 243.814 415.263 241.974 411.49 240.967C408.051 240.049 400.033 241.822 397.864 244.863C396.944 246.152 400.608 243.747 399.118 243.668C394.658 240.154 388.428 246.381 386.324 245.244C384.47 244.242 382.343 241.722 380.066 242.01C378.464 242.213 373.281 238.259 372 239.151C369.738 240.725 370.343 248.086 367.274 248.713C364.446 249.29 364.268 247.343 361.939 246.451C357.63 244.8 354.987 240.536 350.88 242.593C349.135 243.466 344.045 249.769 342.415 250.956C340.651 252.241 339.204 253.763 337.531 255.097C334.486 257.524 328.672 257.406 325.736 255.634C324.441 254.852 322.532 253.54 321.364 252.563C319.626 251.111 316.978 253.072 315.19 253.371C310.136 244.958 311.876 256.486 310.571 257.579C308.867 259.007 306.98 260.209 305.615 261.957C303.816 264.26 300.871 266.37 298.833 268.556C296.048 271.542 292.797 274.788 289.54 277.32C286.033 280.047 282.701 283.404 278.75 285.547C275.37 287.379 271.935 289.114 268.597 291.019C265.999 292.502 265.234 292.718 265.838 289.847C267.474 282.067 271.329 274.789 278.033 270.486C280.828 268.692 283.372 266.658 286.217 265.033C290.082 262.827 297.409 254.804 297.104 249.806C296.98 247.771 297.475 244.716 296.333 242.838C295.428 241.351 294.955 238.536 293.023 238.209C291.893 238.018 290.641 237.853 291.773 239.151C293.286 240.885 293.887 242.697 294.265 244.958C294.61 247.023 294.898 245.99 294.064 245.273C293.305 244.62 292.73 243.176 292.081 242.338C289.552 239.078 286.223 237.432 282.219 238.102C280.132 238.451 277.552 239.362 275.497 238.832C273.894 238.419 270.836 238.02 269.305 238.854C267.249 239.975 266.905 242.185 264.466 242.593C262.307 242.954 259.12 242.889 257.727 244.734C255.718 247.395 255.17 249.859 251.852 247.491C249.666 245.932 249.562 244.408 249.131 241.835C248.496 238.036 246.826 232.571 251.394 231.12C254.024 230.284 256.121 227.045 257.194 224.545C258.257 222.07 259.38 219.612 260.432 217.131C261.384 214.886 259.465 209.67 259.07 207.305C258.494 203.863 253.24 201.348 250.507 200.063C249.374 199.529 247.836 199.583 246.922 199.001C246.175 198.525 244.69 197.846 243.807 197.889C242.164 197.969 240.537 196.915 238.628 197.234C237.642 197.399 236.655 197.564 235.669 197.729C234.333 197.953 233.611 198.965 232.382 199.293C229.684 200.013 227.585 196.773 224.826 197.234C222.741 197.583 220.528 202.29 218.492 202.631C216.316 202.995 218.491 196.436 218.566 195.493C218.811 192.398 221.339 188.19 222.738 185.416C223.304 184.293 227.627 175.755 224.723 176.241C222.994 176.53 221.596 176.919 220.185 177.901C218.439 179.117 216.73 180.3 214.744 181.065C214.125 181.303 211.564 181.92 213.035 180.618C214.354 179.452 217.073 176.465 217.763 174.871C218.01 174.299 219.882 172.852 220.41 172.512C222.002 171.491 229.201 170.641 230.733 169.5C234.77 166.493 232.353 160.895 234.932 156.79C238.212 151.567 243.077 147.391 247.738 143.776C249.613 142.321 251.732 141.305 254.047 140.918C256.422 140.521 261.179 140.527 263.272 141.515C268.78 144.117 275.124 144.35 280.738 146.592C282.091 147.132 283.637 147.487 285.081 147.639C287.116 147.854 285.989 152.966 288.021 153.09C286.263 154.491 282.754 156.389 280.387 155.269C279.917 155.046 281.487 155.713 282.178 156.884C282.599 157.598 284.019 158.668 284.883 158.572C290.333 157.969 295.525 158.137 300.233 154.708C302.465 153.083 303.783 150.077 305.983 148.339C306.978 147.553 307.976 146.06 308.575 144.976C313.006 142.437 307.451 137.419 311.176 133.924C313.876 131.389 322.029 131.691 324.615 133.956C328.98 137.779 332.531 136.371 335.986 133.068C337.485 131.635 338.611 129.774 340.166 128.426C341.708 127.089 343.874 124.447 345.908 124.029C351.845 122.809 358.229 122.849 364.129 123.516C368.705 124.033 373.134 128.897 375.578 132.528C376.521 133.928 379.694 138.61 381.901 136.145C382.541 135.43 383.471 134.892 384.229 134.235C385.442 133.182 385.266 131.502 386.245 130.462C388.153 128.434 389.051 124.575 392.132 123.9C394.512 123.379 396.936 123.345 399.118 123.238C401.387 123.128 403.961 124.963 406.188 124.59C408.091 124.272 409.646 124.134 411.49 124.464C416.627 125.384 421.772 125.025 426.902 124.167C429.162 123.789 422.444 123.724 421.962 121.382C421.599 119.617 428.471 116.228 426.714 115.467C424.972 114.713 423.45 112.505 421.962 111.306C432.346 108.752 418.24 109.136 416.197 107.82C411.393 104.727 429.648 89.6318 432.346 87.0092C441.927 77.6946 428.426 71.4933 421.962 71.4022C417.854 71.3443 408.95 75.9683 404.898 76.6461C402.013 77.1289 399.127 77.6117 396.241 78.0945C394.285 78.4217 395.73 74.4813 394.658 73.0082C394.31 72.53 391.932 72.0929 392.305 71.4022C393.109 69.9132 395.426 68.4648 396.577 67.1389C398.911 64.4476 401.869 62.2824 404.505 59.9827C406.191 58.5115 409.191 56.1886 409.867 53.9879C410.279 52.6464 412.49 49.1065 413.704 48.3047C415.842 46.8917 412.23 37.9827 411.888 35.9348C411.677 34.6722 410.806 34.6194 410.105 33.6982C409.445 32.8305 409.362 31.6056 408.514 30.9227C406.727 29.4821 403.96 28.0044 402.566 26.3414C401.163 24.6667 384.229 26.3414 386.593 28.5067C379.276 29.7308 374.331 26.323 367.274 28.5067C356.067 31.9745 343.278 41.6099 332.663 46.5414C325.378 49.9259 317.199 51.2406 310.136 54.9852C305.261 57.5701 299.95 58.5956 294.874 60.8901C289.976 63.1039 285.037 65.5824 280.393 68.2696C274.954 71.4165 268.915 73.2795 263.616 76.7373C259.337 79.5297 255.128 82.5397 250.597 84.9424C247.363 86.6569 244.553 88.985 241.814 91.3685C239.999 92.9487 238.961 95.1336 236.721 96.2761C234.293 97.5147 232.662 99.4253 230.733 101.221C228.95 102.88 226.813 104.245 224.826 105.645C223.527 106.561 222.682 107.998 221.403 108.752C218.976 110.184 218.009 112.945 216.109 114.82C214.176 116.729 211.818 119.145 210.223 121.382C208.965 123.144 207.417 124.003 206.463 126.179C203.452 133.044 204.055 140.258 200.292 146.869C199.047 157.611 191.298 154.348 189.142 154.708C187.724 154.946 186.2 150.927 184.754 150.962C183.794 150.984 183.448 149.991 182.511 149.844C180.05 149.457 178.442 144.177 177.177 142.034C176.148 140.288 171.738 135.954 170.775 134.064C170.042 138.429 173.651 156.5 172.636 161.016C171.685 165.246 162.632 166.938 158.967 166.175C152.245 164.777 149.398 154.48 146.951 149.4C147.326 151.644 149.284 160.602 148.212 159.131C143.999 153.345 140.38 148.081 138.968 140.906C138.528 138.674 137.212 136.682 135.484 135.237C134.191 134.156 132.203 134.941 130.689 135.194C128.273 135.598 126.728 137.683 125.061 139.431C122.378 142.245 123.711 147.56 124.438 150.857C125.709 156.621 127.756 162.237 132.316 166.128C134.601 168.078 136.539 173.104 138.968 174.871C141.338 176.595 143.675 175.386 146.214 176.814C148.3 177.987 150.179 179.8 152.181 181.167C153.05 181.761 149.713 174.012 149.272 173.543C150.798 172.878 151.737 168.981 152.773 172.084C153.882 175.403 154.833 171.873 155.765 173.301C157.187 175.479 157.408 178.351 159.067 180.409C159.566 181.029 163.304 179.926 163.925 179.822C165.382 179.578 165.474 181.668 165.836 182.656C166.25 183.787 167.366 183.427 168.394 183.637C169.987 183.962 170.493 193.179 172.071 193.159" stroke="#145FCF" stroke-width="15" stroke-linecap="round" stroke-linejoin="round"/>
<path d="M328.5 137.925C330.365 135.391 339.5 138.5 337.417 128.491C343.963 132.244 341.267 124.299 343.963 123.848C350.825 122.7 356.463 122.568 363.157 124.946C368.167 126.726 371.548 131.572 377.108 132.244C380.917 132.704 386.057 131.248 387.101 127.164C387.857 124.206 393.151 129.006 396.226 128.491C399.305 127.976 397.228 120.78 400.14 121.772C403.548 122.932 407.615 122.583 411.156 123.14C416.361 123.958 431.114 121.925 435.5 119.063C439.921 116.178 427.511 117.206 425.627 114.354C424.936 113.31 423.837 112.884 422.84 112.173C421.736 111.386 421.471 109.831 420.737 108.694C419.65 107.013 418.213 100.374 419.89 98.7531C422.14 96.5805 425.024 94.8659 427.472 92.894C431.221 89.8735 434.76 86.4518 435.5 82.6154C436.285 78.5439 433.105 71.3608 429.478 71.7133C426.287 72.0235 418.701 72.1795 415.5 71.7133C412.125 71.2217 408.354 76.3075 404.944 76.2442C400.731 76.166 394.521 74.3065 391.287 71.7133C388.496 69.4759 384.865 66.4533 387.101 62.5C388.801 59.4949 392.797 54.4985 396.226 53.7634C399.017 53.1649 401.762 54.1252 402.667 50.8119C403.797 46.6741 411.156 42.5 401.901 36.8019C400.616 33.6279 396.513 33.4375 394.131 33.8359C390.507 34.4422 386.736 34.3575 383.03 34.651C377.407 35.0963 371.809 34.5286 366.184 35.4696C359.609 36.5696 353.034 37.6696 346.459 38.7697C337.452 40.2765 329.24 42.3516 320.679 45.4482C315.412 47.3535 310.883 50.847 305.422 52.2253C299.121 53.8156 293.148 57.3444 287.151 59.8445C283.224 61.4817 279.226 62.5823 275.865 65.2812C271.06 69.14 265.144 70.9435 260.098 74.3967C255.954 77.2324 251.626 80.0061 247.335 82.6154C244 84.6429 240.183 86.596 237.137 88.9967C226.419 97.4418 217.827 109.113 208.595 119.063C206.449 121.376 210.956 126.327 208.595 128.491C207.175 129.794 209.369 136.149 208.595 137.925C206.73 142.211 212.267 138.081 205 135.693C204.628 140.375 194 156.099 192.117 160.291C191.162 162.417 189.403 159.104 188.457 157.777C187.216 156.037 185.92 154.129 184.965 152.222C183.58 149.455 181.539 147.055 179.531 144.654C177.942 142.755 175.754 140.276 174.969 137.925C174.905 137.732 170.815 135.486 170.619 135.693C170.093 136.244 173.973 142.247 173.922 143.114C173.674 147.343 172.271 150.96 172.212 155.116C172.177 157.616 170.895 160.236 170.619 162.761C170.433 164.459 170.023 164.607 168.437 164.872C164.179 165.585 161.372 164.902 157.576 162.409C152.339 158.969 142.633 140.216 138.387 135.693C137.146 134.37 117.723 137.925 132.11 148.213C120.223 143.114 130.172 156.157 130.5 158.115C131.215 162.39 137.172 171.062 142.001 172.844C148.179 175.123 154.796 177.144 161.308 178.992C164.483 179.894 168.116 181.061 170.841 182.946C173.566 184.83 169.693 191.376 172.212 193.5C175.348 196.144 181.127 198.973 181.745 202.667C182.097 204.771 182.875 207.21 182.749 209.343C182.593 211.979 182.878 214.371 182.626 217.024C182.395 219.445 181.898 221.764 182.301 224.175C183.274 229.989 183.261 235.976 184.244 241.847C184.6 243.975 184.956 246.103 185.312 248.231C185.433 248.953 186.171 251.017 185.761 251.591C185.563 251.869 184.853 248.412 184.754 247.93C184.211 245.289 182.622 243.014 181.941 240.374C181.075 237.017 179.427 234.267 178.848 230.808C178.208 226.983 178.057 222.481 180.444 219.135" stroke="#0F54BA" stroke-width="15" stroke-linecap="round" stroke-linejoin="round"/>
<path d="M219.153 208.097C223.226 206.571 227.037 204.743 230.969 202.966C234.257 201.479 237.45 200.98 241.151 200.361C246.438 199.476 254.241 196.779 257.537 202.689C260.591 208.164 262.116 213.68 260.178 219.99C259.115 223.452 259.115 227.421 257.65 230.806C256.709 232.979 255.578 235.201 254.453 237.283C253.275 239.464 251.089 242.729 250.704 245.177C250.655 245.486 251.124 244.703 251.384 244.528C252.272 243.93 253.455 243.965 254.425 243.512C255.46 243.029 256.641 241.933 257.725 241.692C261.298 240.9 264.375 239.059 268.108 238.435C271.106 237.933 276.459 235.896 279.369 237.058C284.79 239.223 296.394 239.047 298.5 245.177C299.215 247.259 298.5 254.42 294.102 254.42C293.556 258.907 291.388 260.888 288.628 264.123C286.038 267.159 281.313 269.095 277.992 271.254C273.483 274.184 268.252 276.312 263.182 278.012C258.996 279.416 254.976 281.695 250.572 282.431C248.318 282.808 247.362 280.252 246.665 278.269C245.616 275.286 248.003 272.215 251.086 271.699" stroke="#0F54BA" stroke-width="15" stroke-linecap="round" stroke-linejoin="round"/>
<path d="M229.549 136.905C229.738 133.893 230.879 132.112 232.385 129.615C233.29 128.115 234.353 126.016 235.515 124.754C240.988 118.808 246.875 111.941 254.127 108.235C265.022 102.667 274.291 94.3211 285.781 89.871C290.144 88.1814 299.659 84.3227 303.18 89.1571C305.454 92.2803 306.997 97.5748 305.722 101.321C305.34 102.443 305.108 103.416 304.851 104.537C304.505 106.052 308.9 101.556 309.115 101.401C314.364 97.6293 320.254 95.6386 326.77 95.3213C331.408 95.0955 333.556 101.038 334.169 104.701" stroke="#0F54BA" stroke-width="15" stroke-linecap="round" stroke-linejoin="round"/>
<path d="M349.218 249.199C351.491 248.286 353.434 247.145 355.962 247.085C358.796 247.017 360.969 249.384 362.946 250.958C366.235 253.575 368.705 250.796 370.014 247.747C371.357 244.619 371.357 243.974 374.833 243.393C377.181 243 379.079 244.697 381.438 244.822C384.277 244.973 386.71 247.555 389.372 248.311C391.663 248.962 393.926 251.281 396.265 251.467C399.124 251.694 401.877 251.035 404.704 250.562C408.557 249.917 414.855 250.143 418.027 247.713C419.766 246.381 422.091 245.713 423.642 244.239C424.923 243.022 426.618 241.599 428.271 240.93C431.067 239.799 433.912 238.178 436.89 237.573C442.59 236.416 447.966 234.495 453.519 233.27C455.213 232.897 458.592 231.176 460.112 230.252C462.684 228.688 467.051 227.99 469.901 227.488C470.997 227.295 484.564 225.151 484.554 225.346C484.45 227.32 479.989 229.983 478.525 231.396C476.496 233.356 470.632 239.049 472.847 242.401C474.223 244.483 482.001 239.606 483.813 238.595C486.294 237.211 490.76 237.021 493.462 237.009C496.886 236.994 499.678 236.942 502.911 237.935C505.852 238.838 507.64 241.214 509.7 243.333C511.635 245.324 513.541 246.594 514.037 249.563C514.677 253.388 516.384 258.331 514.607 262.057C511.98 267.565 508.052 271.247 503.883 275.568C502.806 276.684 495.056 284.567 497.675 286.435C498.478 287.008 500.715 286.208 501.639 286.054C505.648 285.383 509.657 284.713 513.666 284.042C514.709 283.867 522.395 281.729 523.086 282.776C523.859 283.945 522.448 285.894 522.066 286.946C521.226 289.256 519.456 290.917 518.713 293.336C517.926 295.899 517.093 299.266 515.622 301.458C514.248 303.505 513.751 304.645 516.264 305.293C518.197 305.792 519.567 306.859 519.919 308.963C520.163 310.419 521.204 313.311 520.361 314.634C518.886 316.95 516.433 318.641 514.327 320.319C512.388 321.865 509.827 322.585 507.745 324.067C504.398 326.449 500.821 328.706 497.337 330.878C494.589 332.591 491.727 334.624 488.576 335.414C486.236 336 484.592 337.914 482.212 338.45C478.849 339.206 476.153 341.149 472.839 342.018C461.127 345.088 449.555 349.048 437.311 350.017C434.635 350.229 432.319 350.137 430.446 347.871C429.457 346.673 429.281 344.244 427.808 343.383C427.406 343.148 426.262 345.754 425.988 346.138C423.497 349.629 418.412 353.714 414.22 354.415C412.109 354.769 410.082 354.992 408.138 355.94C403.605 358.151 397.34 358.253 392.44 359.073C389.282 359.601 386.127 360.18 382.961 360.659C380.459 361.037 378.148 360.449 375.663 360.472C367.825 360.543 360.258 359.602 352.418 358.897C345.705 358.293 339.17 358.05 332.506 356.708C325.647 355.326 318.97 352.984 312.172 351.322C300.509 348.471 287.967 347.929 276.712 343.736C276.183 343.539 272.631 341.587 272.583 341.949C272.292 344.126 273.988 346.434 275.034 348.185C275.916 349.661 277.139 353.284 276.034 354.833C273.738 358.052 265.719 358.267 262.555 357.089C260.087 356.17 258.781 355.079 257.1 353.101C253.354 348.694 249.89 344.074 246.323 339.526C245.207 338.102 243.689 336.598 243.014 334.897C242.556 333.744 241.127 330.349 241.331 331.574C241.716 333.875 242.871 340.504 238.843 339.932C229.568 338.617 224.772 324.805 222.618 317.356C222.17 315.808 221.297 314.284 220.944 312.735C220.9 312.544 220.739 314.276 220.196 315.001C215.66 321.064 211.414 315.993 207.8 311.611C204.194 307.239 203.425 301.955 202.521 296.553" stroke="#0F54BA" stroke-width="15" stroke-linecap="round" stroke-linejoin="round"/>
<path d="M441.954 273.226C446.043 271.735 447.736 272.574 451.152 275.011C452.942 276.288 455.01 279.364 454.426 281.786C453.541 285.455 449.651 288.812 447.345 291.645C446.904 292.186 449.133 292.371 449.834 292.721C453.659 294.631 457.028 296.045 459.561 299.684C467.867 311.615 450.644 316.328 442.036 317.824C429.563 319.992 418.296 317.689 406.277 313.837C403.934 313.085 400.244 312.273 398.493 310.407" stroke="#0F54BA" stroke-width="15" stroke-linecap="round" stroke-linejoin="round"/>
<path d="M163.403 189.034C129.456 192.179 106.5 154.956 122.614 130.067C125.975 124.875 135.952 124.9 140.34 127.609C147.041 131.745 156.588 149.725 161.409 155.909C165.792 161.53 163.961 146.373 164.361 143.249C164.673 140.807 164.188 125.051 166.715 124.323C175.932 121.666 181.02 142.827 193.297 146.519" stroke="#031F48" stroke-width="5" stroke-linecap="round" stroke-linejoin="round"/>
<path d="M195.679 142.572C203.062 89.7404 263.256 63.3932 310.934 42.6287C339.6 30.1442 358.113 22.6253 379.812 18.9952C393.121 17.0587 411.742 17.9951 420.261 30.4784C423.189 34.769 422.025 47.8423 420.321 53.3937C418.951 57.8545 413.046 65.8781 408.191 67.4207C405.031 68.425 411.368 66.9456 412.365 66.7788C417.83 65.8645 452.499 56.5158 437.306 92.9669C435.725 96.1151 432.898 100.601 429.319 101.457C422.437 103.102 465.938 121.692 425.995 131.416C423.3 131.867 407.672 134.363 405.774 131.757" stroke="#031F48" stroke-width="5" stroke-linecap="round" stroke-linejoin="round"/>
<path d="M231.05 184.307C238.194 176.15 239.031 162.126 247.7 155.217C252.091 151.718 262.652 147.053 268.02 151.423C274.079 156.357 276.767 166.165 285.966 165.77C300.005 165.167 306.753 158.944 312.843 147.304C314.41 144.309 318.838 139.588 322.768 142.658C324.153 143.74 324.8 145.906 326.397 146.839C328.073 147.819 333.949 145.853 335.566 145.418C341.463 143.83 346.153 135.13 351.524 134.749C366.329 135.371 369.089 151.864 369.95 157.014" stroke="#031F48" stroke-width="5" stroke-linecap="round" stroke-linejoin="round"/>
<path d="M314.787 242.42C320.2 242.531 324.863 244.362 329.368 247.291C332.632 249.414 339.118 247.784 339.594 244.188C339.98 241.271 343.297 231.689 366.254 238.379C369.646 237.812 368.288 234.534 370.638 232.62C374.069 229.826 377.572 232.918 380.745 234.127C384.834 235.686 390.306 234.355 394.434 233.665" stroke="#031F48" stroke-width="5" stroke-linecap="round" stroke-linejoin="round"/>
<path d="M224.153 197.628C244.612 183.559 284.108 188.668 262.89 232.21C300.483 216.852 332.525 251.484 273.56 280.163" stroke="#031F48" stroke-width="5" stroke-linecap="round" stroke-linejoin="round"/>
<path d="M294.668 176.706C299.288 204.322 312.422 199.552 313.576 195.792C315.265 190.29 313.384 179.495 312.421 173.736" stroke="#031F48" stroke-width="5" stroke-linecap="round" stroke-linejoin="round"/>
<path d="M331.982 169.45C333 175.538 337.496 193.191 346.124 190.347C354.955 187.436 350.378 173.354 349.242 166.562" stroke="#031F48" stroke-width="5" stroke-linecap="round" stroke-linejoin="round"/>
<path d="M365.684 170.909C391.269 152.543 421.688 135.475 453.12 129.92C465.854 127.669 478.832 127.784 491.225 132.107C502.37 135.994 509.457 143.492 511.496 154.626C513.582 166.015 520.077 205.913 403.865 235.494" stroke="#031F48" stroke-width="5" stroke-linecap="round" stroke-linejoin="round"/>
<path d="M346.022 277.616C348.919 282.563 351.355 287.953 356.798 290.514C359.989 292.016 370.812 291.397 373.154 288.285C377.024 283.144 373.927 274.719 372.978 269.05" stroke="#031F48" stroke-width="5" stroke-linecap="round" stroke-linejoin="round"/>
<path d="M166.78 200.129C162.887 211.018 160.095 290.471 203.354 327.845C212.695 335.914 215.639 358.516 259.277 371.212C326.998 383.083 411.064 365.459 478.261 349.56C503.053 343.694 543.709 309.454 524.083 305.619C515.698 303.98 533.116 289.913 525.785 280.775C523.899 277.218 519.615 274.935 515.516 275.621C540.74 256.7 530.941 228.429 489.68 233.304C487.123 233.732 484.566 234.16 482.008 234.588C480.58 234.827 483.413 233.825 484.016 232.449C491.729 224.343 491.146 211.767 453.342 225.189" stroke="#031F48" stroke-width="5" stroke-linecap="round" stroke-linejoin="round"/>
</svg>
