<svg width="35" height="36" viewBox="0 0 35 36" fill="none" xmlns="http://www.w3.org/2000/svg">
<path d="M2 3H4V36H2V3Z" fill="#CCD6DD"/>
<path d="M3 6C4.65685 6 6 4.65685 6 3C6 1.34315 4.65685 0 3 0C1.34315 0 0 1.34315 0 3C0 4.65685 1.34315 6 3 6Z" fill="#F4900C"/>
<path d="M8 28H3C2.448 28 2 27.553 2 27C2 26.447 2.448 26 3 26H8C8.552 26 9 26.447 9 27C9 27.553 8.552 28 8 28Z" fill="#66757F"/>
<path d="M30 27C30 24.791 36.209 21 34 21H25.553C24.35 19.536 20.958 18 18.5 18C16.041 18 15.27 19.536 15.065 21H9C6.791 21 6 22.791 6 25V29C6 31.209 6.791 33 9 33H34C36.209 33 30 29.209 30 27Z" fill="#DD2E44"/>
<path d="M11 28C12.6569 28 14 26.6569 14 25C14 23.3431 12.6569 22 11 22C9.34315 22 8 23.3431 8 25C8 26.6569 9.34315 28 11 28Z" fill="white"/>
<path d="M10.5 26C11.3284 26 12 25.3284 12 24.5C12 23.6716 11.3284 23 10.5 23C9.67157 23 9 23.6716 9 24.5C9 25.3284 9.67157 26 10.5 26Z" fill="black"/>
<path d="M34 21H14.962C17.03 23.286 19.704 27.465 14.925 33H34C36.209 33 30 29.209 30 27C30 24.791 36.209 21 34 21Z" fill="#F4ABBA"/>
<path d="M8 12H3C2.448 12 2 11.552 2 11C2 10.448 2.448 10 3 10H8C8.552 10 9 10.448 9 11C9 11.552 8.552 12 8 12Z" fill="#66757F"/>
<path d="M30 11C30 8.791 36.209 5 34 5H25.554C24.351 3.536 20.959 2 18.5 2C16.041 2 15.27 3.536 15.065 5H9C6.791 5 6 6.791 6 9V13C6 15.209 6.791 17 9 17H34C36.209 17 30 13.209 30 11Z" fill="#55ACEE"/>
<path d="M11 12C12.6569 12 14 10.6569 14 9C14 7.34315 12.6569 6 11 6C9.34315 6 8 7.34315 8 9C8 10.6569 9.34315 12 11 12Z" fill="white"/>
<path d="M10.5 10C11.3284 10 12 9.32843 12 8.5C12 7.67157 11.3284 7 10.5 7C9.67157 7 9 7.67157 9 8.5C9 9.32843 9.67157 10 10.5 10Z" fill="black"/>
<path d="M34 5H14.962C17.03 7.286 19.704 11.465 14.925 17H34C36.209 17 30 13.209 30 11C30 8.791 36.209 5 34 5Z" fill="#BBDDF5"/>
</svg>
